<svg id="Group_446" data-name="Group 446" xmlns="http://www.w3.org/2000/svg" xmlns:xlink="http://www.w3.org/1999/xlink" width="16.303" height="16.224" viewBox="0 0 16.303 16.224">
  <defs>
    <clipPath id="clip-path">
      <path id="Path_30" data-name="Path 30" d="M0-2051.142H16.3v-16.224H0Z" transform="translate(0 2067.366)" fill="#6ec5ed"/>
    </clipPath>
  </defs>
  <g id="Group_445" data-name="Group 445" clip-path="url(#clip-path)">
    <g id="Group_443" data-name="Group 443" transform="translate(0.071 0.055)">
      <path id="Path_28" data-name="Path 28" d="M-2043.2-1021.6a8.081,8.081,0,0,0-8.081-8.081,8.081,8.081,0,0,0-8.081,8.081,8.081,8.081,0,0,0,8.081,8.081,8.081,8.081,0,0,0,8.081-8.081m-1.657,0a6.424,6.424,0,0,1-6.424,6.424,6.424,6.424,0,0,1-6.424-6.424,6.424,6.424,0,0,1,6.424-6.424,6.424,6.424,0,0,1,6.424,6.424" transform="translate(2059.366 1029.683)" fill="#6ec5ed"/>
    </g>
    <g id="Group_444" data-name="Group 444" transform="translate(5.138 5.122)">
      <path id="Path_29" data-name="Path 29" d="M-380.986-761.973a3.014,3.014,0,0,0,3.014-3.014A3.014,3.014,0,0,0-380.986-768,3.014,3.014,0,0,0-384-764.986a3.014,3.014,0,0,0,3.014,3.014" transform="translate(384 768)" fill="#6ec5ed"/>
    </g>
  </g>
</svg>
