<svg xmlns="http://www.w3.org/2000/svg" xmlns:xlink="http://www.w3.org/1999/xlink" width="198.282" height="81.17" viewBox="0 0 198.282 81.17">
  <defs>
    <clipPath id="clip-path">
      <rect id="Rectangle_134" data-name="Rectangle 134" width="97.158" height="55.958" fill="none"/>
    </clipPath>
  </defs>
  <g id="Group_441" data-name="Group 441" transform="translate(-712.523 -1227.794)">
    <g id="Group_440" data-name="Group 440" transform="translate(712.523 1227.794)">
      <path id="Path_429" data-name="Path 429" d="M388.22,522.51l.071.071.071-.071Z" transform="translate(-328.653 -442.336)" fill="#232427"/>
      <path id="Path_430" data-name="Path 430" d="M520.45,390.428l.069-.069-.069-.069Z" transform="translate(-440.593 -330.406)" fill="#232427"/>
      <path id="Path_431" data-name="Path 431" d="M520.45,125.968l.069-.069-.069-.069Z" transform="translate(-440.593 -106.527)" fill="#232427"/>
      <path id="Path_432" data-name="Path 432" d="M522.45,391.428l.069-.069-.069-.069Z" transform="translate(-442.285 -331.252)" fill="#232427"/>
      <path id="Path_433" data-name="Path 433" d="M522.45,126.968l.069-.069-.069-.069Z" transform="translate(-442.285 -107.374)" fill="#232427"/>
      <rect id="Rectangle_126" data-name="Rectangle 126" width="28.696" height="28.696" transform="translate(0 60.873) rotate(-45)" fill="#232427"/>
      <rect id="Rectangle_127" data-name="Rectangle 127" width="28.696" height="28.696" transform="translate(0 20.291) rotate(-45)" fill="#232427"/>
      <rect id="Rectangle_130" data-name="Rectangle 130" width="28.696" height="28.696" transform="translate(40.582 20.291) rotate(-45)" fill="#232427"/>
      <path id="Path_439" data-name="Path 439" d="M396.69,416.993h20.3v-20.3Z" transform="translate(-335.824 -335.823)" fill="#232427"/>
    </g>
    <g id="Group_439" data-name="Group 439" transform="translate(813.647 1253.006)">
      <g id="Group_438" data-name="Group 438" transform="translate(0)">
        <g id="Group_437" data-name="Group 437" clip-path="url(#clip-path)">
          <path id="Path_451" data-name="Path 451" d="M15.72,14.964c0,3.749-3.053,6.2-6.832,6.2H0V0H8.283c3.688,0,6.681,2.388,6.681,6.046a5.3,5.3,0,0,1-1.844,4.142,5.465,5.465,0,0,1,2.6,4.776M4.837,4.534V8.283H8.283a1.786,1.786,0,0,0,1.844-1.874A1.769,1.769,0,0,0,8.283,4.534ZM10.883,14.6a1.912,1.912,0,0,0-2-2.026H4.837v4.051H8.888a1.912,1.912,0,0,0,2-2.025" fill="#232427"/>
          <path id="Path_452" data-name="Path 452" d="M132.314,39.4V54.516h-4.535V53.1a5.169,5.169,0,0,1-4.323,1.844c-3.053,0-5.653-2.177-5.653-6.258V39.4h4.535v8.616a2.493,2.493,0,0,0,2.63,2.751c1.663,0,2.811-.967,2.811-3.114V39.4Z" transform="translate(-99.726 -33.355)" fill="#232427"/>
          <path id="Path_453" data-name="Path 453" d="M243.1,37.431V42.57c-1.874-.3-4.535.453-4.535,3.446v6.832h-4.535V37.733h4.535v2.69a4.54,4.54,0,0,1,4.535-2.993" transform="translate(-198.12 -31.687)" fill="#232427"/>
          <path id="Path_454" data-name="Path 454" d="M307.475,48.554a3.947,3.947,0,0,0,2.9-1.149l3.628,2.086a7.671,7.671,0,0,1-6.59,3.114c-5.169,0-8.374-3.476-8.374-7.981a7.75,7.75,0,0,1,8.041-7.981,7.632,7.632,0,0,1,7.679,7.981,8.786,8.786,0,0,1-.181,1.814H303.848c.574,1.572,1.965,2.116,3.628,2.116m2.781-5.5a3.405,3.405,0,0,0-6.5,0Z" transform="translate(-253.153 -31.02)" fill="#232427"/>
          <path id="Path_455" data-name="Path 455" d="M428.58,37.066V52.182h-4.535V50.761a5.678,5.678,0,0,1-4.5,1.844c-3.96,0-7.225-3.477-7.225-7.981s3.265-7.981,7.225-7.981a5.678,5.678,0,0,1,4.5,1.844V37.066Zm-4.535,7.558a3.6,3.6,0,1,0-7.2,0,3.6,3.6,0,1,0,7.2,0" transform="translate(-349.046 -31.02)" fill="#232427"/>
          <path id="Path_456" data-name="Path 456" d="M553.1,39.4V54.516h-4.535V53.1a5.169,5.169,0,0,1-4.323,1.844c-3.053,0-5.653-2.177-5.653-6.258V39.4h4.535v8.616a2.493,2.493,0,0,0,2.63,2.751c1.663,0,2.811-.967,2.811-3.114V39.4Z" transform="translate(-455.942 -33.355)" fill="#232427"/>
          <path id="Path_457" data-name="Path 457" d="M15.418,231.255a7.272,7.272,0,0,1-7.406,7.255H4.837v6.651H0V224H8.011a7.272,7.272,0,0,1,7.406,7.255m-4.837,0a2.586,2.586,0,0,0-2.57-2.721H4.837v5.441H8.011a2.586,2.586,0,0,0,2.57-2.721" transform="translate(0 -189.627)" fill="#232427"/>
          <path id="Path_458" data-name="Path 458" d="M122.344,261.431v5.139c-1.874-.3-4.535.453-4.535,3.446v6.832h-4.535V261.733h4.535v2.69a4.54,4.54,0,0,1,4.535-2.993" transform="translate(-95.893 -221.314)" fill="#232427"/>
          <path id="Path_459" data-name="Path 459" d="M178.285,268.624A8.011,8.011,0,1,1,186.3,276.6a7.923,7.923,0,0,1-8.011-7.981m11.488,0a3.478,3.478,0,1,0-3.476,3.567,3.39,3.39,0,0,0,3.476-3.567" transform="translate(-150.927 -220.647)" fill="#232427"/>
          <path id="Path_460" data-name="Path 460" d="M304.552,242.827h-4.535V232.065h-3.87v10.762h-4.534V232.065h-2.026v-4.353h2.026c0-4.232,2.328-6.469,7.346-6.469a18.311,18.311,0,0,1,3.779.423v4.172a34.8,34.8,0,0,0-3.779-.242c-1.693,0-2.812.363-2.812,2.116h8.4Z" transform="translate(-245.15 -187.292)" fill="#232427"/>
          <path id="Path_461" data-name="Path 461" d="M412.281,272.554a3.947,3.947,0,0,0,2.9-1.149l3.628,2.086a7.671,7.671,0,0,1-6.59,3.114c-5.169,0-8.374-3.477-8.374-7.981a7.75,7.75,0,0,1,8.041-7.981,7.632,7.632,0,0,1,7.679,7.981,8.784,8.784,0,0,1-.181,1.814H408.654c.574,1.572,1.965,2.116,3.628,2.116m2.781-5.5a3.405,3.405,0,0,0-6.5,0Z" transform="translate(-341.876 -220.647)" fill="#232427"/>
          <rect id="Rectangle_133" data-name="Rectangle 133" width="4.535" height="22.068" transform="translate(80.26 33.466)" fill="#232427"/>
        </g>
      </g>
    </g>
  </g>
</svg>
