<svg id="Group_557" data-name="Group 557" xmlns="http://www.w3.org/2000/svg" xmlns:xlink="http://www.w3.org/1999/xlink" width="260" height="66.025" viewBox="0 0 260 66.025">
  <defs>
    <clipPath id="clip-path">
      <rect id="Rectangle_176" data-name="Rectangle 176" width="260" height="66.025" fill="none"/>
    </clipPath>
  </defs>
  <g id="Group_556" data-name="Group 556" clip-path="url(#clip-path)">
    <path id="Path_487" data-name="Path 487" d="M394.613,20.24a1.445,1.445,0,0,1,1.443,1.445V60.344a1.445,1.445,0,0,1-1.443,1.444h-87.72L321.4,20.24Zm0-3.5h-75.7L301.968,65.285h92.645a4.942,4.942,0,0,0,4.941-4.941V21.685a4.943,4.943,0,0,0-4.941-4.942" transform="translate(-139.553 -7.738)" fill="#e13d14"/>
    <path id="Path_488" data-name="Path 488" d="M232.4,56.525l1.631,3.55.5,1.136c1.133,2.483,2.908,3.758,5.32,3.758a5.471,5.471,0,0,0,5.462-5.251c0-1.275-.141-1.986-1.206-4.255L228,20.35a5.492,5.492,0,0,0-5.18-3.334,5.324,5.324,0,0,0-5.181,3.334L201.963,55.605l-.5,1.065a7.461,7.461,0,0,0-.78,3.047,5.412,5.412,0,0,0,5.463,5.181c2.413,0,4.117-1.205,5.319-3.832l.428-1.061,1.489-3.48Zm-3.76-9.363H217.284L222.89,33.54Z" transform="translate(-92.745 -7.864)" fill="#141215"/>
    <path id="Path_489" data-name="Path 489" d="M26.678,41.93,19.015,20.857c-1.065-2.768-2.769-4.114-5.107-4.114-2.485,0-4.471,1.7-5.111,4.538L.5,56.471.215,57.605A8.807,8.807,0,0,0,0,59.524a5.267,5.267,0,0,0,5.322,5.318c2.765,0,4.683-1.629,5.462-4.751l.283-1.135,4.47-18.942L21.78,60.3c.923,3.05,2.627,4.61,4.968,4.61a4.919,4.919,0,0,0,4.61-3.617l.355-.993,6.315-20.289L42.64,58.956l.285,1.2c.711,2.978,2.7,4.681,5.461,4.681a5.283,5.283,0,0,0,5.32-5.177,10.751,10.751,0,0,0-.213-2.127l-.28-1.138L44.626,21.495c-.708-3.048-2.695-4.752-5.32-4.752-2.485,0-4.045,1.417-5.25,4.752Z" transform="translate(0 -7.738)" fill="#141215"/>
    <path id="Path_490" data-name="Path 490" d="M131.548,54.168a13.621,13.621,0,1,1,13.621-13.622,13.623,13.623,0,0,1-13.621,13.622m0-38.063A24.443,24.443,0,1,0,155.99,40.547,24.443,24.443,0,0,0,131.548,16.1" transform="translate(-49.498 -7.443)" fill="#141215"/>
    <path id="Path_491" data-name="Path 491" d="M153.782,54.042a8.739,8.739,0,1,1-8.739-8.739,8.738,8.738,0,0,1,8.739,8.739" transform="translate(-62.992 -20.937)" fill="#141215"/>
    <path id="Path_492" data-name="Path 492" d="M297.676,66.025a2.477,2.477,0,0,1-.811-.139,2.444,2.444,0,0,1-1.493-3.116L316.912,1.63a2.442,2.442,0,0,1,4.607,1.624L299.98,64.394a2.442,2.442,0,0,1-2.3,1.631" transform="translate(-136.441 0)" fill="#e13d14"/>
    <rect id="Rectangle_170" data-name="Rectangle 170" width="2.904" height="2.905" transform="translate(201.132 25.6)" fill="#922678"/>
    <rect id="Rectangle_171" data-name="Rectangle 171" width="2.904" height="2.904" transform="translate(204.034 28.5)" fill="#bcbdbc"/>
    <rect id="Rectangle_172" data-name="Rectangle 172" width="2.903" height="2.904" transform="translate(206.934 31.399)" fill="#e13d14"/>
    <rect id="Rectangle_173" data-name="Rectangle 173" width="2.904" height="2.904" transform="translate(198.234 34.299)" fill="#e13d14"/>
    <path id="Path_493" data-name="Path 493" d="M366.2,30.168h-8.378a3.866,3.866,0,0,0-4.013,4.216V59.263a4.161,4.161,0,0,0,4.217,4.164H366c11.2,0,18.148-6.426,18.148-16.758,0-10.279-6.737-16.5-17.941-16.5m.174,26.782h-4.626V54.042h2.9v-2.9h-2.9v-5.8h-2.9v-2.9h2.9v-2.9h2.9v-2.9h1.828c.366,0,.723.02,1.071.042v2.863h2.9V37.2c4.142,1.243,6.57,4.573,6.57,9.523,0,6.476-4.011,10.231-10.641,10.231" transform="translate(-163.513 -13.942)" fill="#141215"/>
    <path id="Path_494" data-name="Path 494" d="M371.38,66.776h-3v-3h.1v2.9h2.9Z" transform="translate(-170.244 -29.472)" fill="#130e0d"/>
    <rect id="Rectangle_174" data-name="Rectangle 174" width="2.905" height="2.904" transform="translate(201.134 31.399)" fill="#141215"/>
    <rect id="Rectangle_175" data-name="Rectangle 175" width="2.904" height="2.903" transform="translate(204.034 37.2)" fill="#922678"/>
    <path id="Path_495" data-name="Path 495" d="M373.957,77.462h1.73c.4,0,.791-.017,1.175-.046V74.551h-2.9Z" transform="translate(-172.823 -34.453)" fill="#bcbdbc"/>
    <path id="Path_496" data-name="Path 496" d="M424.65,63.8a1.611,1.611,0,0,1-1.77,1.554c-.68,0-1.086-.324-1.086-.838,0-.775.86-1.088,2.533-1.146l.324-.012Zm0-1.3v.117h-.155c-2.591.048-3.859.622-3.859,1.95,0,.98.73,1.634,1.961,1.634a2.46,2.46,0,0,0,2.066-1c.012.7.31.93.73.93.214,0,.432-.07.432-.13V62.472c0-1.458-.887-2.293-2.512-2.293s-2.46.823-2.46,1.373a.527.527,0,0,0,.364.508,1.021,1.021,0,0,0,.365.066,1.734,1.734,0,0,1,1.646-.982,1.252,1.252,0,0,1,1.424,1.354m-9,2.973c0,.42.183.649.517.649h.194c.357,0,.535-.2.535-.567V62.926h2.651q.575,0,.575-.5v-.047c0-.31-.178-.491-.575-.491H416.87V59.426h3.608c.382,0,.576-.179.576-.514v-.071c0-.324-.194-.5-.576-.5h-4.172a.64.64,0,0,0-.659.694Z" transform="translate(-192.09 -26.961)" fill="#141215"/>
    <path id="Path_497" data-name="Path 497" d="M436.16,57.941a.623.623,0,0,0,.7.659c.454,0,.7-.228.7-.659a.616.616,0,0,0-.693-.667.628.628,0,0,0-.716.667m.1,7.123c0,.43.228.565.539.565h.12c.31,0,.528-.135.528-.565V60.343c0-.442-.217-.575-.528-.575h-.12c-.311,0-.539.145-.539.575Z" transform="translate(-201.57 -26.469)" fill="#141215"/>
    <path id="Path_498" data-name="Path 498" d="M443.023,61.76c.6,0,.944.286.944.766a.73.73,0,0,1-.17.485c-.086.1-.177.137-.187.124a1.118,1.118,0,0,0-.729-.251c-.934,0-1.3.908-1.3,2.236v2.017c0,.429-.224.565-.527.565h-.131c-.308,0-.526-.136-.526-.565V61.976a.594.594,0,0,1,.434-.133c.357,0,.728.193.741,1.007a1.454,1.454,0,0,1,1.457-1.09" transform="translate(-203.526 -28.542)" fill="#000408"/>
    <path id="Path_499" data-name="Path 499" d="M436.708,81.713v.117h-.156c-2.594.049-3.859.622-3.859,1.95,0,.98.727,1.636,1.959,1.636a2.463,2.463,0,0,0,2.066-1c.012.706.311.934.728.934.214,0,.431-.075.431-.133V81.686c0-1.457-.887-2.292-2.51-2.292s-2.461.824-2.461,1.374a.526.526,0,0,0,.364.508,1,1,0,0,0,.366.065,1.736,1.736,0,0,1,1.647-.98,1.252,1.252,0,0,1,1.424,1.352m0,1.3a1.613,1.613,0,0,1-1.772,1.554c-.679,0-1.087-.322-1.087-.836,0-.778.86-1.088,2.536-1.147l.323-.012Zm-7.924-2.507h.42v3.033c0,1.242.536,1.9,1.718,1.9.847,0,1.339-.432,1.339-.872a.575.575,0,0,0-.154-.4c-.079-.083-.161-.116-.18-.1a.973.973,0,0,1-.814.406c-.56,0-.764-.347-.764-1.064v-2.9h1.3c.368,0,.514-.155.514-.454v-.086c0-.286-.131-.428-.5-.428h-1.3v-.884c0-.443-.2-.562-.513-.562h-.122c-.321,0-.523.154-.523.562v.884h-.42c-.37,0-.515.156-.515.44v.086c0,.286.146.442.515.442M426.8,81.713v.117h-.157c-2.591.049-3.86.622-3.86,1.95,0,.98.73,1.636,1.962,1.636a2.468,2.468,0,0,0,2.066-1c.012.706.309.934.727.934.216,0,.433-.075.433-.133V81.686c0-1.457-.885-2.292-2.51-2.292S423,80.218,423,80.768a.525.525,0,0,0,.364.508,1,1,0,0,0,.365.065,1.741,1.741,0,0,1,1.648-.98,1.251,1.251,0,0,1,1.424,1.352m0,1.3a1.612,1.612,0,0,1-1.77,1.554c-.683,0-1.088-.322-1.088-.836,0-.778.859-1.088,2.533-1.147l.325-.012ZM415.649,84.6a.683.683,0,0,0,.682.682h1.8c2.654,0,4.254-1.472,4.254-3.887s-1.565-3.848-4.191-3.848h-1.889a.655.655,0,0,0-.659.694Zm2.512-.382h-1.294V78.615h1.305a2.651,2.651,0,0,1,2.974,2.8c0,1.782-1.1,2.81-2.986,2.81" transform="translate(-192.091 -35.84)" fill="#141215"/>
    <path id="Path_500" data-name="Path 500" d="M457.312,81.267v.274h.445v1.2h.323v-1.2h.442v-.274Zm2.558,0-.33,1.015-.346-1.015h-.456v1.476h.3l.005-1.035.358,1.035h.249l.365-1.046v1.046h.306V81.267Z" transform="translate(-211.345 -37.557)" fill="#141215"/>
  </g>
</svg>
