<?xml version="1.0" encoding="utf-8"?>
<!-- Generator: Adobe Illustrator 26.2.0, SVG Export Plug-In . SVG Version: 6.00 Build 0)  -->
<svg version="1.1" xmlns="http://www.w3.org/2000/svg" xmlns:xlink="http://www.w3.org/1999/xlink" x="0px" y="0px"
	 viewBox="0 0 283.5 141.7" style="enable-background:new 0 0 283.5 141.7;" xml:space="preserve">
<style type="text/css">
	.st0{fill:#171717;}
	.st1{fill:none;}
	.st2{fill:#1D1D1B;}
	.st3{font-family:'Karla-ExtraBold';}
	.st4{font-size:51.5205px;}
	.st5{fill:#FFFFFF;}
	.st6{fill:#67C6E7;}
</style>
<g id="_x33_._Logo">
	<g id="_x34_._Logo">
		<circle class="st0" cx="66.3" cy="49.7" r="19.1"/>
		<circle class="st0" cx="23.1" cy="49.7" r="19.1"/>
		<path class="st0" d="M23.1,110.4L23.1,110.4c10.5,0,19.1-8.5,19.1-19.1v0c0-10.5-8.5-19.1-19.1-19.1h0C12.5,72.2,4,80.8,4,91.3v0
			C4,101.9,12.5,110.4,23.1,110.4z"/>
		
			<rect x="4" y="91.8" transform="matrix(-1 -4.445612e-11 4.445612e-11 -1 46.114 202.205)" class="st0" width="38.2" height="18.6"/>
		<path class="st0" d="M85.4,110.9H66.3c-10.5,0-19.1-8.5-19.1-19.1v0c0-10.5,8.5-19.1,19.1-19.1h0c10.5,0,19.1,8.5,19.1,19.1V110.9
			z"/>
		<rect x="94.9" y="29.8" class="st1" width="184.6" height="82.1"/>
		<text transform="matrix(1 0 0 1 94.8547 65.3559)"><tspan x="0" y="0" class="st2 st3 st4">Bureau</tspan><tspan x="0" y="45.8" class="st2 st3 st4">Profiel</tspan></text>
	</g>
	<g id="_x34_._Icoon">
	</g>
</g>
<g id="_x33_._Icoon">
</g>
<g id="_x32_._Logo">
</g>
<g id="_x32_._Icoon">
</g>
<g id="_x31_._Logo">
</g>
<g id="_x31_._Icoon">
</g>
</svg>
