<svg xmlns="http://www.w3.org/2000/svg" width="404.168" height="86.813" viewBox="0 0 404.168 86.813">
  <g id="Group_569" data-name="Group 569" transform="translate(-756.831 -821.594)">
    <g id="Group_538" data-name="Group 538" transform="translate(1053.616 958.869) rotate(180)" opacity="0.5">
      <g id="Group_465" data-name="Group 465" transform="translate(259.041 137.276) rotate(-90)">
        <path id="Path_23" data-name="Path 23" d="M5.046,0A4.888,4.888,0,0,0,0,4.713V5.4a4.888,4.888,0,0,0,5.046,4.713A4.888,4.888,0,0,0,10.093,5.4V4.713A4.888,4.888,0,0,0,5.046,0Zm0,27.625A4.888,4.888,0,0,0,0,32.338v.691a4.888,4.888,0,0,0,5.046,4.713,4.888,4.888,0,0,0,5.046-4.713v-.691A4.888,4.888,0,0,0,5.046,27.625Z" transform="translate(26.258 0)" fill="#6ec5ed"/>
        <path id="Path_25" data-name="Path 25" d="M5.046,0A4.888,4.888,0,0,0,0,4.713V5.4a4.888,4.888,0,0,0,5.046,4.713A4.888,4.888,0,0,0,10.093,5.4V4.713A4.888,4.888,0,0,0,5.046,0Zm0,27.625A4.888,4.888,0,0,0,0,32.338v.691a4.888,4.888,0,0,0,5.046,4.713,4.888,4.888,0,0,0,5.046-4.713v-.691A4.888,4.888,0,0,0,5.046,27.625Z" transform="translate(0 0)" fill="#6ec5ed"/>
      </g>
      <g id="Group_466" data-name="Group 466" transform="translate(259.042 86.813) rotate(-90)">
        <path id="Path_23-2" data-name="Path 23" d="M5.046,0A4.888,4.888,0,0,0,0,4.713V5.4a4.888,4.888,0,0,0,5.046,4.713A4.888,4.888,0,0,0,10.093,5.4V4.713A4.888,4.888,0,0,0,5.046,0Zm0,27.625A4.888,4.888,0,0,0,0,32.338v.691a4.888,4.888,0,0,0,5.046,4.713,4.888,4.888,0,0,0,5.046-4.713v-.691A4.888,4.888,0,0,0,5.046,27.625Z" transform="translate(26.258 0)" fill="#6ec5ed"/>
        <path id="Path_25-2" data-name="Path 25" d="M5.046,0A4.888,4.888,0,0,0,0,4.713V5.4a4.888,4.888,0,0,0,5.046,4.713A4.888,4.888,0,0,0,10.093,5.4V4.713A4.888,4.888,0,0,0,5.046,0Zm0,27.625A4.888,4.888,0,0,0,0,32.338v.691a4.888,4.888,0,0,0,5.046,4.713,4.888,4.888,0,0,0,5.046-4.713v-.691A4.888,4.888,0,0,0,5.046,27.625Z" transform="translate(0 0)" fill="#6ec5ed"/>
      </g>
      <g id="Group_468" data-name="Group 468" transform="translate(207.234 137.276) rotate(-90)">
        <path id="Path_23-3" data-name="Path 23" d="M5.046,0A4.888,4.888,0,0,0,0,4.713V5.4a4.888,4.888,0,0,0,5.046,4.713A4.888,4.888,0,0,0,10.093,5.4V4.713A4.888,4.888,0,0,0,5.046,0Zm0,27.625A4.888,4.888,0,0,0,0,32.338v.691a4.888,4.888,0,0,0,5.046,4.713,4.888,4.888,0,0,0,5.046-4.713v-.691A4.888,4.888,0,0,0,5.046,27.625Z" transform="translate(26.258 0)" fill="#6ec5ed"/>
        <path id="Path_25-3" data-name="Path 25" d="M5.046,0A4.888,4.888,0,0,0,0,4.713V5.4a4.888,4.888,0,0,0,5.046,4.713A4.888,4.888,0,0,0,10.093,5.4V4.713A4.888,4.888,0,0,0,5.046,0Zm0,27.625A4.888,4.888,0,0,0,0,32.338v.691a4.888,4.888,0,0,0,5.046,4.713,4.888,4.888,0,0,0,5.046-4.713v-.691A4.888,4.888,0,0,0,5.046,27.625Z" transform="translate(0 0)" fill="#6ec5ed"/>
      </g>
      <g id="Group_469" data-name="Group 469" transform="translate(207.234 86.813) rotate(-90)">
        <path id="Path_23-4" data-name="Path 23" d="M5.046,0A4.888,4.888,0,0,0,0,4.713V5.4a4.888,4.888,0,0,0,5.046,4.713A4.888,4.888,0,0,0,10.093,5.4V4.713A4.888,4.888,0,0,0,5.046,0Zm0,27.625A4.888,4.888,0,0,0,0,32.338v.691a4.888,4.888,0,0,0,5.046,4.713,4.888,4.888,0,0,0,5.046-4.713v-.691A4.888,4.888,0,0,0,5.046,27.625Z" transform="translate(26.258 0)" fill="#6ec5ed"/>
        <path id="Path_25-4" data-name="Path 25" d="M5.046,0A4.888,4.888,0,0,0,0,4.713V5.4a4.888,4.888,0,0,0,5.046,4.713A4.888,4.888,0,0,0,10.093,5.4V4.713A4.888,4.888,0,0,0,5.046,0Zm0,27.625A4.888,4.888,0,0,0,0,32.338v.691a4.888,4.888,0,0,0,5.046,4.713,4.888,4.888,0,0,0,5.046-4.713v-.691A4.888,4.888,0,0,0,5.046,27.625Z" transform="translate(0 0)" fill="#6ec5ed"/>
      </g>
      <g id="Group_471" data-name="Group 471" transform="translate(155.425 137.276) rotate(-90)">
        <path id="Path_23-5" data-name="Path 23" d="M5.046,0A4.888,4.888,0,0,0,0,4.713V5.4a4.888,4.888,0,0,0,5.046,4.713A4.888,4.888,0,0,0,10.093,5.4V4.713A4.888,4.888,0,0,0,5.046,0Zm0,27.625A4.888,4.888,0,0,0,0,32.338v.691a4.888,4.888,0,0,0,5.046,4.713,4.888,4.888,0,0,0,5.046-4.713v-.691A4.888,4.888,0,0,0,5.046,27.625Z" transform="translate(26.258 0)" fill="#6ec5ed"/>
        <path id="Path_25-5" data-name="Path 25" d="M5.046,0A4.888,4.888,0,0,0,0,4.713V5.4a4.888,4.888,0,0,0,5.046,4.713A4.888,4.888,0,0,0,10.093,5.4V4.713A4.888,4.888,0,0,0,5.046,0Zm0,27.625A4.888,4.888,0,0,0,0,32.338v.691a4.888,4.888,0,0,0,5.046,4.713,4.888,4.888,0,0,0,5.046-4.713v-.691A4.888,4.888,0,0,0,5.046,27.625Z" transform="translate(0 0)" fill="#6ec5ed"/>
      </g>
      <g id="Group_472" data-name="Group 472" transform="translate(155.425 86.813) rotate(-90)">
        <path id="Path_23-6" data-name="Path 23" d="M5.046,0A4.888,4.888,0,0,0,0,4.713V5.4a4.888,4.888,0,0,0,5.046,4.713A4.888,4.888,0,0,0,10.093,5.4V4.713A4.888,4.888,0,0,0,5.046,0Zm0,27.625A4.888,4.888,0,0,0,0,32.338v.691a4.888,4.888,0,0,0,5.046,4.713,4.888,4.888,0,0,0,5.046-4.713v-.691A4.888,4.888,0,0,0,5.046,27.625Z" transform="translate(26.258 0)" fill="#6ec5ed"/>
        <path id="Path_25-6" data-name="Path 25" d="M5.046,0A4.888,4.888,0,0,0,0,4.713V5.4a4.888,4.888,0,0,0,5.046,4.713A4.888,4.888,0,0,0,10.093,5.4V4.713A4.888,4.888,0,0,0,5.046,0Zm0,27.625A4.888,4.888,0,0,0,0,32.338v.691a4.888,4.888,0,0,0,5.046,4.713,4.888,4.888,0,0,0,5.046-4.713v-.691A4.888,4.888,0,0,0,5.046,27.625Z" transform="translate(0 0)" fill="#6ec5ed"/>
      </g>
      <g id="Group_474" data-name="Group 474" transform="translate(103.617 137.276) rotate(-90)">
        <path id="Path_23-7" data-name="Path 23" d="M5.046,0A4.888,4.888,0,0,0,0,4.713V5.4a4.888,4.888,0,0,0,5.046,4.713A4.888,4.888,0,0,0,10.093,5.4V4.713A4.888,4.888,0,0,0,5.046,0Zm0,27.625A4.888,4.888,0,0,0,0,32.338v.691a4.888,4.888,0,0,0,5.046,4.713,4.888,4.888,0,0,0,5.046-4.713v-.691A4.888,4.888,0,0,0,5.046,27.625Z" transform="translate(26.258 0)" fill="#6ec5ed"/>
        <path id="Path_25-7" data-name="Path 25" d="M5.046,0A4.888,4.888,0,0,0,0,4.713V5.4a4.888,4.888,0,0,0,5.046,4.713A4.888,4.888,0,0,0,10.093,5.4V4.713A4.888,4.888,0,0,0,5.046,0Zm0,27.625A4.888,4.888,0,0,0,0,32.338v.691a4.888,4.888,0,0,0,5.046,4.713,4.888,4.888,0,0,0,5.046-4.713v-.691A4.888,4.888,0,0,0,5.046,27.625Z" transform="translate(0 0)" fill="#6ec5ed"/>
      </g>
      <g id="Group_475" data-name="Group 475" transform="translate(103.617 86.813) rotate(-90)">
        <path id="Path_23-8" data-name="Path 23" d="M5.046,0A4.888,4.888,0,0,0,0,4.713V5.4a4.888,4.888,0,0,0,5.046,4.713A4.888,4.888,0,0,0,10.093,5.4V4.713A4.888,4.888,0,0,0,5.046,0Zm0,27.625A4.888,4.888,0,0,0,0,32.338v.691a4.888,4.888,0,0,0,5.046,4.713,4.888,4.888,0,0,0,5.046-4.713v-.691A4.888,4.888,0,0,0,5.046,27.625Z" transform="translate(26.258 0)" fill="#6ec5ed"/>
        <path id="Path_25-8" data-name="Path 25" d="M5.046,0A4.888,4.888,0,0,0,0,4.713V5.4a4.888,4.888,0,0,0,5.046,4.713A4.888,4.888,0,0,0,10.093,5.4V4.713A4.888,4.888,0,0,0,5.046,0Zm0,27.625A4.888,4.888,0,0,0,0,32.338v.691a4.888,4.888,0,0,0,5.046,4.713,4.888,4.888,0,0,0,5.046-4.713v-.691A4.888,4.888,0,0,0,5.046,27.625Z" transform="translate(0 0)" fill="#6ec5ed"/>
      </g>
    </g>
    <g id="Group_539" data-name="Group 539" transform="translate(1264.616 958.869) rotate(180)" opacity="0.5">
      <g id="Group_465-2" data-name="Group 465" transform="translate(259.041 137.276) rotate(-90)">
        <path id="Path_23-9" data-name="Path 23" d="M5.046,0A4.888,4.888,0,0,0,0,4.713V5.4a4.888,4.888,0,0,0,5.046,4.713A4.888,4.888,0,0,0,10.093,5.4V4.713A4.888,4.888,0,0,0,5.046,0Zm0,27.625A4.888,4.888,0,0,0,0,32.338v.691a4.888,4.888,0,0,0,5.046,4.713,4.888,4.888,0,0,0,5.046-4.713v-.691A4.888,4.888,0,0,0,5.046,27.625Z" transform="translate(26.258 0)" fill="#6ec5ed"/>
        <path id="Path_25-9" data-name="Path 25" d="M5.046,0A4.888,4.888,0,0,0,0,4.713V5.4a4.888,4.888,0,0,0,5.046,4.713A4.888,4.888,0,0,0,10.093,5.4V4.713A4.888,4.888,0,0,0,5.046,0Zm0,27.625A4.888,4.888,0,0,0,0,32.338v.691a4.888,4.888,0,0,0,5.046,4.713,4.888,4.888,0,0,0,5.046-4.713v-.691A4.888,4.888,0,0,0,5.046,27.625Z" transform="translate(0 0)" fill="#6ec5ed"/>
      </g>
      <g id="Group_466-2" data-name="Group 466" transform="translate(259.042 86.813) rotate(-90)">
        <path id="Path_23-10" data-name="Path 23" d="M5.046,0A4.888,4.888,0,0,0,0,4.713V5.4a4.888,4.888,0,0,0,5.046,4.713A4.888,4.888,0,0,0,10.093,5.4V4.713A4.888,4.888,0,0,0,5.046,0Zm0,27.625A4.888,4.888,0,0,0,0,32.338v.691a4.888,4.888,0,0,0,5.046,4.713,4.888,4.888,0,0,0,5.046-4.713v-.691A4.888,4.888,0,0,0,5.046,27.625Z" transform="translate(26.258 0)" fill="#6ec5ed"/>
        <path id="Path_25-10" data-name="Path 25" d="M5.046,0A4.888,4.888,0,0,0,0,4.713V5.4a4.888,4.888,0,0,0,5.046,4.713A4.888,4.888,0,0,0,10.093,5.4V4.713A4.888,4.888,0,0,0,5.046,0Zm0,27.625A4.888,4.888,0,0,0,0,32.338v.691a4.888,4.888,0,0,0,5.046,4.713,4.888,4.888,0,0,0,5.046-4.713v-.691A4.888,4.888,0,0,0,5.046,27.625Z" transform="translate(0 0)" fill="#6ec5ed"/>
      </g>
      <g id="Group_468-2" data-name="Group 468" transform="translate(207.234 137.276) rotate(-90)">
        <path id="Path_23-11" data-name="Path 23" d="M5.046,0A4.888,4.888,0,0,0,0,4.713V5.4a4.888,4.888,0,0,0,5.046,4.713A4.888,4.888,0,0,0,10.093,5.4V4.713A4.888,4.888,0,0,0,5.046,0Zm0,27.625A4.888,4.888,0,0,0,0,32.338v.691a4.888,4.888,0,0,0,5.046,4.713,4.888,4.888,0,0,0,5.046-4.713v-.691A4.888,4.888,0,0,0,5.046,27.625Z" transform="translate(26.258 0)" fill="#6ec5ed"/>
        <path id="Path_25-11" data-name="Path 25" d="M5.046,0A4.888,4.888,0,0,0,0,4.713V5.4a4.888,4.888,0,0,0,5.046,4.713A4.888,4.888,0,0,0,10.093,5.4V4.713A4.888,4.888,0,0,0,5.046,0Zm0,27.625A4.888,4.888,0,0,0,0,32.338v.691a4.888,4.888,0,0,0,5.046,4.713,4.888,4.888,0,0,0,5.046-4.713v-.691A4.888,4.888,0,0,0,5.046,27.625Z" transform="translate(0 0)" fill="#6ec5ed"/>
      </g>
      <g id="Group_469-2" data-name="Group 469" transform="translate(207.234 86.813) rotate(-90)">
        <path id="Path_23-12" data-name="Path 23" d="M5.046,0A4.888,4.888,0,0,0,0,4.713V5.4a4.888,4.888,0,0,0,5.046,4.713A4.888,4.888,0,0,0,10.093,5.4V4.713A4.888,4.888,0,0,0,5.046,0Zm0,27.625A4.888,4.888,0,0,0,0,32.338v.691a4.888,4.888,0,0,0,5.046,4.713,4.888,4.888,0,0,0,5.046-4.713v-.691A4.888,4.888,0,0,0,5.046,27.625Z" transform="translate(26.258 0)" fill="#6ec5ed"/>
        <path id="Path_25-12" data-name="Path 25" d="M5.046,0A4.888,4.888,0,0,0,0,4.713V5.4a4.888,4.888,0,0,0,5.046,4.713A4.888,4.888,0,0,0,10.093,5.4V4.713A4.888,4.888,0,0,0,5.046,0Zm0,27.625A4.888,4.888,0,0,0,0,32.338v.691a4.888,4.888,0,0,0,5.046,4.713,4.888,4.888,0,0,0,5.046-4.713v-.691A4.888,4.888,0,0,0,5.046,27.625Z" transform="translate(0 0)" fill="#6ec5ed"/>
      </g>
      <g id="Group_471-2" data-name="Group 471" transform="translate(155.425 137.276) rotate(-90)">
        <path id="Path_23-13" data-name="Path 23" d="M5.046,0A4.888,4.888,0,0,0,0,4.713V5.4a4.888,4.888,0,0,0,5.046,4.713A4.888,4.888,0,0,0,10.093,5.4V4.713A4.888,4.888,0,0,0,5.046,0Zm0,27.625A4.888,4.888,0,0,0,0,32.338v.691a4.888,4.888,0,0,0,5.046,4.713,4.888,4.888,0,0,0,5.046-4.713v-.691A4.888,4.888,0,0,0,5.046,27.625Z" transform="translate(26.258 0)" fill="#6ec5ed"/>
        <path id="Path_25-13" data-name="Path 25" d="M5.046,0A4.888,4.888,0,0,0,0,4.713V5.4a4.888,4.888,0,0,0,5.046,4.713A4.888,4.888,0,0,0,10.093,5.4V4.713A4.888,4.888,0,0,0,5.046,0Zm0,27.625A4.888,4.888,0,0,0,0,32.338v.691a4.888,4.888,0,0,0,5.046,4.713,4.888,4.888,0,0,0,5.046-4.713v-.691A4.888,4.888,0,0,0,5.046,27.625Z" transform="translate(0 0)" fill="#6ec5ed"/>
      </g>
      <g id="Group_472-2" data-name="Group 472" transform="translate(155.425 86.813) rotate(-90)">
        <path id="Path_23-14" data-name="Path 23" d="M5.046,0A4.888,4.888,0,0,0,0,4.713V5.4a4.888,4.888,0,0,0,5.046,4.713A4.888,4.888,0,0,0,10.093,5.4V4.713A4.888,4.888,0,0,0,5.046,0Zm0,27.625A4.888,4.888,0,0,0,0,32.338v.691a4.888,4.888,0,0,0,5.046,4.713,4.888,4.888,0,0,0,5.046-4.713v-.691A4.888,4.888,0,0,0,5.046,27.625Z" transform="translate(26.258 0)" fill="#6ec5ed"/>
        <path id="Path_25-14" data-name="Path 25" d="M5.046,0A4.888,4.888,0,0,0,0,4.713V5.4a4.888,4.888,0,0,0,5.046,4.713A4.888,4.888,0,0,0,10.093,5.4V4.713A4.888,4.888,0,0,0,5.046,0Zm0,27.625A4.888,4.888,0,0,0,0,32.338v.691a4.888,4.888,0,0,0,5.046,4.713,4.888,4.888,0,0,0,5.046-4.713v-.691A4.888,4.888,0,0,0,5.046,27.625Z" transform="translate(0 0)" fill="#6ec5ed"/>
      </g>
      <g id="Group_474-2" data-name="Group 474" transform="translate(103.617 137.276) rotate(-90)">
        <path id="Path_23-15" data-name="Path 23" d="M5.046,0A4.888,4.888,0,0,0,0,4.713V5.4a4.888,4.888,0,0,0,5.046,4.713A4.888,4.888,0,0,0,10.093,5.4V4.713A4.888,4.888,0,0,0,5.046,0Zm0,27.625A4.888,4.888,0,0,0,0,32.338v.691a4.888,4.888,0,0,0,5.046,4.713,4.888,4.888,0,0,0,5.046-4.713v-.691A4.888,4.888,0,0,0,5.046,27.625Z" transform="translate(26.258 0)" fill="#6ec5ed"/>
        <path id="Path_25-15" data-name="Path 25" d="M5.046,0A4.888,4.888,0,0,0,0,4.713V5.4a4.888,4.888,0,0,0,5.046,4.713A4.888,4.888,0,0,0,10.093,5.4V4.713A4.888,4.888,0,0,0,5.046,0Zm0,27.625A4.888,4.888,0,0,0,0,32.338v.691a4.888,4.888,0,0,0,5.046,4.713,4.888,4.888,0,0,0,5.046-4.713v-.691A4.888,4.888,0,0,0,5.046,27.625Z" transform="translate(0 0)" fill="#6ec5ed"/>
      </g>
      <g id="Group_475-2" data-name="Group 475" transform="translate(103.617 86.813) rotate(-90)">
        <path id="Path_23-16" data-name="Path 23" d="M5.046,0A4.888,4.888,0,0,0,0,4.713V5.4a4.888,4.888,0,0,0,5.046,4.713A4.888,4.888,0,0,0,10.093,5.4V4.713A4.888,4.888,0,0,0,5.046,0Zm0,27.625A4.888,4.888,0,0,0,0,32.338v.691a4.888,4.888,0,0,0,5.046,4.713,4.888,4.888,0,0,0,5.046-4.713v-.691A4.888,4.888,0,0,0,5.046,27.625Z" transform="translate(26.258 0)" fill="#6ec5ed"/>
        <path id="Path_25-16" data-name="Path 25" d="M5.046,0A4.888,4.888,0,0,0,0,4.713V5.4a4.888,4.888,0,0,0,5.046,4.713A4.888,4.888,0,0,0,10.093,5.4V4.713A4.888,4.888,0,0,0,5.046,0Zm0,27.625A4.888,4.888,0,0,0,0,32.338v.691a4.888,4.888,0,0,0,5.046,4.713,4.888,4.888,0,0,0,5.046-4.713v-.691A4.888,4.888,0,0,0,5.046,27.625Z" transform="translate(0 0)" fill="#6ec5ed"/>
      </g>
    </g>
  </g>
</svg>
