<svg xmlns="http://www.w3.org/2000/svg" width="612.157" height="584.675" viewBox="0 0 612.157 584.675">
  <g id="Puntjes" transform="translate(-250.341 -126.621) rotate(-20)" opacity="0.04">
    <g id="Eenling_puntjes" data-name="Eenling puntjes" transform="translate(186.708 115.531)">
      <path id="Path_25" data-name="Path 25" d="M13.359,8.433a7.962,7.962,0,0,0-10.349,4.4l-.385,1.058a7.962,7.962,0,0,0,5.1,10.025,7.962,7.962,0,0,0,10.349-4.4l.385-1.058A7.962,7.962,0,0,0,13.359,8.433Z" transform="translate(407.912 278.312) rotate(90)" fill="#181818"/>
      <path id="Path_25-2" data-name="Path 25" d="M13.359,8.433a7.962,7.962,0,0,0-10.349,4.4l-.385,1.058a7.962,7.962,0,0,0,5.1,10.025,7.962,7.962,0,0,0,10.349-4.4l.385-1.058A7.962,7.962,0,0,0,13.359,8.433Z" transform="translate(401.597 544.186) rotate(90)" fill="#181818"/>
      <path id="Path_25-3" data-name="Path 25" d="M13.359,8.433a7.962,7.962,0,0,0-10.349,4.4l-.385,1.058a7.962,7.962,0,0,0,5.1,10.025,7.962,7.962,0,0,0,10.349-4.4l.385-1.058A7.962,7.962,0,0,0,13.359,8.433Z" transform="translate(385.668 222.477) rotate(90)" fill="#181818"/>
      <path id="Path_25-4" data-name="Path 25" d="M13.359,8.433a7.962,7.962,0,0,0-10.349,4.4l-.385,1.058a7.962,7.962,0,0,0,5.1,10.025,7.962,7.962,0,0,0,10.349-4.4l.385-1.058A7.962,7.962,0,0,0,13.359,8.433Z" transform="translate(370.325 264.631) rotate(90)" fill="#181818"/>
      <path id="Path_25-5" data-name="Path 25" d="M13.359,8.433a7.962,7.962,0,0,0-10.349,4.4l-.385,1.058a7.962,7.962,0,0,0,5.1,10.025,7.962,7.962,0,0,0,10.349-4.4l.385-1.058A7.962,7.962,0,0,0,13.359,8.433Z" transform="translate(348.08 208.796) rotate(90)" fill="#181818"/>
      <path id="Path_25-6" data-name="Path 25" d="M13.359,8.433a7.962,7.962,0,0,0-10.349,4.4l-.385,1.058a7.962,7.962,0,0,0,5.1,10.025,7.962,7.962,0,0,0,10.349-4.4l.385-1.058A7.962,7.962,0,0,0,13.359,8.433Z" transform="translate(385.668 222.477) rotate(90)" fill="#181818"/>
      <path id="Path_25-7" data-name="Path 25" d="M13.359,8.433a7.962,7.962,0,0,0-10.349,4.4l-.385,1.058a7.962,7.962,0,0,0,5.1,10.025,7.962,7.962,0,0,0,10.349-4.4l.385-1.058A7.962,7.962,0,0,0,13.359,8.433Z" transform="translate(437.987 692.731) rotate(90)" fill="#181818"/>
      <path id="Path_25-8" data-name="Path 25" d="M13.359,8.433a7.962,7.962,0,0,0-10.349,4.4l-.385,1.058a7.962,7.962,0,0,0,5.1,10.025,7.962,7.962,0,0,0,10.349-4.4l.385-1.058A7.962,7.962,0,0,0,13.359,8.433Z" transform="translate(423.28 733.138) rotate(90)" fill="#181818"/>
      <path id="Path_25-9" data-name="Path 25" d="M13.359,8.433a7.962,7.962,0,0,0-10.349,4.4l-.385,1.058a7.962,7.962,0,0,0,5.1,10.025,7.962,7.962,0,0,0,10.349-4.4l.385-1.058A7.962,7.962,0,0,0,13.359,8.433Z" transform="translate(171.11 192.123) rotate(90)" fill="#181818"/>
      <path id="Path_25-10" data-name="Path 25" d="M13.359,8.433a7.962,7.962,0,0,0-10.349,4.4l-.385,1.058a7.962,7.962,0,0,0,5.1,10.025,7.962,7.962,0,0,0,10.349-4.4l.385-1.058A7.962,7.962,0,0,0,13.359,8.433Z" transform="translate(211.517 206.83) rotate(90)" fill="#181818"/>
    </g>
    <g id="Puntjes-2" data-name="Puntjes" transform="translate(78.934 392.254)">
      <g id="Group_465" data-name="Group 465" transform="translate(154.481 165.322) rotate(90)">
        <path id="Path_23" data-name="Path 23" d="M28.747,8.433a7.962,7.962,0,0,0-10.349,4.4l-.385,1.058a7.962,7.962,0,0,0,5.1,10.025,7.962,7.962,0,0,0,10.349-4.4l.385-1.058A7.962,7.962,0,0,0,28.747,8.433ZM13.359,50.711a7.962,7.962,0,0,0-10.349,4.4l-.385,1.058A7.962,7.962,0,0,0,7.723,66.2a7.962,7.962,0,0,0,10.349-4.4l.385-1.058A7.962,7.962,0,0,0,13.359,50.711Z" transform="translate(40.186 29.253)" fill="#181818"/>
        <path id="Path_25-11" data-name="Path 25" d="M28.747,8.433a7.962,7.962,0,0,0-10.349,4.4l-.385,1.058a7.962,7.962,0,0,0,5.1,10.025,7.962,7.962,0,0,0,10.349-4.4l.385-1.058A7.962,7.962,0,0,0,28.747,8.433ZM13.359,50.711a7.962,7.962,0,0,0-10.349,4.4l-.385,1.058A7.962,7.962,0,0,0,7.723,66.2a7.962,7.962,0,0,0,10.349-4.4l.385-1.058A7.962,7.962,0,0,0,13.359,50.711Z" transform="translate(0 14.627)" fill="#181818"/>
      </g>
      <g id="Group_466" data-name="Group 466" transform="translate(126.371 242.552) rotate(90)">
        <path id="Path_23-2" data-name="Path 23" d="M28.747,8.433a7.962,7.962,0,0,0-10.349,4.4l-.385,1.058a7.962,7.962,0,0,0,5.1,10.025,7.962,7.962,0,0,0,10.349-4.4l.385-1.058A7.962,7.962,0,0,0,28.747,8.433ZM13.359,50.711a7.962,7.962,0,0,0-10.349,4.4l-.385,1.058A7.962,7.962,0,0,0,7.723,66.2a7.962,7.962,0,0,0,10.349-4.4l.385-1.058A7.962,7.962,0,0,0,13.359,50.711Z" transform="translate(40.186 29.253)" fill="#181818"/>
        <path id="Path_25-12" data-name="Path 25" d="M28.747,8.433a7.962,7.962,0,0,0-10.349,4.4l-.385,1.058a7.962,7.962,0,0,0,5.1,10.025,7.962,7.962,0,0,0,10.349-4.4l.385-1.058A7.962,7.962,0,0,0,28.747,8.433ZM13.359,50.711a7.962,7.962,0,0,0-10.349,4.4l-.385,1.058A7.962,7.962,0,0,0,7.723,66.2a7.962,7.962,0,0,0,10.349-4.4l.385-1.058A7.962,7.962,0,0,0,13.359,50.711Z" transform="translate(0 14.627)" fill="#181818"/>
      </g>
      <g id="Group_467" data-name="Group 467" transform="translate(98.261 319.784) rotate(90)">
        <path id="Path_23-3" data-name="Path 23" d="M28.747,8.433a7.962,7.962,0,0,0-10.349,4.4l-.385,1.058a7.962,7.962,0,0,0,5.1,10.025,7.962,7.962,0,0,0,10.349-4.4l.385-1.058A7.962,7.962,0,0,0,28.747,8.433ZM13.359,50.711a7.962,7.962,0,0,0-10.349,4.4l-.385,1.058A7.962,7.962,0,0,0,7.723,66.2a7.962,7.962,0,0,0,10.349-4.4l.385-1.058A7.962,7.962,0,0,0,13.359,50.711Z" transform="translate(40.186 29.253)" fill="#181818"/>
        <path id="Path_25-13" data-name="Path 25" d="M28.747,8.433a7.962,7.962,0,0,0-10.349,4.4l-.385,1.058a7.962,7.962,0,0,0,5.1,10.025,7.962,7.962,0,0,0,10.349-4.4l.385-1.058A7.962,7.962,0,0,0,28.747,8.433ZM13.359,50.711a7.962,7.962,0,0,0-10.349,4.4l-.385,1.058A7.962,7.962,0,0,0,7.723,66.2a7.962,7.962,0,0,0,10.349-4.4l.385-1.058A7.962,7.962,0,0,0,13.359,50.711Z" transform="translate(0 14.627)" fill="#181818"/>
      </g>
      <g id="Group_468" data-name="Group 468" transform="translate(233.771 194.181) rotate(90)">
        <path id="Path_23-4" data-name="Path 23" d="M28.747,8.433a7.962,7.962,0,0,0-10.349,4.4l-.385,1.058a7.962,7.962,0,0,0,5.1,10.025,7.962,7.962,0,0,0,10.349-4.4l.385-1.058A7.962,7.962,0,0,0,28.747,8.433ZM13.359,50.711a7.962,7.962,0,0,0-10.349,4.4l-.385,1.058A7.962,7.962,0,0,0,7.723,66.2a7.962,7.962,0,0,0,10.349-4.4l.385-1.058A7.962,7.962,0,0,0,13.359,50.711Z" transform="translate(40.186 29.253)" fill="#181818"/>
        <path id="Path_25-14" data-name="Path 25" d="M28.747,8.433a7.962,7.962,0,0,0-10.349,4.4l-.385,1.058a7.962,7.962,0,0,0,5.1,10.025,7.962,7.962,0,0,0,10.349-4.4l.385-1.058A7.962,7.962,0,0,0,28.747,8.433ZM13.359,50.711a7.962,7.962,0,0,0-10.349,4.4l-.385,1.058A7.962,7.962,0,0,0,7.723,66.2a7.962,7.962,0,0,0,10.349-4.4l.385-1.058A7.962,7.962,0,0,0,13.359,50.711Z" transform="translate(0 14.627)" fill="#181818"/>
      </g>
      <g id="Group_469" data-name="Group 469" transform="translate(205.661 271.411) rotate(90)">
        <path id="Path_23-5" data-name="Path 23" d="M28.747,8.433a7.962,7.962,0,0,0-10.349,4.4l-.385,1.058a7.962,7.962,0,0,0,5.1,10.025,7.962,7.962,0,0,0,10.349-4.4l.385-1.058A7.962,7.962,0,0,0,28.747,8.433ZM13.359,50.711a7.962,7.962,0,0,0-10.349,4.4l-.385,1.058A7.962,7.962,0,0,0,7.723,66.2a7.962,7.962,0,0,0,10.349-4.4l.385-1.058A7.962,7.962,0,0,0,13.359,50.711Z" transform="translate(40.186 29.253)" fill="#181818"/>
        <path id="Path_25-15" data-name="Path 25" d="M28.747,8.433a7.962,7.962,0,0,0-10.349,4.4l-.385,1.058a7.962,7.962,0,0,0,5.1,10.025,7.962,7.962,0,0,0,10.349-4.4l.385-1.058A7.962,7.962,0,0,0,28.747,8.433ZM13.359,50.711a7.962,7.962,0,0,0-10.349,4.4l-.385,1.058A7.962,7.962,0,0,0,7.723,66.2a7.962,7.962,0,0,0,10.349-4.4l.385-1.058A7.962,7.962,0,0,0,13.359,50.711Z" transform="translate(0 14.627)" fill="#181818"/>
      </g>
      <g id="Group_470" data-name="Group 470" transform="translate(177.552 348.643) rotate(90)">
        <path id="Path_23-6" data-name="Path 23" d="M28.747,8.433a7.962,7.962,0,0,0-10.349,4.4l-.385,1.058a7.962,7.962,0,0,0,5.1,10.025,7.962,7.962,0,0,0,10.349-4.4l.385-1.058A7.962,7.962,0,0,0,28.747,8.433ZM13.359,50.711a7.962,7.962,0,0,0-10.349,4.4l-.385,1.058A7.962,7.962,0,0,0,7.723,66.2a7.962,7.962,0,0,0,10.349-4.4l.385-1.058A7.962,7.962,0,0,0,13.359,50.711Z" transform="translate(40.186 29.253)" fill="#181818"/>
        <path id="Path_25-16" data-name="Path 25" d="M28.747,8.433a7.962,7.962,0,0,0-10.349,4.4l-.385,1.058a7.962,7.962,0,0,0,5.1,10.025,7.962,7.962,0,0,0,10.349-4.4l.385-1.058A7.962,7.962,0,0,0,28.747,8.433ZM13.359,50.711a7.962,7.962,0,0,0-10.349,4.4l-.385,1.058A7.962,7.962,0,0,0,7.723,66.2a7.962,7.962,0,0,0,10.349-4.4l.385-1.058A7.962,7.962,0,0,0,13.359,50.711Z" transform="translate(0 14.627)" fill="#181818"/>
      </g>
      <g id="Group_471" data-name="Group 471" transform="translate(313.062 223.04) rotate(90)">
        <path id="Path_23-7" data-name="Path 23" d="M28.747,8.433a7.962,7.962,0,0,0-10.349,4.4l-.385,1.058a7.962,7.962,0,0,0,5.1,10.025,7.962,7.962,0,0,0,10.349-4.4l.385-1.058A7.962,7.962,0,0,0,28.747,8.433ZM13.359,50.711a7.962,7.962,0,0,0-10.349,4.4l-.385,1.058A7.962,7.962,0,0,0,7.723,66.2a7.962,7.962,0,0,0,10.349-4.4l.385-1.058A7.962,7.962,0,0,0,13.359,50.711Z" transform="translate(40.186 29.253)" fill="#181818"/>
        <path id="Path_25-17" data-name="Path 25" d="M28.747,8.433a7.962,7.962,0,0,0-10.349,4.4l-.385,1.058a7.962,7.962,0,0,0,5.1,10.025,7.962,7.962,0,0,0,10.349-4.4l.385-1.058A7.962,7.962,0,0,0,28.747,8.433ZM13.359,50.711a7.962,7.962,0,0,0-10.349,4.4l-.385,1.058A7.962,7.962,0,0,0,7.723,66.2a7.962,7.962,0,0,0,10.349-4.4l.385-1.058A7.962,7.962,0,0,0,13.359,50.711Z" transform="translate(0 14.627)" fill="#181818"/>
      </g>
      <g id="Group_472" data-name="Group 472" transform="translate(284.952 300.271) rotate(90)">
        <path id="Path_23-8" data-name="Path 23" d="M28.747,8.433a7.962,7.962,0,0,0-10.349,4.4l-.385,1.058a7.962,7.962,0,0,0,5.1,10.025,7.962,7.962,0,0,0,10.349-4.4l.385-1.058A7.962,7.962,0,0,0,28.747,8.433ZM13.359,50.711a7.962,7.962,0,0,0-10.349,4.4l-.385,1.058A7.962,7.962,0,0,0,7.723,66.2a7.962,7.962,0,0,0,10.349-4.4l.385-1.058A7.962,7.962,0,0,0,13.359,50.711Z" transform="translate(40.186 29.253)" fill="#181818"/>
        <path id="Path_25-18" data-name="Path 25" d="M28.747,8.433a7.962,7.962,0,0,0-10.349,4.4l-.385,1.058a7.962,7.962,0,0,0,5.1,10.025,7.962,7.962,0,0,0,10.349-4.4l.385-1.058A7.962,7.962,0,0,0,28.747,8.433ZM13.359,50.711a7.962,7.962,0,0,0-10.349,4.4l-.385,1.058A7.962,7.962,0,0,0,7.723,66.2a7.962,7.962,0,0,0,10.349-4.4l.385-1.058A7.962,7.962,0,0,0,13.359,50.711Z" transform="translate(0 14.627)" fill="#181818"/>
      </g>
      <g id="Group_473" data-name="Group 473" transform="translate(256.842 377.502) rotate(90)">
        <path id="Path_23-9" data-name="Path 23" d="M28.747,8.433a7.962,7.962,0,0,0-10.349,4.4l-.385,1.058a7.962,7.962,0,0,0,5.1,10.025,7.962,7.962,0,0,0,10.349-4.4l.385-1.058A7.962,7.962,0,0,0,28.747,8.433ZM13.359,50.711a7.962,7.962,0,0,0-10.349,4.4l-.385,1.058A7.962,7.962,0,0,0,7.723,66.2a7.962,7.962,0,0,0,10.349-4.4l.385-1.058A7.962,7.962,0,0,0,13.359,50.711Z" transform="translate(40.186 29.253)" fill="#181818"/>
        <path id="Path_25-19" data-name="Path 25" d="M28.747,8.433a7.962,7.962,0,0,0-10.349,4.4l-.385,1.058a7.962,7.962,0,0,0,5.1,10.025,7.962,7.962,0,0,0,10.349-4.4l.385-1.058A7.962,7.962,0,0,0,28.747,8.433ZM13.359,50.711a7.962,7.962,0,0,0-10.349,4.4l-.385,1.058A7.962,7.962,0,0,0,7.723,66.2a7.962,7.962,0,0,0,10.349-4.4l.385-1.058A7.962,7.962,0,0,0,13.359,50.711Z" transform="translate(0 14.627)" fill="#181818"/>
      </g>
      <g id="Group_474" data-name="Group 474" transform="translate(392.352 251.899) rotate(90)">
        <path id="Path_23-10" data-name="Path 23" d="M28.747,8.433a7.962,7.962,0,0,0-10.349,4.4l-.385,1.058a7.962,7.962,0,0,0,5.1,10.025,7.962,7.962,0,0,0,10.349-4.4l.385-1.058A7.962,7.962,0,0,0,28.747,8.433ZM13.359,50.711a7.962,7.962,0,0,0-10.349,4.4l-.385,1.058A7.962,7.962,0,0,0,7.723,66.2a7.962,7.962,0,0,0,10.349-4.4l.385-1.058A7.962,7.962,0,0,0,13.359,50.711Z" transform="translate(40.186 29.253)" fill="#181818"/>
        <path id="Path_25-20" data-name="Path 25" d="M28.747,8.433a7.962,7.962,0,0,0-10.349,4.4l-.385,1.058a7.962,7.962,0,0,0,5.1,10.025,7.962,7.962,0,0,0,10.349-4.4l.385-1.058A7.962,7.962,0,0,0,28.747,8.433ZM13.359,50.711a7.962,7.962,0,0,0-10.349,4.4l-.385,1.058A7.962,7.962,0,0,0,7.723,66.2a7.962,7.962,0,0,0,10.349-4.4l.385-1.058A7.962,7.962,0,0,0,13.359,50.711Z" transform="translate(0 14.627)" fill="#181818"/>
      </g>
      <g id="Group_475" data-name="Group 475" transform="translate(364.242 329.13) rotate(90)">
        <path id="Path_23-11" data-name="Path 23" d="M28.747,8.433a7.962,7.962,0,0,0-10.349,4.4l-.385,1.058a7.962,7.962,0,0,0,5.1,10.025,7.962,7.962,0,0,0,10.349-4.4l.385-1.058A7.962,7.962,0,0,0,28.747,8.433ZM13.359,50.711a7.962,7.962,0,0,0-10.349,4.4l-.385,1.058A7.962,7.962,0,0,0,7.723,66.2a7.962,7.962,0,0,0,10.349-4.4l.385-1.058A7.962,7.962,0,0,0,13.359,50.711Z" transform="translate(40.186 29.253)" fill="#181818"/>
        <path id="Path_25-21" data-name="Path 25" d="M28.747,8.433a7.962,7.962,0,0,0-10.349,4.4l-.385,1.058a7.962,7.962,0,0,0,5.1,10.025,7.962,7.962,0,0,0,10.349-4.4l.385-1.058A7.962,7.962,0,0,0,28.747,8.433ZM13.359,50.711a7.962,7.962,0,0,0-10.349,4.4l-.385,1.058A7.962,7.962,0,0,0,7.723,66.2a7.962,7.962,0,0,0,10.349-4.4l.385-1.058A7.962,7.962,0,0,0,13.359,50.711Z" transform="translate(0 14.627)" fill="#181818"/>
      </g>
      <g id="Group_476" data-name="Group 476" transform="translate(336.133 406.362) rotate(90)">
        <path id="Path_23-12" data-name="Path 23" d="M28.747,8.433a7.962,7.962,0,0,0-10.349,4.4l-.385,1.058a7.962,7.962,0,0,0,5.1,10.025,7.962,7.962,0,0,0,10.349-4.4l.385-1.058A7.962,7.962,0,0,0,28.747,8.433ZM13.359,50.711a7.962,7.962,0,0,0-10.349,4.4l-.385,1.058A7.962,7.962,0,0,0,7.723,66.2a7.962,7.962,0,0,0,10.349-4.4l.385-1.058A7.962,7.962,0,0,0,13.359,50.711Z" transform="translate(40.186 29.253)" fill="#181818"/>
        <path id="Path_25-22" data-name="Path 25" d="M28.747,8.433a7.962,7.962,0,0,0-10.349,4.4l-.385,1.058a7.962,7.962,0,0,0,5.1,10.025,7.962,7.962,0,0,0,10.349-4.4l.385-1.058A7.962,7.962,0,0,0,28.747,8.433ZM13.359,50.711a7.962,7.962,0,0,0-10.349,4.4l-.385,1.058A7.962,7.962,0,0,0,7.723,66.2a7.962,7.962,0,0,0,10.349-4.4l.385-1.058A7.962,7.962,0,0,0,13.359,50.711Z" transform="translate(0 14.627)" fill="#181818"/>
      </g>
      <g id="Group_477" data-name="Group 477" transform="translate(471.642 280.759) rotate(90)">
        <path id="Path_23-13" data-name="Path 23" d="M28.747,8.433a7.962,7.962,0,0,0-10.349,4.4l-.385,1.058a7.962,7.962,0,0,0,5.1,10.025,7.962,7.962,0,0,0,10.349-4.4l.385-1.058A7.962,7.962,0,0,0,28.747,8.433ZM13.359,50.711a7.962,7.962,0,0,0-10.349,4.4l-.385,1.058A7.962,7.962,0,0,0,7.723,66.2a7.962,7.962,0,0,0,10.349-4.4l.385-1.058A7.962,7.962,0,0,0,13.359,50.711Z" transform="translate(40.186 29.253)" fill="#181818"/>
        <path id="Path_25-23" data-name="Path 25" d="M28.747,8.433a7.962,7.962,0,0,0-10.349,4.4l-.385,1.058a7.962,7.962,0,0,0,5.1,10.025,7.962,7.962,0,0,0,10.349-4.4l.385-1.058A7.962,7.962,0,0,0,28.747,8.433ZM13.359,50.711a7.962,7.962,0,0,0-10.349,4.4l-.385,1.058A7.962,7.962,0,0,0,7.723,66.2a7.962,7.962,0,0,0,10.349-4.4l.385-1.058A7.962,7.962,0,0,0,13.359,50.711Z" transform="translate(0 14.627)" fill="#181818"/>
      </g>
      <g id="Group_478" data-name="Group 478" transform="translate(443.532 357.989) rotate(90)">
        <path id="Path_23-14" data-name="Path 23" d="M28.747,8.433a7.962,7.962,0,0,0-10.349,4.4l-.385,1.058a7.962,7.962,0,0,0,5.1,10.025,7.962,7.962,0,0,0,10.349-4.4l.385-1.058A7.962,7.962,0,0,0,28.747,8.433ZM13.359,50.711a7.962,7.962,0,0,0-10.349,4.4l-.385,1.058A7.962,7.962,0,0,0,7.723,66.2a7.962,7.962,0,0,0,10.349-4.4l.385-1.058A7.962,7.962,0,0,0,13.359,50.711Z" transform="translate(40.186 29.253)" fill="#181818"/>
        <path id="Path_25-24" data-name="Path 25" d="M28.747,8.433a7.962,7.962,0,0,0-10.349,4.4l-.385,1.058a7.962,7.962,0,0,0,5.1,10.025,7.962,7.962,0,0,0,10.349-4.4l.385-1.058A7.962,7.962,0,0,0,28.747,8.433ZM13.359,50.711a7.962,7.962,0,0,0-10.349,4.4l-.385,1.058A7.962,7.962,0,0,0,7.723,66.2a7.962,7.962,0,0,0,10.349-4.4l.385-1.058A7.962,7.962,0,0,0,13.359,50.711Z" transform="translate(0 14.627)" fill="#181818"/>
      </g>
      <g id="Group_479" data-name="Group 479" transform="translate(415.423 435.221) rotate(90)">
        <path id="Path_23-15" data-name="Path 23" d="M28.747,8.433a7.962,7.962,0,0,0-10.349,4.4l-.385,1.058a7.962,7.962,0,0,0,5.1,10.025,7.962,7.962,0,0,0,10.349-4.4l.385-1.058A7.962,7.962,0,0,0,28.747,8.433ZM13.359,50.711a7.962,7.962,0,0,0-10.349,4.4l-.385,1.058A7.962,7.962,0,0,0,7.723,66.2a7.962,7.962,0,0,0,10.349-4.4l.385-1.058A7.962,7.962,0,0,0,13.359,50.711Z" transform="translate(40.186 29.253)" fill="#181818"/>
        <path id="Path_25-25" data-name="Path 25" d="M28.747,8.433a7.962,7.962,0,0,0-10.349,4.4l-.385,1.058a7.962,7.962,0,0,0,5.1,10.025,7.962,7.962,0,0,0,10.349-4.4l.385-1.058A7.962,7.962,0,0,0,28.747,8.433ZM13.359,50.711a7.962,7.962,0,0,0-10.349,4.4l-.385,1.058A7.962,7.962,0,0,0,7.723,66.2a7.962,7.962,0,0,0,10.349-4.4l.385-1.058A7.962,7.962,0,0,0,13.359,50.711Z" transform="translate(0 14.627)" fill="#181818"/>
      </g>
      <g id="Group_480" data-name="Group 480" transform="translate(550.933 309.618) rotate(90)">
        <path id="Path_23-16" data-name="Path 23" d="M28.747,8.433a7.962,7.962,0,0,0-10.349,4.4l-.385,1.058a7.962,7.962,0,0,0,5.1,10.025,7.962,7.962,0,0,0,10.349-4.4l.385-1.058A7.962,7.962,0,0,0,28.747,8.433ZM13.359,50.711a7.962,7.962,0,0,0-10.349,4.4l-.385,1.058A7.962,7.962,0,0,0,7.723,66.2a7.962,7.962,0,0,0,10.349-4.4l.385-1.058A7.962,7.962,0,0,0,13.359,50.711Z" transform="translate(40.186 29.253)" fill="#181818"/>
        <path id="Path_25-26" data-name="Path 25" d="M28.747,8.433a7.962,7.962,0,0,0-10.349,4.4l-.385,1.058a7.962,7.962,0,0,0,5.1,10.025,7.962,7.962,0,0,0,10.349-4.4l.385-1.058A7.962,7.962,0,0,0,28.747,8.433ZM13.359,50.711a7.962,7.962,0,0,0-10.349,4.4l-.385,1.058A7.962,7.962,0,0,0,7.723,66.2a7.962,7.962,0,0,0,10.349-4.4l.385-1.058A7.962,7.962,0,0,0,13.359,50.711Z" transform="translate(0 14.627)" fill="#181818"/>
      </g>
      <g id="Group_481" data-name="Group 481" transform="translate(522.823 386.849) rotate(90)">
        <path id="Path_23-17" data-name="Path 23" d="M28.747,8.433a7.962,7.962,0,0,0-10.349,4.4l-.385,1.058a7.962,7.962,0,0,0,5.1,10.025,7.962,7.962,0,0,0,10.349-4.4l.385-1.058A7.962,7.962,0,0,0,28.747,8.433ZM13.359,50.711a7.962,7.962,0,0,0-10.349,4.4l-.385,1.058A7.962,7.962,0,0,0,7.723,66.2a7.962,7.962,0,0,0,10.349-4.4l.385-1.058A7.962,7.962,0,0,0,13.359,50.711Z" transform="translate(40.186 29.253)" fill="#181818"/>
        <path id="Path_25-27" data-name="Path 25" d="M28.747,8.433a7.962,7.962,0,0,0-10.349,4.4l-.385,1.058a7.962,7.962,0,0,0,5.1,10.025,7.962,7.962,0,0,0,10.349-4.4l.385-1.058A7.962,7.962,0,0,0,28.747,8.433ZM13.359,50.711a7.962,7.962,0,0,0-10.349,4.4l-.385,1.058A7.962,7.962,0,0,0,7.723,66.2a7.962,7.962,0,0,0,10.349-4.4l.385-1.058A7.962,7.962,0,0,0,13.359,50.711Z" transform="translate(0 14.627)" fill="#181818"/>
      </g>
      <g id="Group_482" data-name="Group 482" transform="translate(494.714 464.08) rotate(90)">
        <path id="Path_23-18" data-name="Path 23" d="M28.747,8.433a7.962,7.962,0,0,0-10.349,4.4l-.385,1.058a7.962,7.962,0,0,0,5.1,10.025,7.962,7.962,0,0,0,10.349-4.4l.385-1.058A7.962,7.962,0,0,0,28.747,8.433ZM13.359,50.711a7.962,7.962,0,0,0-10.349,4.4l-.385,1.058A7.962,7.962,0,0,0,7.723,66.2a7.962,7.962,0,0,0,10.349-4.4l.385-1.058A7.962,7.962,0,0,0,13.359,50.711Z" transform="translate(40.186 29.253)" fill="#181818"/>
        <path id="Path_25-28" data-name="Path 25" d="M28.747,8.433a7.962,7.962,0,0,0-10.349,4.4l-.385,1.058a7.962,7.962,0,0,0,5.1,10.025,7.962,7.962,0,0,0,10.349-4.4l.385-1.058A7.962,7.962,0,0,0,28.747,8.433ZM13.359,50.711a7.962,7.962,0,0,0-10.349,4.4l-.385,1.058A7.962,7.962,0,0,0,7.723,66.2a7.962,7.962,0,0,0,10.349-4.4l.385-1.058A7.962,7.962,0,0,0,13.359,50.711Z" transform="translate(0 14.627)" fill="#181818"/>
      </g>
    </g>
    <g id="Puntjes-3" data-name="Puntjes" transform="translate(86.189 126.721)">
      <g id="Group_465-2" data-name="Group 465" transform="translate(154.481 165.322) rotate(90)">
        <path id="Path_23-19" data-name="Path 23" d="M28.747,8.433a7.962,7.962,0,0,0-10.349,4.4l-.385,1.058a7.962,7.962,0,0,0,5.1,10.025,7.962,7.962,0,0,0,10.349-4.4l.385-1.058A7.962,7.962,0,0,0,28.747,8.433ZM13.359,50.711a7.962,7.962,0,0,0-10.349,4.4l-.385,1.058A7.962,7.962,0,0,0,7.723,66.2a7.962,7.962,0,0,0,10.349-4.4l.385-1.058A7.962,7.962,0,0,0,13.359,50.711Z" transform="translate(40.186 29.253)" fill="#181818"/>
        <path id="Path_25-29" data-name="Path 25" d="M28.747,8.433a7.962,7.962,0,0,0-10.349,4.4l-.385,1.058a7.962,7.962,0,0,0,5.1,10.025,7.962,7.962,0,0,0,10.349-4.4l.385-1.058A7.962,7.962,0,0,0,28.747,8.433ZM13.359,50.711a7.962,7.962,0,0,0-10.349,4.4l-.385,1.058A7.962,7.962,0,0,0,7.723,66.2a7.962,7.962,0,0,0,10.349-4.4l.385-1.058A7.962,7.962,0,0,0,13.359,50.711Z" transform="translate(0 14.627)" fill="#181818"/>
      </g>
      <g id="Group_466-2" data-name="Group 466" transform="translate(126.371 242.552) rotate(90)">
        <path id="Path_23-20" data-name="Path 23" d="M28.747,8.433a7.962,7.962,0,0,0-10.349,4.4l-.385,1.058a7.962,7.962,0,0,0,5.1,10.025,7.962,7.962,0,0,0,10.349-4.4l.385-1.058A7.962,7.962,0,0,0,28.747,8.433ZM13.359,50.711a7.962,7.962,0,0,0-10.349,4.4l-.385,1.058A7.962,7.962,0,0,0,7.723,66.2a7.962,7.962,0,0,0,10.349-4.4l.385-1.058A7.962,7.962,0,0,0,13.359,50.711Z" transform="translate(40.186 29.253)" fill="#181818"/>
        <path id="Path_25-30" data-name="Path 25" d="M28.747,8.433a7.962,7.962,0,0,0-10.349,4.4l-.385,1.058a7.962,7.962,0,0,0,5.1,10.025,7.962,7.962,0,0,0,10.349-4.4l.385-1.058A7.962,7.962,0,0,0,28.747,8.433ZM13.359,50.711a7.962,7.962,0,0,0-10.349,4.4l-.385,1.058A7.962,7.962,0,0,0,7.723,66.2a7.962,7.962,0,0,0,10.349-4.4l.385-1.058A7.962,7.962,0,0,0,13.359,50.711Z" transform="translate(0 14.627)" fill="#181818"/>
      </g>
      <g id="Group_467-2" data-name="Group 467" transform="translate(98.261 319.784) rotate(90)">
        <path id="Path_23-21" data-name="Path 23" d="M28.747,8.433a7.962,7.962,0,0,0-10.349,4.4l-.385,1.058a7.962,7.962,0,0,0,5.1,10.025,7.962,7.962,0,0,0,10.349-4.4l.385-1.058A7.962,7.962,0,0,0,28.747,8.433ZM13.359,50.711a7.962,7.962,0,0,0-10.349,4.4l-.385,1.058A7.962,7.962,0,0,0,7.723,66.2a7.962,7.962,0,0,0,10.349-4.4l.385-1.058A7.962,7.962,0,0,0,13.359,50.711Z" transform="translate(40.186 29.253)" fill="#181818"/>
        <path id="Path_25-31" data-name="Path 25" d="M28.747,8.433a7.962,7.962,0,0,0-10.349,4.4l-.385,1.058a7.962,7.962,0,0,0,5.1,10.025,7.962,7.962,0,0,0,10.349-4.4l.385-1.058A7.962,7.962,0,0,0,28.747,8.433ZM13.359,50.711a7.962,7.962,0,0,0-10.349,4.4l-.385,1.058A7.962,7.962,0,0,0,7.723,66.2a7.962,7.962,0,0,0,10.349-4.4l.385-1.058A7.962,7.962,0,0,0,13.359,50.711Z" transform="translate(0 14.627)" fill="#181818"/>
      </g>
      <g id="Group_468-2" data-name="Group 468" transform="translate(233.771 194.181) rotate(90)">
        <path id="Path_23-22" data-name="Path 23" d="M28.747,8.433a7.962,7.962,0,0,0-10.349,4.4l-.385,1.058a7.962,7.962,0,0,0,5.1,10.025,7.962,7.962,0,0,0,10.349-4.4l.385-1.058A7.962,7.962,0,0,0,28.747,8.433ZM13.359,50.711a7.962,7.962,0,0,0-10.349,4.4l-.385,1.058A7.962,7.962,0,0,0,7.723,66.2a7.962,7.962,0,0,0,10.349-4.4l.385-1.058A7.962,7.962,0,0,0,13.359,50.711Z" transform="translate(40.186 29.253)" fill="#181818"/>
        <path id="Path_25-32" data-name="Path 25" d="M28.747,8.433a7.962,7.962,0,0,0-10.349,4.4l-.385,1.058a7.962,7.962,0,0,0,5.1,10.025,7.962,7.962,0,0,0,10.349-4.4l.385-1.058A7.962,7.962,0,0,0,28.747,8.433ZM13.359,50.711a7.962,7.962,0,0,0-10.349,4.4l-.385,1.058A7.962,7.962,0,0,0,7.723,66.2a7.962,7.962,0,0,0,10.349-4.4l.385-1.058A7.962,7.962,0,0,0,13.359,50.711Z" transform="translate(0 14.627)" fill="#181818"/>
      </g>
      <g id="Group_469-2" data-name="Group 469" transform="translate(205.661 271.411) rotate(90)">
        <path id="Path_23-23" data-name="Path 23" d="M28.747,8.433a7.962,7.962,0,0,0-10.349,4.4l-.385,1.058a7.962,7.962,0,0,0,5.1,10.025,7.962,7.962,0,0,0,10.349-4.4l.385-1.058A7.962,7.962,0,0,0,28.747,8.433ZM13.359,50.711a7.962,7.962,0,0,0-10.349,4.4l-.385,1.058A7.962,7.962,0,0,0,7.723,66.2a7.962,7.962,0,0,0,10.349-4.4l.385-1.058A7.962,7.962,0,0,0,13.359,50.711Z" transform="translate(40.186 29.253)" fill="#181818"/>
        <path id="Path_25-33" data-name="Path 25" d="M28.747,8.433a7.962,7.962,0,0,0-10.349,4.4l-.385,1.058a7.962,7.962,0,0,0,5.1,10.025,7.962,7.962,0,0,0,10.349-4.4l.385-1.058A7.962,7.962,0,0,0,28.747,8.433ZM13.359,50.711a7.962,7.962,0,0,0-10.349,4.4l-.385,1.058A7.962,7.962,0,0,0,7.723,66.2a7.962,7.962,0,0,0,10.349-4.4l.385-1.058A7.962,7.962,0,0,0,13.359,50.711Z" transform="translate(0 14.627)" fill="#181818"/>
      </g>
      <g id="Group_470-2" data-name="Group 470" transform="translate(177.552 348.643) rotate(90)">
        <path id="Path_23-24" data-name="Path 23" d="M28.747,8.433a7.962,7.962,0,0,0-10.349,4.4l-.385,1.058a7.962,7.962,0,0,0,5.1,10.025,7.962,7.962,0,0,0,10.349-4.4l.385-1.058A7.962,7.962,0,0,0,28.747,8.433ZM13.359,50.711a7.962,7.962,0,0,0-10.349,4.4l-.385,1.058A7.962,7.962,0,0,0,7.723,66.2a7.962,7.962,0,0,0,10.349-4.4l.385-1.058A7.962,7.962,0,0,0,13.359,50.711Z" transform="translate(40.186 29.253)" fill="#181818"/>
        <path id="Path_25-34" data-name="Path 25" d="M28.747,8.433a7.962,7.962,0,0,0-10.349,4.4l-.385,1.058a7.962,7.962,0,0,0,5.1,10.025,7.962,7.962,0,0,0,10.349-4.4l.385-1.058A7.962,7.962,0,0,0,28.747,8.433ZM13.359,50.711a7.962,7.962,0,0,0-10.349,4.4l-.385,1.058A7.962,7.962,0,0,0,7.723,66.2a7.962,7.962,0,0,0,10.349-4.4l.385-1.058A7.962,7.962,0,0,0,13.359,50.711Z" transform="translate(0 14.627)" fill="#181818"/>
      </g>
      <g id="Group_471-2" data-name="Group 471" transform="translate(313.062 223.04) rotate(90)">
        <path id="Path_23-25" data-name="Path 23" d="M28.747,8.433a7.962,7.962,0,0,0-10.349,4.4l-.385,1.058a7.962,7.962,0,0,0,5.1,10.025,7.962,7.962,0,0,0,10.349-4.4l.385-1.058A7.962,7.962,0,0,0,28.747,8.433ZM13.359,50.711a7.962,7.962,0,0,0-10.349,4.4l-.385,1.058A7.962,7.962,0,0,0,7.723,66.2a7.962,7.962,0,0,0,10.349-4.4l.385-1.058A7.962,7.962,0,0,0,13.359,50.711Z" transform="translate(40.186 29.253)" fill="#181818"/>
        <path id="Path_25-35" data-name="Path 25" d="M28.747,8.433a7.962,7.962,0,0,0-10.349,4.4l-.385,1.058a7.962,7.962,0,0,0,5.1,10.025,7.962,7.962,0,0,0,10.349-4.4l.385-1.058A7.962,7.962,0,0,0,28.747,8.433ZM13.359,50.711a7.962,7.962,0,0,0-10.349,4.4l-.385,1.058A7.962,7.962,0,0,0,7.723,66.2a7.962,7.962,0,0,0,10.349-4.4l.385-1.058A7.962,7.962,0,0,0,13.359,50.711Z" transform="translate(0 14.627)" fill="#181818"/>
      </g>
      <g id="Group_472-2" data-name="Group 472" transform="translate(284.952 300.271) rotate(90)">
        <path id="Path_23-26" data-name="Path 23" d="M28.747,8.433a7.962,7.962,0,0,0-10.349,4.4l-.385,1.058a7.962,7.962,0,0,0,5.1,10.025,7.962,7.962,0,0,0,10.349-4.4l.385-1.058A7.962,7.962,0,0,0,28.747,8.433ZM13.359,50.711a7.962,7.962,0,0,0-10.349,4.4l-.385,1.058A7.962,7.962,0,0,0,7.723,66.2a7.962,7.962,0,0,0,10.349-4.4l.385-1.058A7.962,7.962,0,0,0,13.359,50.711Z" transform="translate(40.186 29.253)" fill="#181818"/>
        <path id="Path_25-36" data-name="Path 25" d="M28.747,8.433a7.962,7.962,0,0,0-10.349,4.4l-.385,1.058a7.962,7.962,0,0,0,5.1,10.025,7.962,7.962,0,0,0,10.349-4.4l.385-1.058A7.962,7.962,0,0,0,28.747,8.433ZM13.359,50.711a7.962,7.962,0,0,0-10.349,4.4l-.385,1.058A7.962,7.962,0,0,0,7.723,66.2a7.962,7.962,0,0,0,10.349-4.4l.385-1.058A7.962,7.962,0,0,0,13.359,50.711Z" transform="translate(0 14.627)" fill="#181818"/>
      </g>
      <g id="Group_473-2" data-name="Group 473" transform="translate(256.842 377.502) rotate(90)">
        <path id="Path_23-27" data-name="Path 23" d="M28.747,8.433a7.962,7.962,0,0,0-10.349,4.4l-.385,1.058a7.962,7.962,0,0,0,5.1,10.025,7.962,7.962,0,0,0,10.349-4.4l.385-1.058A7.962,7.962,0,0,0,28.747,8.433ZM13.359,50.711a7.962,7.962,0,0,0-10.349,4.4l-.385,1.058A7.962,7.962,0,0,0,7.723,66.2a7.962,7.962,0,0,0,10.349-4.4l.385-1.058A7.962,7.962,0,0,0,13.359,50.711Z" transform="translate(40.186 29.253)" fill="#181818"/>
        <path id="Path_25-37" data-name="Path 25" d="M28.747,8.433a7.962,7.962,0,0,0-10.349,4.4l-.385,1.058a7.962,7.962,0,0,0,5.1,10.025,7.962,7.962,0,0,0,10.349-4.4l.385-1.058A7.962,7.962,0,0,0,28.747,8.433ZM13.359,50.711a7.962,7.962,0,0,0-10.349,4.4l-.385,1.058A7.962,7.962,0,0,0,7.723,66.2a7.962,7.962,0,0,0,10.349-4.4l.385-1.058A7.962,7.962,0,0,0,13.359,50.711Z" transform="translate(0 14.627)" fill="#181818"/>
      </g>
      <g id="Group_474-2" data-name="Group 474" transform="translate(392.352 251.899) rotate(90)">
        <path id="Path_23-28" data-name="Path 23" d="M28.747,8.433a7.962,7.962,0,0,0-10.349,4.4l-.385,1.058a7.962,7.962,0,0,0,5.1,10.025,7.962,7.962,0,0,0,10.349-4.4l.385-1.058A7.962,7.962,0,0,0,28.747,8.433ZM13.359,50.711a7.962,7.962,0,0,0-10.349,4.4l-.385,1.058A7.962,7.962,0,0,0,7.723,66.2a7.962,7.962,0,0,0,10.349-4.4l.385-1.058A7.962,7.962,0,0,0,13.359,50.711Z" transform="translate(40.186 29.253)" fill="#181818"/>
        <path id="Path_25-38" data-name="Path 25" d="M28.747,8.433a7.962,7.962,0,0,0-10.349,4.4l-.385,1.058a7.962,7.962,0,0,0,5.1,10.025,7.962,7.962,0,0,0,10.349-4.4l.385-1.058A7.962,7.962,0,0,0,28.747,8.433ZM13.359,50.711a7.962,7.962,0,0,0-10.349,4.4l-.385,1.058A7.962,7.962,0,0,0,7.723,66.2a7.962,7.962,0,0,0,10.349-4.4l.385-1.058A7.962,7.962,0,0,0,13.359,50.711Z" transform="translate(0 14.627)" fill="#181818"/>
      </g>
      <g id="Group_475-2" data-name="Group 475" transform="translate(364.242 329.13) rotate(90)">
        <path id="Path_23-29" data-name="Path 23" d="M28.747,8.433a7.962,7.962,0,0,0-10.349,4.4l-.385,1.058a7.962,7.962,0,0,0,5.1,10.025,7.962,7.962,0,0,0,10.349-4.4l.385-1.058A7.962,7.962,0,0,0,28.747,8.433ZM13.359,50.711a7.962,7.962,0,0,0-10.349,4.4l-.385,1.058A7.962,7.962,0,0,0,7.723,66.2a7.962,7.962,0,0,0,10.349-4.4l.385-1.058A7.962,7.962,0,0,0,13.359,50.711Z" transform="translate(40.186 29.253)" fill="#181818"/>
        <path id="Path_25-39" data-name="Path 25" d="M28.747,8.433a7.962,7.962,0,0,0-10.349,4.4l-.385,1.058a7.962,7.962,0,0,0,5.1,10.025,7.962,7.962,0,0,0,10.349-4.4l.385-1.058A7.962,7.962,0,0,0,28.747,8.433ZM13.359,50.711a7.962,7.962,0,0,0-10.349,4.4l-.385,1.058A7.962,7.962,0,0,0,7.723,66.2a7.962,7.962,0,0,0,10.349-4.4l.385-1.058A7.962,7.962,0,0,0,13.359,50.711Z" transform="translate(0 14.627)" fill="#181818"/>
      </g>
      <g id="Group_476-2" data-name="Group 476" transform="translate(336.133 406.362) rotate(90)">
        <path id="Path_23-30" data-name="Path 23" d="M28.747,8.433a7.962,7.962,0,0,0-10.349,4.4l-.385,1.058a7.962,7.962,0,0,0,5.1,10.025,7.962,7.962,0,0,0,10.349-4.4l.385-1.058A7.962,7.962,0,0,0,28.747,8.433ZM13.359,50.711a7.962,7.962,0,0,0-10.349,4.4l-.385,1.058A7.962,7.962,0,0,0,7.723,66.2a7.962,7.962,0,0,0,10.349-4.4l.385-1.058A7.962,7.962,0,0,0,13.359,50.711Z" transform="translate(40.186 29.253)" fill="#181818"/>
        <path id="Path_25-40" data-name="Path 25" d="M28.747,8.433a7.962,7.962,0,0,0-10.349,4.4l-.385,1.058a7.962,7.962,0,0,0,5.1,10.025,7.962,7.962,0,0,0,10.349-4.4l.385-1.058A7.962,7.962,0,0,0,28.747,8.433ZM13.359,50.711a7.962,7.962,0,0,0-10.349,4.4l-.385,1.058A7.962,7.962,0,0,0,7.723,66.2a7.962,7.962,0,0,0,10.349-4.4l.385-1.058A7.962,7.962,0,0,0,13.359,50.711Z" transform="translate(0 14.627)" fill="#181818"/>
      </g>
      <g id="Group_477-2" data-name="Group 477" transform="translate(471.642 280.759) rotate(90)">
        <path id="Path_23-31" data-name="Path 23" d="M28.747,8.433a7.962,7.962,0,0,0-10.349,4.4l-.385,1.058a7.962,7.962,0,0,0,5.1,10.025,7.962,7.962,0,0,0,10.349-4.4l.385-1.058A7.962,7.962,0,0,0,28.747,8.433ZM13.359,50.711a7.962,7.962,0,0,0-10.349,4.4l-.385,1.058A7.962,7.962,0,0,0,7.723,66.2a7.962,7.962,0,0,0,10.349-4.4l.385-1.058A7.962,7.962,0,0,0,13.359,50.711Z" transform="translate(40.186 29.253)" fill="#181818"/>
        <path id="Path_25-41" data-name="Path 25" d="M28.747,8.433a7.962,7.962,0,0,0-10.349,4.4l-.385,1.058a7.962,7.962,0,0,0,5.1,10.025,7.962,7.962,0,0,0,10.349-4.4l.385-1.058A7.962,7.962,0,0,0,28.747,8.433ZM13.359,50.711a7.962,7.962,0,0,0-10.349,4.4l-.385,1.058A7.962,7.962,0,0,0,7.723,66.2a7.962,7.962,0,0,0,10.349-4.4l.385-1.058A7.962,7.962,0,0,0,13.359,50.711Z" transform="translate(0 14.627)" fill="#181818"/>
      </g>
      <g id="Group_478-2" data-name="Group 478" transform="translate(443.532 357.989) rotate(90)">
        <path id="Path_23-32" data-name="Path 23" d="M28.747,8.433a7.962,7.962,0,0,0-10.349,4.4l-.385,1.058a7.962,7.962,0,0,0,5.1,10.025,7.962,7.962,0,0,0,10.349-4.4l.385-1.058A7.962,7.962,0,0,0,28.747,8.433ZM13.359,50.711a7.962,7.962,0,0,0-10.349,4.4l-.385,1.058A7.962,7.962,0,0,0,7.723,66.2a7.962,7.962,0,0,0,10.349-4.4l.385-1.058A7.962,7.962,0,0,0,13.359,50.711Z" transform="translate(40.186 29.253)" fill="#181818"/>
        <path id="Path_25-42" data-name="Path 25" d="M28.747,8.433a7.962,7.962,0,0,0-10.349,4.4l-.385,1.058a7.962,7.962,0,0,0,5.1,10.025,7.962,7.962,0,0,0,10.349-4.4l.385-1.058A7.962,7.962,0,0,0,28.747,8.433ZM13.359,50.711a7.962,7.962,0,0,0-10.349,4.4l-.385,1.058A7.962,7.962,0,0,0,7.723,66.2a7.962,7.962,0,0,0,10.349-4.4l.385-1.058A7.962,7.962,0,0,0,13.359,50.711Z" transform="translate(0 14.627)" fill="#181818"/>
      </g>
      <g id="Group_479-2" data-name="Group 479" transform="translate(415.423 435.221) rotate(90)">
        <path id="Path_23-33" data-name="Path 23" d="M28.747,8.433a7.962,7.962,0,0,0-10.349,4.4l-.385,1.058a7.962,7.962,0,0,0,5.1,10.025,7.962,7.962,0,0,0,10.349-4.4l.385-1.058A7.962,7.962,0,0,0,28.747,8.433ZM13.359,50.711a7.962,7.962,0,0,0-10.349,4.4l-.385,1.058A7.962,7.962,0,0,0,7.723,66.2a7.962,7.962,0,0,0,10.349-4.4l.385-1.058A7.962,7.962,0,0,0,13.359,50.711Z" transform="translate(40.186 29.253)" fill="#181818"/>
        <path id="Path_25-43" data-name="Path 25" d="M28.747,8.433a7.962,7.962,0,0,0-10.349,4.4l-.385,1.058a7.962,7.962,0,0,0,5.1,10.025,7.962,7.962,0,0,0,10.349-4.4l.385-1.058A7.962,7.962,0,0,0,28.747,8.433ZM13.359,50.711a7.962,7.962,0,0,0-10.349,4.4l-.385,1.058A7.962,7.962,0,0,0,7.723,66.2a7.962,7.962,0,0,0,10.349-4.4l.385-1.058A7.962,7.962,0,0,0,13.359,50.711Z" transform="translate(0 14.627)" fill="#181818"/>
      </g>
      <g id="Group_480-2" data-name="Group 480" transform="translate(550.933 309.618) rotate(90)">
        <path id="Path_23-34" data-name="Path 23" d="M28.747,8.433a7.962,7.962,0,0,0-10.349,4.4l-.385,1.058a7.962,7.962,0,0,0,5.1,10.025,7.962,7.962,0,0,0,10.349-4.4l.385-1.058A7.962,7.962,0,0,0,28.747,8.433ZM13.359,50.711a7.962,7.962,0,0,0-10.349,4.4l-.385,1.058A7.962,7.962,0,0,0,7.723,66.2a7.962,7.962,0,0,0,10.349-4.4l.385-1.058A7.962,7.962,0,0,0,13.359,50.711Z" transform="translate(40.186 29.253)" fill="#181818"/>
        <path id="Path_25-44" data-name="Path 25" d="M28.747,8.433a7.962,7.962,0,0,0-10.349,4.4l-.385,1.058a7.962,7.962,0,0,0,5.1,10.025,7.962,7.962,0,0,0,10.349-4.4l.385-1.058A7.962,7.962,0,0,0,28.747,8.433ZM13.359,50.711a7.962,7.962,0,0,0-10.349,4.4l-.385,1.058A7.962,7.962,0,0,0,7.723,66.2a7.962,7.962,0,0,0,10.349-4.4l.385-1.058A7.962,7.962,0,0,0,13.359,50.711Z" transform="translate(0 14.627)" fill="#181818"/>
      </g>
      <g id="Group_481-2" data-name="Group 481" transform="translate(522.823 386.849) rotate(90)">
        <path id="Path_23-35" data-name="Path 23" d="M28.747,8.433a7.962,7.962,0,0,0-10.349,4.4l-.385,1.058a7.962,7.962,0,0,0,5.1,10.025,7.962,7.962,0,0,0,10.349-4.4l.385-1.058A7.962,7.962,0,0,0,28.747,8.433ZM13.359,50.711a7.962,7.962,0,0,0-10.349,4.4l-.385,1.058A7.962,7.962,0,0,0,7.723,66.2a7.962,7.962,0,0,0,10.349-4.4l.385-1.058A7.962,7.962,0,0,0,13.359,50.711Z" transform="translate(40.186 29.253)" fill="#181818"/>
        <path id="Path_25-45" data-name="Path 25" d="M28.747,8.433a7.962,7.962,0,0,0-10.349,4.4l-.385,1.058a7.962,7.962,0,0,0,5.1,10.025,7.962,7.962,0,0,0,10.349-4.4l.385-1.058A7.962,7.962,0,0,0,28.747,8.433ZM13.359,50.711a7.962,7.962,0,0,0-10.349,4.4l-.385,1.058A7.962,7.962,0,0,0,7.723,66.2a7.962,7.962,0,0,0,10.349-4.4l.385-1.058A7.962,7.962,0,0,0,13.359,50.711Z" transform="translate(0 14.627)" fill="#181818"/>
      </g>
      <g id="Group_482-2" data-name="Group 482" transform="translate(494.714 464.08) rotate(90)">
        <path id="Path_23-36" data-name="Path 23" d="M28.747,8.433a7.962,7.962,0,0,0-10.349,4.4l-.385,1.058a7.962,7.962,0,0,0,5.1,10.025,7.962,7.962,0,0,0,10.349-4.4l.385-1.058A7.962,7.962,0,0,0,28.747,8.433ZM13.359,50.711a7.962,7.962,0,0,0-10.349,4.4l-.385,1.058A7.962,7.962,0,0,0,7.723,66.2a7.962,7.962,0,0,0,10.349-4.4l.385-1.058A7.962,7.962,0,0,0,13.359,50.711Z" transform="translate(40.186 29.253)" fill="#181818"/>
        <path id="Path_25-46" data-name="Path 25" d="M28.747,8.433a7.962,7.962,0,0,0-10.349,4.4l-.385,1.058a7.962,7.962,0,0,0,5.1,10.025,7.962,7.962,0,0,0,10.349-4.4l.385-1.058A7.962,7.962,0,0,0,28.747,8.433ZM13.359,50.711a7.962,7.962,0,0,0-10.349,4.4l-.385,1.058A7.962,7.962,0,0,0,7.723,66.2a7.962,7.962,0,0,0,10.349-4.4l.385-1.058A7.962,7.962,0,0,0,13.359,50.711Z" transform="translate(0 14.627)" fill="#181818"/>
      </g>
    </g>
  </g>
</svg>
