<svg xmlns="http://www.w3.org/2000/svg" width="426.952" height="458.732" viewBox="0 0 426.952 458.732">
  <g id="Puntjes" transform="translate(426.952 0) rotate(90)" opacity="0.04">
    <g id="Eenling_puntjes" data-name="Eenling puntjes" transform="translate(127.562 61.826)">
      <path id="Path_25" data-name="Path 25" d="M6.207,12.446A6.013,6.013,0,0,1,0,6.648V5.8A6.013,6.013,0,0,1,6.207,0a6.013,6.013,0,0,1,6.207,5.8v.85A6.013,6.013,0,0,1,6.207,12.446Z" transform="translate(190.328 331.245) rotate(-90)" fill="#181818"/>
      <path id="Path_25-2" data-name="Path 25" d="M6.207,12.446A6.013,6.013,0,0,1,0,6.648V5.8A6.013,6.013,0,0,1,6.207,0a6.013,6.013,0,0,1,6.207,5.8v.85A6.013,6.013,0,0,1,6.207,12.446Z" transform="translate(254.526 140.917) rotate(-90)" fill="#181818"/>
      <path id="Path_25-3" data-name="Path 25" d="M6.207,12.446A6.013,6.013,0,0,1,0,6.648V5.8A6.013,6.013,0,0,1,6.207,0a6.013,6.013,0,0,1,6.207,5.8v.85A6.013,6.013,0,0,1,6.207,12.446Z" transform="translate(160.117 365.126) rotate(-90)" fill="#181818"/>
      <path id="Path_25-4" data-name="Path 25" d="M6.207,12.446A6.013,6.013,0,0,1,0,6.648V5.8A6.013,6.013,0,0,1,6.207,0a6.013,6.013,0,0,1,6.207,5.8v.85A6.013,6.013,0,0,1,6.207,12.446Z" transform="translate(160.117 331.245) rotate(-90)" fill="#181818"/>
      <path id="Path_25-5" data-name="Path 25" d="M6.207,12.446A6.013,6.013,0,0,1,0,6.648V5.8A6.013,6.013,0,0,1,6.207,0a6.013,6.013,0,0,1,6.207,5.8v.85A6.013,6.013,0,0,1,6.207,12.446Z" transform="translate(129.906 365.126) rotate(-90)" fill="#181818"/>
      <path id="Path_25-6" data-name="Path 25" d="M6.207,12.446A6.013,6.013,0,0,1,0,6.648V5.8A6.013,6.013,0,0,1,6.207,0a6.013,6.013,0,0,1,6.207,5.8v.85A6.013,6.013,0,0,1,6.207,12.446Z" transform="translate(160.117 365.126) rotate(-90)" fill="#181818"/>
      <path id="Path_25-7" data-name="Path 25" d="M6.207,12.446A6.013,6.013,0,0,1,0,6.648V5.8A6.013,6.013,0,0,1,6.207,0a6.013,6.013,0,0,1,6.207,5.8v.85A6.013,6.013,0,0,1,6.207,12.446Z" transform="translate(318.724 44.891) rotate(-90)" fill="#181818"/>
      <path id="Path_25-8" data-name="Path 25" d="M6.207,12.446A6.013,6.013,0,0,1,0,6.648V5.8A6.013,6.013,0,0,1,6.207,0a6.013,6.013,0,0,1,6.207,5.8v.85A6.013,6.013,0,0,1,6.207,12.446Z" transform="translate(318.724 12.415) rotate(-90)" fill="#181818"/>
      <path id="Path_25-9" data-name="Path 25" d="M6.207,12.446A6.013,6.013,0,0,1,0,6.648V5.8A6.013,6.013,0,0,1,6.207,0a6.013,6.013,0,0,1,6.207,5.8v.85A6.013,6.013,0,0,1,6.207,12.446Z" transform="translate(0 331.245) rotate(-90)" fill="#181818"/>
      <path id="Path_25-10" data-name="Path 25" d="M6.207,12.446A6.013,6.013,0,0,1,0,6.648V5.8A6.013,6.013,0,0,1,6.207,0a6.013,6.013,0,0,1,6.207,5.8v.85A6.013,6.013,0,0,1,6.207,12.446Z" transform="translate(32.477 331.245) rotate(-90)" fill="#181818"/>
    </g>
    <g id="Puntjes-2" data-name="Puntjes" transform="translate(63.443 0)">
      <g id="Group_465" data-name="Group 465" transform="translate(0.001 168.862) rotate(-90)">
        <path id="Path_23" data-name="Path 23" d="M6.207,46.427A6.013,6.013,0,0,1,0,40.629v-.85a6.013,6.013,0,0,1,6.207-5.8,6.013,6.013,0,0,1,6.207,5.8v.85A6.013,6.013,0,0,1,6.207,46.427Zm0-33.981A6.013,6.013,0,0,1,0,6.648V5.8A6.013,6.013,0,0,1,6.207,0a6.013,6.013,0,0,1,6.207,5.8v.85A6.013,6.013,0,0,1,6.207,12.446Z" transform="translate(32.299)" fill="#181818"/>
        <path id="Path_25-11" data-name="Path 25" d="M6.207,46.427A6.013,6.013,0,0,1,0,40.629v-.85a6.013,6.013,0,0,1,6.207-5.8,6.013,6.013,0,0,1,6.207,5.8v.85A6.013,6.013,0,0,1,6.207,46.427Zm0-33.981A6.013,6.013,0,0,1,0,6.648V5.8A6.013,6.013,0,0,1,6.207,0a6.013,6.013,0,0,1,6.207,5.8v.85A6.013,6.013,0,0,1,6.207,12.446Z" fill="#181818"/>
      </g>
      <g id="Group_466" data-name="Group 466" transform="translate(0 106.788) rotate(-90)">
        <path id="Path_23-2" data-name="Path 23" d="M6.207,46.427A6.013,6.013,0,0,1,0,40.629v-.85a6.013,6.013,0,0,1,6.207-5.8,6.013,6.013,0,0,1,6.207,5.8v.85A6.013,6.013,0,0,1,6.207,46.427Zm0-33.981A6.013,6.013,0,0,1,0,6.648V5.8A6.013,6.013,0,0,1,6.207,0a6.013,6.013,0,0,1,6.207,5.8v.85A6.013,6.013,0,0,1,6.207,12.446Z" transform="translate(32.299)" fill="#181818"/>
        <path id="Path_25-12" data-name="Path 25" d="M6.207,46.427A6.013,6.013,0,0,1,0,40.629v-.85a6.013,6.013,0,0,1,6.207-5.8,6.013,6.013,0,0,1,6.207,5.8v.85A6.013,6.013,0,0,1,6.207,46.427Zm0-33.981A6.013,6.013,0,0,1,0,6.648V5.8A6.013,6.013,0,0,1,6.207,0a6.013,6.013,0,0,1,6.207,5.8v.85A6.013,6.013,0,0,1,6.207,12.446Z" fill="#181818"/>
      </g>
      <g id="Group_467" data-name="Group 467" transform="translate(0.001 44.714) rotate(-90)">
        <path id="Path_23-3" data-name="Path 23" d="M6.207,46.427A6.013,6.013,0,0,1,0,40.629v-.85a6.013,6.013,0,0,1,6.207-5.8,6.013,6.013,0,0,1,6.207,5.8v.85A6.013,6.013,0,0,1,6.207,46.427Zm0-33.981A6.013,6.013,0,0,1,0,6.648V5.8A6.013,6.013,0,0,1,6.207,0a6.013,6.013,0,0,1,6.207,5.8v.85A6.013,6.013,0,0,1,6.207,12.446Z" transform="translate(32.299)" fill="#181818"/>
        <path id="Path_25-13" data-name="Path 25" d="M6.207,46.427A6.013,6.013,0,0,1,0,40.629v-.85a6.013,6.013,0,0,1,6.207-5.8,6.013,6.013,0,0,1,6.207,5.8v.85A6.013,6.013,0,0,1,6.207,46.427Zm0-33.981A6.013,6.013,0,0,1,0,6.648V5.8A6.013,6.013,0,0,1,6.207,0a6.013,6.013,0,0,1,6.207,5.8v.85A6.013,6.013,0,0,1,6.207,12.446Z" fill="#181818"/>
      </g>
      <g id="Group_468" data-name="Group 468" transform="translate(63.729 168.862) rotate(-90)">
        <path id="Path_23-4" data-name="Path 23" d="M6.207,46.427A6.013,6.013,0,0,1,0,40.629v-.85a6.013,6.013,0,0,1,6.207-5.8,6.013,6.013,0,0,1,6.207,5.8v.85A6.013,6.013,0,0,1,6.207,46.427Zm0-33.981A6.013,6.013,0,0,1,0,6.648V5.8A6.013,6.013,0,0,1,6.207,0a6.013,6.013,0,0,1,6.207,5.8v.85A6.013,6.013,0,0,1,6.207,12.446Z" transform="translate(32.299 0)" fill="#181818"/>
        <path id="Path_25-14" data-name="Path 25" d="M6.207,46.427A6.013,6.013,0,0,1,0,40.629v-.85a6.013,6.013,0,0,1,6.207-5.8,6.013,6.013,0,0,1,6.207,5.8v.85A6.013,6.013,0,0,1,6.207,46.427Zm0-33.981A6.013,6.013,0,0,1,0,6.648V5.8A6.013,6.013,0,0,1,6.207,0a6.013,6.013,0,0,1,6.207,5.8v.85A6.013,6.013,0,0,1,6.207,12.446Z" transform="translate(0 0)" fill="#181818"/>
      </g>
      <g id="Group_469" data-name="Group 469" transform="translate(63.729 106.788) rotate(-90)">
        <path id="Path_23-5" data-name="Path 23" d="M6.207,46.427A6.013,6.013,0,0,1,0,40.629v-.85a6.013,6.013,0,0,1,6.207-5.8,6.013,6.013,0,0,1,6.207,5.8v.85A6.013,6.013,0,0,1,6.207,46.427Zm0-33.981A6.013,6.013,0,0,1,0,6.648V5.8A6.013,6.013,0,0,1,6.207,0a6.013,6.013,0,0,1,6.207,5.8v.85A6.013,6.013,0,0,1,6.207,12.446Z" transform="translate(32.299 0)" fill="#181818"/>
        <path id="Path_25-15" data-name="Path 25" d="M6.207,46.427A6.013,6.013,0,0,1,0,40.629v-.85a6.013,6.013,0,0,1,6.207-5.8,6.013,6.013,0,0,1,6.207,5.8v.85A6.013,6.013,0,0,1,6.207,46.427Zm0-33.981A6.013,6.013,0,0,1,0,6.648V5.8A6.013,6.013,0,0,1,6.207,0a6.013,6.013,0,0,1,6.207,5.8v.85A6.013,6.013,0,0,1,6.207,12.446Z" transform="translate(0 0)" fill="#181818"/>
      </g>
      <g id="Group_470" data-name="Group 470" transform="translate(63.729 44.714) rotate(-90)">
        <path id="Path_23-6" data-name="Path 23" d="M6.207,46.427A6.013,6.013,0,0,1,0,40.629v-.85a6.013,6.013,0,0,1,6.207-5.8,6.013,6.013,0,0,1,6.207,5.8v.85A6.013,6.013,0,0,1,6.207,46.427Zm0-33.981A6.013,6.013,0,0,1,0,6.648V5.8A6.013,6.013,0,0,1,6.207,0a6.013,6.013,0,0,1,6.207,5.8v.85A6.013,6.013,0,0,1,6.207,12.446Z" transform="translate(32.299 0)" fill="#181818"/>
        <path id="Path_25-16" data-name="Path 25" d="M6.207,46.427A6.013,6.013,0,0,1,0,40.629v-.85a6.013,6.013,0,0,1,6.207-5.8,6.013,6.013,0,0,1,6.207,5.8v.85A6.013,6.013,0,0,1,6.207,46.427Zm0-33.981A6.013,6.013,0,0,1,0,6.648V5.8A6.013,6.013,0,0,1,6.207,0a6.013,6.013,0,0,1,6.207,5.8v.85A6.013,6.013,0,0,1,6.207,12.446Z" transform="translate(0 0)" fill="#181818"/>
      </g>
      <g id="Group_471" data-name="Group 471" transform="translate(127.458 168.862) rotate(-90)">
        <path id="Path_23-7" data-name="Path 23" d="M6.207,46.427A6.013,6.013,0,0,1,0,40.629v-.85a6.013,6.013,0,0,1,6.207-5.8,6.013,6.013,0,0,1,6.207,5.8v.85A6.013,6.013,0,0,1,6.207,46.427Zm0-33.981A6.013,6.013,0,0,1,0,6.648V5.8A6.013,6.013,0,0,1,6.207,0a6.013,6.013,0,0,1,6.207,5.8v.85A6.013,6.013,0,0,1,6.207,12.446Z" transform="translate(32.299 0)" fill="#181818"/>
        <path id="Path_25-17" data-name="Path 25" d="M6.207,46.427A6.013,6.013,0,0,1,0,40.629v-.85a6.013,6.013,0,0,1,6.207-5.8,6.013,6.013,0,0,1,6.207,5.8v.85A6.013,6.013,0,0,1,6.207,46.427Zm0-33.981A6.013,6.013,0,0,1,0,6.648V5.8A6.013,6.013,0,0,1,6.207,0a6.013,6.013,0,0,1,6.207,5.8v.85A6.013,6.013,0,0,1,6.207,12.446Z" transform="translate(0 0)" fill="#181818"/>
      </g>
      <g id="Group_472" data-name="Group 472" transform="translate(127.458 106.788) rotate(-90)">
        <path id="Path_23-8" data-name="Path 23" d="M6.207,46.427A6.013,6.013,0,0,1,0,40.629v-.85a6.013,6.013,0,0,1,6.207-5.8,6.013,6.013,0,0,1,6.207,5.8v.85A6.013,6.013,0,0,1,6.207,46.427Zm0-33.981A6.013,6.013,0,0,1,0,6.648V5.8A6.013,6.013,0,0,1,6.207,0a6.013,6.013,0,0,1,6.207,5.8v.85A6.013,6.013,0,0,1,6.207,12.446Z" transform="translate(32.299 0)" fill="#181818"/>
        <path id="Path_25-18" data-name="Path 25" d="M6.207,46.427A6.013,6.013,0,0,1,0,40.629v-.85a6.013,6.013,0,0,1,6.207-5.8,6.013,6.013,0,0,1,6.207,5.8v.85A6.013,6.013,0,0,1,6.207,46.427Zm0-33.981A6.013,6.013,0,0,1,0,6.648V5.8A6.013,6.013,0,0,1,6.207,0a6.013,6.013,0,0,1,6.207,5.8v.85A6.013,6.013,0,0,1,6.207,12.446Z" transform="translate(0 0)" fill="#181818"/>
      </g>
      <g id="Group_473" data-name="Group 473" transform="translate(127.458 44.714) rotate(-90)">
        <path id="Path_23-9" data-name="Path 23" d="M6.207,46.427A6.013,6.013,0,0,1,0,40.629v-.85a6.013,6.013,0,0,1,6.207-5.8,6.013,6.013,0,0,1,6.207,5.8v.85A6.013,6.013,0,0,1,6.207,46.427Zm0-33.981A6.013,6.013,0,0,1,0,6.648V5.8A6.013,6.013,0,0,1,6.207,0a6.013,6.013,0,0,1,6.207,5.8v.85A6.013,6.013,0,0,1,6.207,12.446Z" transform="translate(32.299 0)" fill="#181818"/>
        <path id="Path_25-19" data-name="Path 25" d="M6.207,46.427A6.013,6.013,0,0,1,0,40.629v-.85a6.013,6.013,0,0,1,6.207-5.8,6.013,6.013,0,0,1,6.207,5.8v.85A6.013,6.013,0,0,1,6.207,46.427Zm0-33.981A6.013,6.013,0,0,1,0,6.648V5.8A6.013,6.013,0,0,1,6.207,0a6.013,6.013,0,0,1,6.207,5.8v.85A6.013,6.013,0,0,1,6.207,12.446Z" transform="translate(0 0)" fill="#181818"/>
      </g>
      <g id="Group_474" data-name="Group 474" transform="translate(191.187 168.862) rotate(-90)">
        <path id="Path_23-10" data-name="Path 23" d="M6.207,46.427A6.013,6.013,0,0,1,0,40.629v-.85a6.013,6.013,0,0,1,6.207-5.8,6.013,6.013,0,0,1,6.207,5.8v.85A6.013,6.013,0,0,1,6.207,46.427Zm0-33.981A6.013,6.013,0,0,1,0,6.648V5.8A6.013,6.013,0,0,1,6.207,0a6.013,6.013,0,0,1,6.207,5.8v.85A6.013,6.013,0,0,1,6.207,12.446Z" transform="translate(32.299 0)" fill="#181818"/>
        <path id="Path_25-20" data-name="Path 25" d="M6.207,46.427A6.013,6.013,0,0,1,0,40.629v-.85a6.013,6.013,0,0,1,6.207-5.8,6.013,6.013,0,0,1,6.207,5.8v.85A6.013,6.013,0,0,1,6.207,46.427Zm0-33.981A6.013,6.013,0,0,1,0,6.648V5.8A6.013,6.013,0,0,1,6.207,0a6.013,6.013,0,0,1,6.207,5.8v.85A6.013,6.013,0,0,1,6.207,12.446Z" transform="translate(0 0)" fill="#181818"/>
      </g>
      <g id="Group_475" data-name="Group 475" transform="translate(191.187 106.788) rotate(-90)">
        <path id="Path_23-11" data-name="Path 23" d="M6.207,46.427A6.013,6.013,0,0,1,0,40.629v-.85a6.013,6.013,0,0,1,6.207-5.8,6.013,6.013,0,0,1,6.207,5.8v.85A6.013,6.013,0,0,1,6.207,46.427Zm0-33.981A6.013,6.013,0,0,1,0,6.648V5.8A6.013,6.013,0,0,1,6.207,0a6.013,6.013,0,0,1,6.207,5.8v.85A6.013,6.013,0,0,1,6.207,12.446Z" transform="translate(32.299 0)" fill="#181818"/>
        <path id="Path_25-21" data-name="Path 25" d="M6.207,46.427A6.013,6.013,0,0,1,0,40.629v-.85a6.013,6.013,0,0,1,6.207-5.8,6.013,6.013,0,0,1,6.207,5.8v.85A6.013,6.013,0,0,1,6.207,46.427Zm0-33.981A6.013,6.013,0,0,1,0,6.648V5.8A6.013,6.013,0,0,1,6.207,0a6.013,6.013,0,0,1,6.207,5.8v.85A6.013,6.013,0,0,1,6.207,12.446Z" transform="translate(0 0)" fill="#181818"/>
      </g>
      <g id="Group_476" data-name="Group 476" transform="translate(191.188 44.714) rotate(-90)">
        <path id="Path_23-12" data-name="Path 23" d="M6.207,46.427A6.013,6.013,0,0,1,0,40.629v-.85a6.013,6.013,0,0,1,6.207-5.8,6.013,6.013,0,0,1,6.207,5.8v.85A6.013,6.013,0,0,1,6.207,46.427Zm0-33.981A6.013,6.013,0,0,1,0,6.648V5.8A6.013,6.013,0,0,1,6.207,0a6.013,6.013,0,0,1,6.207,5.8v.85A6.013,6.013,0,0,1,6.207,12.446Z" transform="translate(32.299 0)" fill="#181818"/>
        <path id="Path_25-22" data-name="Path 25" d="M6.207,46.427A6.013,6.013,0,0,1,0,40.629v-.85a6.013,6.013,0,0,1,6.207-5.8,6.013,6.013,0,0,1,6.207,5.8v.85A6.013,6.013,0,0,1,6.207,46.427Zm0-33.981A6.013,6.013,0,0,1,0,6.648V5.8A6.013,6.013,0,0,1,6.207,0a6.013,6.013,0,0,1,6.207,5.8v.85A6.013,6.013,0,0,1,6.207,12.446Z" transform="translate(0 0)" fill="#181818"/>
      </g>
      <g id="Group_477" data-name="Group 477" transform="translate(254.916 168.862) rotate(-90)">
        <path id="Path_23-13" data-name="Path 23" d="M6.207,46.427A6.013,6.013,0,0,1,0,40.629v-.85a6.013,6.013,0,0,1,6.207-5.8,6.013,6.013,0,0,1,6.207,5.8v.85A6.013,6.013,0,0,1,6.207,46.427Zm0-33.981A6.013,6.013,0,0,1,0,6.648V5.8A6.013,6.013,0,0,1,6.207,0a6.013,6.013,0,0,1,6.207,5.8v.85A6.013,6.013,0,0,1,6.207,12.446Z" transform="translate(32.299 0)" fill="#181818"/>
        <path id="Path_25-23" data-name="Path 25" d="M6.207,46.427A6.013,6.013,0,0,1,0,40.629v-.85a6.013,6.013,0,0,1,6.207-5.8,6.013,6.013,0,0,1,6.207,5.8v.85A6.013,6.013,0,0,1,6.207,46.427Zm0-33.981A6.013,6.013,0,0,1,0,6.648V5.8A6.013,6.013,0,0,1,6.207,0a6.013,6.013,0,0,1,6.207,5.8v.85A6.013,6.013,0,0,1,6.207,12.446Z" transform="translate(0 0)" fill="#181818"/>
      </g>
      <g id="Group_478" data-name="Group 478" transform="translate(254.916 106.788) rotate(-90)">
        <path id="Path_23-14" data-name="Path 23" d="M6.207,46.427A6.013,6.013,0,0,1,0,40.629v-.85a6.013,6.013,0,0,1,6.207-5.8,6.013,6.013,0,0,1,6.207,5.8v.85A6.013,6.013,0,0,1,6.207,46.427Zm0-33.981A6.013,6.013,0,0,1,0,6.648V5.8A6.013,6.013,0,0,1,6.207,0a6.013,6.013,0,0,1,6.207,5.8v.85A6.013,6.013,0,0,1,6.207,12.446Z" transform="translate(32.299 0)" fill="#181818"/>
        <path id="Path_25-24" data-name="Path 25" d="M6.207,46.427A6.013,6.013,0,0,1,0,40.629v-.85a6.013,6.013,0,0,1,6.207-5.8,6.013,6.013,0,0,1,6.207,5.8v.85A6.013,6.013,0,0,1,6.207,46.427Zm0-33.981A6.013,6.013,0,0,1,0,6.648V5.8A6.013,6.013,0,0,1,6.207,0a6.013,6.013,0,0,1,6.207,5.8v.85A6.013,6.013,0,0,1,6.207,12.446Z" transform="translate(0 0)" fill="#181818"/>
      </g>
      <g id="Group_479" data-name="Group 479" transform="translate(254.917 44.714) rotate(-90)">
        <path id="Path_23-15" data-name="Path 23" d="M6.207,46.427A6.013,6.013,0,0,1,0,40.629v-.85a6.013,6.013,0,0,1,6.207-5.8,6.013,6.013,0,0,1,6.207,5.8v.85A6.013,6.013,0,0,1,6.207,46.427Zm0-33.981A6.013,6.013,0,0,1,0,6.648V5.8A6.013,6.013,0,0,1,6.207,0a6.013,6.013,0,0,1,6.207,5.8v.85A6.013,6.013,0,0,1,6.207,12.446Z" transform="translate(32.299 0)" fill="#181818"/>
        <path id="Path_25-25" data-name="Path 25" d="M6.207,46.427A6.013,6.013,0,0,1,0,40.629v-.85a6.013,6.013,0,0,1,6.207-5.8,6.013,6.013,0,0,1,6.207,5.8v.85A6.013,6.013,0,0,1,6.207,46.427Zm0-33.981A6.013,6.013,0,0,1,0,6.648V5.8A6.013,6.013,0,0,1,6.207,0a6.013,6.013,0,0,1,6.207,5.8v.85A6.013,6.013,0,0,1,6.207,12.446Z" transform="translate(0 0)" fill="#181818"/>
      </g>
      <g id="Group_480" data-name="Group 480" transform="translate(318.645 168.862) rotate(-90)">
        <path id="Path_23-16" data-name="Path 23" d="M6.207,46.427A6.013,6.013,0,0,1,0,40.629v-.85a6.013,6.013,0,0,1,6.207-5.8,6.013,6.013,0,0,1,6.207,5.8v.85A6.013,6.013,0,0,1,6.207,46.427Zm0-33.981A6.013,6.013,0,0,1,0,6.648V5.8A6.013,6.013,0,0,1,6.207,0a6.013,6.013,0,0,1,6.207,5.8v.85A6.013,6.013,0,0,1,6.207,12.446Z" transform="translate(32.299 0)" fill="#181818"/>
        <path id="Path_25-26" data-name="Path 25" d="M6.207,46.427A6.013,6.013,0,0,1,0,40.629v-.85a6.013,6.013,0,0,1,6.207-5.8,6.013,6.013,0,0,1,6.207,5.8v.85A6.013,6.013,0,0,1,6.207,46.427Zm0-33.981A6.013,6.013,0,0,1,0,6.648V5.8A6.013,6.013,0,0,1,6.207,0a6.013,6.013,0,0,1,6.207,5.8v.85A6.013,6.013,0,0,1,6.207,12.446Z" transform="translate(0 0)" fill="#181818"/>
      </g>
      <g id="Group_481" data-name="Group 481" transform="translate(318.645 106.788) rotate(-90)">
        <path id="Path_23-17" data-name="Path 23" d="M6.207,46.427A6.013,6.013,0,0,1,0,40.629v-.85a6.013,6.013,0,0,1,6.207-5.8,6.013,6.013,0,0,1,6.207,5.8v.85A6.013,6.013,0,0,1,6.207,46.427Zm0-33.981A6.013,6.013,0,0,1,0,6.648V5.8A6.013,6.013,0,0,1,6.207,0a6.013,6.013,0,0,1,6.207,5.8v.85A6.013,6.013,0,0,1,6.207,12.446Z" transform="translate(32.299 0)" fill="#181818"/>
        <path id="Path_25-27" data-name="Path 25" d="M6.207,46.427A6.013,6.013,0,0,1,0,40.629v-.85a6.013,6.013,0,0,1,6.207-5.8,6.013,6.013,0,0,1,6.207,5.8v.85A6.013,6.013,0,0,1,6.207,46.427Zm0-33.981A6.013,6.013,0,0,1,0,6.648V5.8A6.013,6.013,0,0,1,6.207,0a6.013,6.013,0,0,1,6.207,5.8v.85A6.013,6.013,0,0,1,6.207,12.446Z" transform="translate(0 0)" fill="#181818"/>
      </g>
      <g id="Group_482" data-name="Group 482" transform="translate(318.645 44.714) rotate(-90)">
        <path id="Path_23-18" data-name="Path 23" d="M6.207,46.427A6.013,6.013,0,0,1,0,40.629v-.85a6.013,6.013,0,0,1,6.207-5.8,6.013,6.013,0,0,1,6.207,5.8v.85A6.013,6.013,0,0,1,6.207,46.427Zm0-33.981A6.013,6.013,0,0,1,0,6.648V5.8A6.013,6.013,0,0,1,6.207,0a6.013,6.013,0,0,1,6.207,5.8v.85A6.013,6.013,0,0,1,6.207,12.446Z" transform="translate(32.299 0)" fill="#181818"/>
        <path id="Path_25-28" data-name="Path 25" d="M6.207,46.427A6.013,6.013,0,0,1,0,40.629v-.85a6.013,6.013,0,0,1,6.207-5.8,6.013,6.013,0,0,1,6.207,5.8v.85A6.013,6.013,0,0,1,6.207,46.427Zm0-33.981A6.013,6.013,0,0,1,0,6.648V5.8A6.013,6.013,0,0,1,6.207,0a6.013,6.013,0,0,1,6.207,5.8v.85A6.013,6.013,0,0,1,6.207,12.446Z" transform="translate(0 0)" fill="#181818"/>
      </g>
    </g>
    <g id="Puntjes-3" data-name="Puntjes" transform="translate(0 190.328)">
      <g id="Group_465-2" data-name="Group 465" transform="translate(0.001 168.862) rotate(-90)">
        <path id="Path_23-19" data-name="Path 23" d="M6.207,46.427A6.013,6.013,0,0,1,0,40.629v-.85a6.013,6.013,0,0,1,6.207-5.8,6.013,6.013,0,0,1,6.207,5.8v.85A6.013,6.013,0,0,1,6.207,46.427Zm0-33.981A6.013,6.013,0,0,1,0,6.648V5.8A6.013,6.013,0,0,1,6.207,0a6.013,6.013,0,0,1,6.207,5.8v.85A6.013,6.013,0,0,1,6.207,12.446Z" transform="translate(32.299)" fill="#181818"/>
        <path id="Path_25-29" data-name="Path 25" d="M6.207,46.427A6.013,6.013,0,0,1,0,40.629v-.85a6.013,6.013,0,0,1,6.207-5.8,6.013,6.013,0,0,1,6.207,5.8v.85A6.013,6.013,0,0,1,6.207,46.427Zm0-33.981A6.013,6.013,0,0,1,0,6.648V5.8A6.013,6.013,0,0,1,6.207,0a6.013,6.013,0,0,1,6.207,5.8v.85A6.013,6.013,0,0,1,6.207,12.446Z" fill="#181818"/>
      </g>
      <g id="Group_466-2" data-name="Group 466" transform="translate(0 106.788) rotate(-90)">
        <path id="Path_23-20" data-name="Path 23" d="M6.207,46.427A6.013,6.013,0,0,1,0,40.629v-.85a6.013,6.013,0,0,1,6.207-5.8,6.013,6.013,0,0,1,6.207,5.8v.85A6.013,6.013,0,0,1,6.207,46.427Zm0-33.981A6.013,6.013,0,0,1,0,6.648V5.8A6.013,6.013,0,0,1,6.207,0a6.013,6.013,0,0,1,6.207,5.8v.85A6.013,6.013,0,0,1,6.207,12.446Z" transform="translate(32.299)" fill="#181818"/>
        <path id="Path_25-30" data-name="Path 25" d="M6.207,46.427A6.013,6.013,0,0,1,0,40.629v-.85a6.013,6.013,0,0,1,6.207-5.8,6.013,6.013,0,0,1,6.207,5.8v.85A6.013,6.013,0,0,1,6.207,46.427Zm0-33.981A6.013,6.013,0,0,1,0,6.648V5.8A6.013,6.013,0,0,1,6.207,0a6.013,6.013,0,0,1,6.207,5.8v.85A6.013,6.013,0,0,1,6.207,12.446Z" fill="#181818"/>
      </g>
      <g id="Group_467-2" data-name="Group 467" transform="translate(0.001 44.714) rotate(-90)">
        <path id="Path_23-21" data-name="Path 23" d="M6.207,46.427A6.013,6.013,0,0,1,0,40.629v-.85a6.013,6.013,0,0,1,6.207-5.8,6.013,6.013,0,0,1,6.207,5.8v.85A6.013,6.013,0,0,1,6.207,46.427Zm0-33.981A6.013,6.013,0,0,1,0,6.648V5.8A6.013,6.013,0,0,1,6.207,0a6.013,6.013,0,0,1,6.207,5.8v.85A6.013,6.013,0,0,1,6.207,12.446Z" transform="translate(32.299)" fill="#181818"/>
        <path id="Path_25-31" data-name="Path 25" d="M6.207,46.427A6.013,6.013,0,0,1,0,40.629v-.85a6.013,6.013,0,0,1,6.207-5.8,6.013,6.013,0,0,1,6.207,5.8v.85A6.013,6.013,0,0,1,6.207,46.427Zm0-33.981A6.013,6.013,0,0,1,0,6.648V5.8A6.013,6.013,0,0,1,6.207,0a6.013,6.013,0,0,1,6.207,5.8v.85A6.013,6.013,0,0,1,6.207,12.446Z" fill="#181818"/>
      </g>
      <g id="Group_468-2" data-name="Group 468" transform="translate(63.729 168.862) rotate(-90)">
        <path id="Path_23-22" data-name="Path 23" d="M6.207,46.427A6.013,6.013,0,0,1,0,40.629v-.85a6.013,6.013,0,0,1,6.207-5.8,6.013,6.013,0,0,1,6.207,5.8v.85A6.013,6.013,0,0,1,6.207,46.427Zm0-33.981A6.013,6.013,0,0,1,0,6.648V5.8A6.013,6.013,0,0,1,6.207,0a6.013,6.013,0,0,1,6.207,5.8v.85A6.013,6.013,0,0,1,6.207,12.446Z" transform="translate(32.299 0)" fill="#181818"/>
        <path id="Path_25-32" data-name="Path 25" d="M6.207,46.427A6.013,6.013,0,0,1,0,40.629v-.85a6.013,6.013,0,0,1,6.207-5.8,6.013,6.013,0,0,1,6.207,5.8v.85A6.013,6.013,0,0,1,6.207,46.427Zm0-33.981A6.013,6.013,0,0,1,0,6.648V5.8A6.013,6.013,0,0,1,6.207,0a6.013,6.013,0,0,1,6.207,5.8v.85A6.013,6.013,0,0,1,6.207,12.446Z" transform="translate(0 0)" fill="#181818"/>
      </g>
      <g id="Group_469-2" data-name="Group 469" transform="translate(63.729 106.788) rotate(-90)">
        <path id="Path_23-23" data-name="Path 23" d="M6.207,46.427A6.013,6.013,0,0,1,0,40.629v-.85a6.013,6.013,0,0,1,6.207-5.8,6.013,6.013,0,0,1,6.207,5.8v.85A6.013,6.013,0,0,1,6.207,46.427Zm0-33.981A6.013,6.013,0,0,1,0,6.648V5.8A6.013,6.013,0,0,1,6.207,0a6.013,6.013,0,0,1,6.207,5.8v.85A6.013,6.013,0,0,1,6.207,12.446Z" transform="translate(32.299 0)" fill="#181818"/>
        <path id="Path_25-33" data-name="Path 25" d="M6.207,46.427A6.013,6.013,0,0,1,0,40.629v-.85a6.013,6.013,0,0,1,6.207-5.8,6.013,6.013,0,0,1,6.207,5.8v.85A6.013,6.013,0,0,1,6.207,46.427Zm0-33.981A6.013,6.013,0,0,1,0,6.648V5.8A6.013,6.013,0,0,1,6.207,0a6.013,6.013,0,0,1,6.207,5.8v.85A6.013,6.013,0,0,1,6.207,12.446Z" transform="translate(0 0)" fill="#181818"/>
      </g>
      <g id="Group_470-2" data-name="Group 470" transform="translate(63.729 44.714) rotate(-90)">
        <path id="Path_23-24" data-name="Path 23" d="M6.207,46.427A6.013,6.013,0,0,1,0,40.629v-.85a6.013,6.013,0,0,1,6.207-5.8,6.013,6.013,0,0,1,6.207,5.8v.85A6.013,6.013,0,0,1,6.207,46.427Zm0-33.981A6.013,6.013,0,0,1,0,6.648V5.8A6.013,6.013,0,0,1,6.207,0a6.013,6.013,0,0,1,6.207,5.8v.85A6.013,6.013,0,0,1,6.207,12.446Z" transform="translate(32.299 0)" fill="#181818"/>
        <path id="Path_25-34" data-name="Path 25" d="M6.207,46.427A6.013,6.013,0,0,1,0,40.629v-.85a6.013,6.013,0,0,1,6.207-5.8,6.013,6.013,0,0,1,6.207,5.8v.85A6.013,6.013,0,0,1,6.207,46.427Zm0-33.981A6.013,6.013,0,0,1,0,6.648V5.8A6.013,6.013,0,0,1,6.207,0a6.013,6.013,0,0,1,6.207,5.8v.85A6.013,6.013,0,0,1,6.207,12.446Z" transform="translate(0 0)" fill="#181818"/>
      </g>
      <g id="Group_471-2" data-name="Group 471" transform="translate(127.458 168.862) rotate(-90)">
        <path id="Path_23-25" data-name="Path 23" d="M6.207,46.427A6.013,6.013,0,0,1,0,40.629v-.85a6.013,6.013,0,0,1,6.207-5.8,6.013,6.013,0,0,1,6.207,5.8v.85A6.013,6.013,0,0,1,6.207,46.427Zm0-33.981A6.013,6.013,0,0,1,0,6.648V5.8A6.013,6.013,0,0,1,6.207,0a6.013,6.013,0,0,1,6.207,5.8v.85A6.013,6.013,0,0,1,6.207,12.446Z" transform="translate(32.299 0)" fill="#181818"/>
        <path id="Path_25-35" data-name="Path 25" d="M6.207,46.427A6.013,6.013,0,0,1,0,40.629v-.85a6.013,6.013,0,0,1,6.207-5.8,6.013,6.013,0,0,1,6.207,5.8v.85A6.013,6.013,0,0,1,6.207,46.427Zm0-33.981A6.013,6.013,0,0,1,0,6.648V5.8A6.013,6.013,0,0,1,6.207,0a6.013,6.013,0,0,1,6.207,5.8v.85A6.013,6.013,0,0,1,6.207,12.446Z" transform="translate(0 0)" fill="#181818"/>
      </g>
      <g id="Group_472-2" data-name="Group 472" transform="translate(127.458 106.788) rotate(-90)">
        <path id="Path_23-26" data-name="Path 23" d="M6.207,46.427A6.013,6.013,0,0,1,0,40.629v-.85a6.013,6.013,0,0,1,6.207-5.8,6.013,6.013,0,0,1,6.207,5.8v.85A6.013,6.013,0,0,1,6.207,46.427Zm0-33.981A6.013,6.013,0,0,1,0,6.648V5.8A6.013,6.013,0,0,1,6.207,0a6.013,6.013,0,0,1,6.207,5.8v.85A6.013,6.013,0,0,1,6.207,12.446Z" transform="translate(32.299 0)" fill="#181818"/>
        <path id="Path_25-36" data-name="Path 25" d="M6.207,46.427A6.013,6.013,0,0,1,0,40.629v-.85a6.013,6.013,0,0,1,6.207-5.8,6.013,6.013,0,0,1,6.207,5.8v.85A6.013,6.013,0,0,1,6.207,46.427Zm0-33.981A6.013,6.013,0,0,1,0,6.648V5.8A6.013,6.013,0,0,1,6.207,0a6.013,6.013,0,0,1,6.207,5.8v.85A6.013,6.013,0,0,1,6.207,12.446Z" transform="translate(0 0)" fill="#181818"/>
      </g>
      <g id="Group_473-2" data-name="Group 473" transform="translate(127.458 44.714) rotate(-90)">
        <path id="Path_23-27" data-name="Path 23" d="M6.207,46.427A6.013,6.013,0,0,1,0,40.629v-.85a6.013,6.013,0,0,1,6.207-5.8,6.013,6.013,0,0,1,6.207,5.8v.85A6.013,6.013,0,0,1,6.207,46.427Zm0-33.981A6.013,6.013,0,0,1,0,6.648V5.8A6.013,6.013,0,0,1,6.207,0a6.013,6.013,0,0,1,6.207,5.8v.85A6.013,6.013,0,0,1,6.207,12.446Z" transform="translate(32.299 0)" fill="#181818"/>
        <path id="Path_25-37" data-name="Path 25" d="M6.207,46.427A6.013,6.013,0,0,1,0,40.629v-.85a6.013,6.013,0,0,1,6.207-5.8,6.013,6.013,0,0,1,6.207,5.8v.85A6.013,6.013,0,0,1,6.207,46.427Zm0-33.981A6.013,6.013,0,0,1,0,6.648V5.8A6.013,6.013,0,0,1,6.207,0a6.013,6.013,0,0,1,6.207,5.8v.85A6.013,6.013,0,0,1,6.207,12.446Z" transform="translate(0 0)" fill="#181818"/>
      </g>
      <g id="Group_474-2" data-name="Group 474" transform="translate(191.187 168.862) rotate(-90)">
        <path id="Path_23-28" data-name="Path 23" d="M6.207,46.427A6.013,6.013,0,0,1,0,40.629v-.85a6.013,6.013,0,0,1,6.207-5.8,6.013,6.013,0,0,1,6.207,5.8v.85A6.013,6.013,0,0,1,6.207,46.427Zm0-33.981A6.013,6.013,0,0,1,0,6.648V5.8A6.013,6.013,0,0,1,6.207,0a6.013,6.013,0,0,1,6.207,5.8v.85A6.013,6.013,0,0,1,6.207,12.446Z" transform="translate(32.299 0)" fill="#181818"/>
        <path id="Path_25-38" data-name="Path 25" d="M6.207,46.427A6.013,6.013,0,0,1,0,40.629v-.85a6.013,6.013,0,0,1,6.207-5.8,6.013,6.013,0,0,1,6.207,5.8v.85A6.013,6.013,0,0,1,6.207,46.427Zm0-33.981A6.013,6.013,0,0,1,0,6.648V5.8A6.013,6.013,0,0,1,6.207,0a6.013,6.013,0,0,1,6.207,5.8v.85A6.013,6.013,0,0,1,6.207,12.446Z" transform="translate(0 0)" fill="#181818"/>
      </g>
      <g id="Group_475-2" data-name="Group 475" transform="translate(191.187 106.788) rotate(-90)">
        <path id="Path_23-29" data-name="Path 23" d="M6.207,46.427A6.013,6.013,0,0,1,0,40.629v-.85a6.013,6.013,0,0,1,6.207-5.8,6.013,6.013,0,0,1,6.207,5.8v.85A6.013,6.013,0,0,1,6.207,46.427Zm0-33.981A6.013,6.013,0,0,1,0,6.648V5.8A6.013,6.013,0,0,1,6.207,0a6.013,6.013,0,0,1,6.207,5.8v.85A6.013,6.013,0,0,1,6.207,12.446Z" transform="translate(32.299 0)" fill="#181818"/>
        <path id="Path_25-39" data-name="Path 25" d="M6.207,46.427A6.013,6.013,0,0,1,0,40.629v-.85a6.013,6.013,0,0,1,6.207-5.8,6.013,6.013,0,0,1,6.207,5.8v.85A6.013,6.013,0,0,1,6.207,46.427Zm0-33.981A6.013,6.013,0,0,1,0,6.648V5.8A6.013,6.013,0,0,1,6.207,0a6.013,6.013,0,0,1,6.207,5.8v.85A6.013,6.013,0,0,1,6.207,12.446Z" transform="translate(0 0)" fill="#181818"/>
      </g>
      <g id="Group_476-2" data-name="Group 476" transform="translate(191.188 44.714) rotate(-90)">
        <path id="Path_23-30" data-name="Path 23" d="M6.207,46.427A6.013,6.013,0,0,1,0,40.629v-.85a6.013,6.013,0,0,1,6.207-5.8,6.013,6.013,0,0,1,6.207,5.8v.85A6.013,6.013,0,0,1,6.207,46.427Zm0-33.981A6.013,6.013,0,0,1,0,6.648V5.8A6.013,6.013,0,0,1,6.207,0a6.013,6.013,0,0,1,6.207,5.8v.85A6.013,6.013,0,0,1,6.207,12.446Z" transform="translate(32.299 0)" fill="#181818"/>
        <path id="Path_25-40" data-name="Path 25" d="M6.207,46.427A6.013,6.013,0,0,1,0,40.629v-.85a6.013,6.013,0,0,1,6.207-5.8,6.013,6.013,0,0,1,6.207,5.8v.85A6.013,6.013,0,0,1,6.207,46.427Zm0-33.981A6.013,6.013,0,0,1,0,6.648V5.8A6.013,6.013,0,0,1,6.207,0a6.013,6.013,0,0,1,6.207,5.8v.85A6.013,6.013,0,0,1,6.207,12.446Z" transform="translate(0 0)" fill="#181818"/>
      </g>
      <g id="Group_477-2" data-name="Group 477" transform="translate(254.916 168.862) rotate(-90)">
        <path id="Path_23-31" data-name="Path 23" d="M6.207,46.427A6.013,6.013,0,0,1,0,40.629v-.85a6.013,6.013,0,0,1,6.207-5.8,6.013,6.013,0,0,1,6.207,5.8v.85A6.013,6.013,0,0,1,6.207,46.427Zm0-33.981A6.013,6.013,0,0,1,0,6.648V5.8A6.013,6.013,0,0,1,6.207,0a6.013,6.013,0,0,1,6.207,5.8v.85A6.013,6.013,0,0,1,6.207,12.446Z" transform="translate(32.299 0)" fill="#181818"/>
        <path id="Path_25-41" data-name="Path 25" d="M6.207,46.427A6.013,6.013,0,0,1,0,40.629v-.85a6.013,6.013,0,0,1,6.207-5.8,6.013,6.013,0,0,1,6.207,5.8v.85A6.013,6.013,0,0,1,6.207,46.427Zm0-33.981A6.013,6.013,0,0,1,0,6.648V5.8A6.013,6.013,0,0,1,6.207,0a6.013,6.013,0,0,1,6.207,5.8v.85A6.013,6.013,0,0,1,6.207,12.446Z" transform="translate(0 0)" fill="#181818"/>
      </g>
      <g id="Group_478-2" data-name="Group 478" transform="translate(254.916 106.788) rotate(-90)">
        <path id="Path_23-32" data-name="Path 23" d="M6.207,46.427A6.013,6.013,0,0,1,0,40.629v-.85a6.013,6.013,0,0,1,6.207-5.8,6.013,6.013,0,0,1,6.207,5.8v.85A6.013,6.013,0,0,1,6.207,46.427Zm0-33.981A6.013,6.013,0,0,1,0,6.648V5.8A6.013,6.013,0,0,1,6.207,0a6.013,6.013,0,0,1,6.207,5.8v.85A6.013,6.013,0,0,1,6.207,12.446Z" transform="translate(32.299 0)" fill="#181818"/>
        <path id="Path_25-42" data-name="Path 25" d="M6.207,46.427A6.013,6.013,0,0,1,0,40.629v-.85a6.013,6.013,0,0,1,6.207-5.8,6.013,6.013,0,0,1,6.207,5.8v.85A6.013,6.013,0,0,1,6.207,46.427Zm0-33.981A6.013,6.013,0,0,1,0,6.648V5.8A6.013,6.013,0,0,1,6.207,0a6.013,6.013,0,0,1,6.207,5.8v.85A6.013,6.013,0,0,1,6.207,12.446Z" transform="translate(0 0)" fill="#181818"/>
      </g>
      <g id="Group_479-2" data-name="Group 479" transform="translate(254.917 44.714) rotate(-90)">
        <path id="Path_23-33" data-name="Path 23" d="M6.207,46.427A6.013,6.013,0,0,1,0,40.629v-.85a6.013,6.013,0,0,1,6.207-5.8,6.013,6.013,0,0,1,6.207,5.8v.85A6.013,6.013,0,0,1,6.207,46.427Zm0-33.981A6.013,6.013,0,0,1,0,6.648V5.8A6.013,6.013,0,0,1,6.207,0a6.013,6.013,0,0,1,6.207,5.8v.85A6.013,6.013,0,0,1,6.207,12.446Z" transform="translate(32.299 0)" fill="#181818"/>
        <path id="Path_25-43" data-name="Path 25" d="M6.207,46.427A6.013,6.013,0,0,1,0,40.629v-.85a6.013,6.013,0,0,1,6.207-5.8,6.013,6.013,0,0,1,6.207,5.8v.85A6.013,6.013,0,0,1,6.207,46.427Zm0-33.981A6.013,6.013,0,0,1,0,6.648V5.8A6.013,6.013,0,0,1,6.207,0a6.013,6.013,0,0,1,6.207,5.8v.85A6.013,6.013,0,0,1,6.207,12.446Z" transform="translate(0 0)" fill="#181818"/>
      </g>
      <g id="Group_480-2" data-name="Group 480" transform="translate(318.645 168.862) rotate(-90)">
        <path id="Path_23-34" data-name="Path 23" d="M6.207,46.427A6.013,6.013,0,0,1,0,40.629v-.85a6.013,6.013,0,0,1,6.207-5.8,6.013,6.013,0,0,1,6.207,5.8v.85A6.013,6.013,0,0,1,6.207,46.427Zm0-33.981A6.013,6.013,0,0,1,0,6.648V5.8A6.013,6.013,0,0,1,6.207,0a6.013,6.013,0,0,1,6.207,5.8v.85A6.013,6.013,0,0,1,6.207,12.446Z" transform="translate(32.299 0)" fill="#181818"/>
        <path id="Path_25-44" data-name="Path 25" d="M6.207,46.427A6.013,6.013,0,0,1,0,40.629v-.85a6.013,6.013,0,0,1,6.207-5.8,6.013,6.013,0,0,1,6.207,5.8v.85A6.013,6.013,0,0,1,6.207,46.427Zm0-33.981A6.013,6.013,0,0,1,0,6.648V5.8A6.013,6.013,0,0,1,6.207,0a6.013,6.013,0,0,1,6.207,5.8v.85A6.013,6.013,0,0,1,6.207,12.446Z" transform="translate(0 0)" fill="#181818"/>
      </g>
      <g id="Group_481-2" data-name="Group 481" transform="translate(318.645 106.788) rotate(-90)">
        <path id="Path_23-35" data-name="Path 23" d="M6.207,46.427A6.013,6.013,0,0,1,0,40.629v-.85a6.013,6.013,0,0,1,6.207-5.8,6.013,6.013,0,0,1,6.207,5.8v.85A6.013,6.013,0,0,1,6.207,46.427Zm0-33.981A6.013,6.013,0,0,1,0,6.648V5.8A6.013,6.013,0,0,1,6.207,0a6.013,6.013,0,0,1,6.207,5.8v.85A6.013,6.013,0,0,1,6.207,12.446Z" transform="translate(32.299 0)" fill="#181818"/>
        <path id="Path_25-45" data-name="Path 25" d="M6.207,46.427A6.013,6.013,0,0,1,0,40.629v-.85a6.013,6.013,0,0,1,6.207-5.8,6.013,6.013,0,0,1,6.207,5.8v.85A6.013,6.013,0,0,1,6.207,46.427Zm0-33.981A6.013,6.013,0,0,1,0,6.648V5.8A6.013,6.013,0,0,1,6.207,0a6.013,6.013,0,0,1,6.207,5.8v.85A6.013,6.013,0,0,1,6.207,12.446Z" transform="translate(0 0)" fill="#181818"/>
      </g>
      <g id="Group_482-2" data-name="Group 482" transform="translate(318.645 44.714) rotate(-90)">
        <path id="Path_23-36" data-name="Path 23" d="M6.207,46.427A6.013,6.013,0,0,1,0,40.629v-.85a6.013,6.013,0,0,1,6.207-5.8,6.013,6.013,0,0,1,6.207,5.8v.85A6.013,6.013,0,0,1,6.207,46.427Zm0-33.981A6.013,6.013,0,0,1,0,6.648V5.8A6.013,6.013,0,0,1,6.207,0a6.013,6.013,0,0,1,6.207,5.8v.85A6.013,6.013,0,0,1,6.207,12.446Z" transform="translate(32.299 0)" fill="#181818"/>
        <path id="Path_25-46" data-name="Path 25" d="M6.207,46.427A6.013,6.013,0,0,1,0,40.629v-.85a6.013,6.013,0,0,1,6.207-5.8,6.013,6.013,0,0,1,6.207,5.8v.85A6.013,6.013,0,0,1,6.207,46.427Zm0-33.981A6.013,6.013,0,0,1,0,6.648V5.8A6.013,6.013,0,0,1,6.207,0a6.013,6.013,0,0,1,6.207,5.8v.85A6.013,6.013,0,0,1,6.207,12.446Z" transform="translate(0 0)" fill="#181818"/>
      </g>
    </g>
  </g>
</svg>
