<svg xmlns="http://www.w3.org/2000/svg" width="589.771" height="548.913" viewBox="0 0 589.771 548.913">
  <g id="Puntjes" transform="translate(0)" opacity="0.101">
    <g id="Eenling_puntjes" data-name="Eenling puntjes" transform="translate(0 0)">
      <path id="Path_25" data-name="Path 25" d="M7.981,16A7.731,7.731,0,0,1,0,8.547V7.454A7.731,7.731,0,0,1,7.981,0a7.731,7.731,0,0,1,7.981,7.454V8.547A7.731,7.731,0,0,1,7.981,16Z" transform="translate(181.074 43.559) rotate(90)" fill="#181818"/>
      <path id="Path_25-2" data-name="Path 25" d="M7.981,16A7.731,7.731,0,0,1,0,8.547V7.454A7.731,7.731,0,0,1,7.981,0a7.731,7.731,0,0,1,7.981,7.454V8.547A7.731,7.731,0,0,1,7.981,16Z" transform="translate(98.538 288.256) rotate(90)" fill="#181818"/>
      <path id="Path_25-3" data-name="Path 25" d="M7.981,16A7.731,7.731,0,0,1,0,8.547V7.454A7.731,7.731,0,0,1,7.981,0a7.731,7.731,0,0,1,7.981,7.454V8.547A7.731,7.731,0,0,1,7.981,16Z" transform="translate(219.915) rotate(90)" fill="#181818"/>
      <path id="Path_25-4" data-name="Path 25" d="M7.981,16A7.731,7.731,0,0,1,0,8.547V7.454A7.731,7.731,0,0,1,7.981,0a7.731,7.731,0,0,1,7.981,7.454V8.547A7.731,7.731,0,0,1,7.981,16Z" transform="translate(219.915 43.559) rotate(90)" fill="#181818"/>
      <path id="Path_25-5" data-name="Path 25" d="M7.981,16A7.731,7.731,0,0,1,0,8.547V7.454A7.731,7.731,0,0,1,7.981,0a7.731,7.731,0,0,1,7.981,7.454V8.547A7.731,7.731,0,0,1,7.981,16Z" transform="translate(258.756) rotate(90)" fill="#181818"/>
      <path id="Path_25-6" data-name="Path 25" d="M7.981,16A7.731,7.731,0,0,1,0,8.547V7.454A7.731,7.731,0,0,1,7.981,0a7.731,7.731,0,0,1,7.981,7.454V8.547A7.731,7.731,0,0,1,7.981,16Z" transform="translate(219.915) rotate(90)" fill="#181818"/>
      <path id="Path_25-7" data-name="Path 25" d="M7.981,16A7.731,7.731,0,0,1,0,8.547V7.454A7.731,7.731,0,0,1,7.981,0a7.731,7.731,0,0,1,7.981,7.454V8.547A7.731,7.731,0,0,1,7.981,16Z" transform="translate(16.001 411.711) rotate(90)" fill="#181818"/>
      <path id="Path_25-8" data-name="Path 25" d="M7.981,16A7.731,7.731,0,0,1,0,8.547V7.454A7.731,7.731,0,0,1,7.981,0a7.731,7.731,0,0,1,7.981,7.454V8.547A7.731,7.731,0,0,1,7.981,16Z" transform="translate(16.001 453.465) rotate(90)" fill="#181818"/>
      <path id="Path_25-9" data-name="Path 25" d="M7.981,16A7.731,7.731,0,0,1,0,8.547V7.454A7.731,7.731,0,0,1,7.981,0a7.731,7.731,0,0,1,7.981,7.454V8.547A7.731,7.731,0,0,1,7.981,16Z" transform="translate(425.771 43.559) rotate(90)" fill="#181818"/>
      <path id="Path_25-10" data-name="Path 25" d="M7.981,16A7.731,7.731,0,0,1,0,8.547V7.454A7.731,7.731,0,0,1,7.981,0a7.731,7.731,0,0,1,7.981,7.454V8.547A7.731,7.731,0,0,1,7.981,16Z" transform="translate(384.017 43.559) rotate(90)" fill="#181818"/>
    </g>
    <g id="Puntjes-2" data-name="Puntjes" transform="translate(38.848 331.815)">
      <g id="Group_465" data-name="Group 465" transform="translate(469.357) rotate(90)">
        <path id="Path_23" data-name="Path 23" d="M7.981,59.689A7.731,7.731,0,0,1,0,52.235V51.142a7.731,7.731,0,0,1,7.981-7.454,7.731,7.731,0,0,1,7.981,7.454v1.093A7.731,7.731,0,0,1,7.981,59.689ZM7.981,16A7.731,7.731,0,0,1,0,8.547V7.454A7.731,7.731,0,0,1,7.981,0a7.731,7.731,0,0,1,7.981,7.454V8.547A7.731,7.731,0,0,1,7.981,16Z" transform="translate(41.526 0)" fill="#181818"/>
        <path id="Path_25-11" data-name="Path 25" d="M7.981,59.689A7.731,7.731,0,0,1,0,52.235V51.142a7.731,7.731,0,0,1,7.981-7.454,7.731,7.731,0,0,1,7.981,7.454v1.093A7.731,7.731,0,0,1,7.981,59.689ZM7.981,16A7.731,7.731,0,0,1,0,8.547V7.454A7.731,7.731,0,0,1,7.981,0a7.731,7.731,0,0,1,7.981,7.454V8.547A7.731,7.731,0,0,1,7.981,16Z" transform="translate(0 0)" fill="#181818"/>
      </g>
      <g id="Group_466" data-name="Group 466" transform="translate(469.357 79.805) rotate(90)">
        <path id="Path_23-2" data-name="Path 23" d="M7.981,59.689A7.731,7.731,0,0,1,0,52.235V51.142a7.731,7.731,0,0,1,7.981-7.454,7.731,7.731,0,0,1,7.981,7.454v1.093A7.731,7.731,0,0,1,7.981,59.689ZM7.981,16A7.731,7.731,0,0,1,0,8.547V7.454A7.731,7.731,0,0,1,7.981,0a7.731,7.731,0,0,1,7.981,7.454V8.547A7.731,7.731,0,0,1,7.981,16Z" transform="translate(41.526 0)" fill="#181818"/>
        <path id="Path_25-12" data-name="Path 25" d="M7.981,59.689A7.731,7.731,0,0,1,0,52.235V51.142a7.731,7.731,0,0,1,7.981-7.454,7.731,7.731,0,0,1,7.981,7.454v1.093A7.731,7.731,0,0,1,7.981,59.689ZM7.981,16A7.731,7.731,0,0,1,0,8.547V7.454A7.731,7.731,0,0,1,7.981,0a7.731,7.731,0,0,1,7.981,7.454V8.547A7.731,7.731,0,0,1,7.981,16Z" transform="translate(0 0)" fill="#181818"/>
      </g>
      <g id="Group_467" data-name="Group 467" transform="translate(469.357 159.611) rotate(90)">
        <path id="Path_23-3" data-name="Path 23" d="M7.981,59.689A7.731,7.731,0,0,1,0,52.235V51.142a7.731,7.731,0,0,1,7.981-7.454,7.731,7.731,0,0,1,7.981,7.454v1.093A7.731,7.731,0,0,1,7.981,59.689ZM7.981,16A7.731,7.731,0,0,1,0,8.547V7.454A7.731,7.731,0,0,1,7.981,0a7.731,7.731,0,0,1,7.981,7.454V8.547A7.731,7.731,0,0,1,7.981,16Z" transform="translate(41.526 0)" fill="#181818"/>
        <path id="Path_25-13" data-name="Path 25" d="M7.981,59.689A7.731,7.731,0,0,1,0,52.235V51.142a7.731,7.731,0,0,1,7.981-7.454,7.731,7.731,0,0,1,7.981,7.454v1.093A7.731,7.731,0,0,1,7.981,59.689ZM7.981,16A7.731,7.731,0,0,1,0,8.547V7.454A7.731,7.731,0,0,1,7.981,0a7.731,7.731,0,0,1,7.981,7.454V8.547A7.731,7.731,0,0,1,7.981,16Z" transform="translate(0 0)" fill="#181818"/>
      </g>
      <g id="Group_468" data-name="Group 468" transform="translate(387.424) rotate(90)">
        <path id="Path_23-4" data-name="Path 23" d="M7.981,59.689A7.731,7.731,0,0,1,0,52.235V51.142a7.731,7.731,0,0,1,7.981-7.454,7.731,7.731,0,0,1,7.981,7.454v1.093A7.731,7.731,0,0,1,7.981,59.689ZM7.981,16A7.731,7.731,0,0,1,0,8.547V7.454A7.731,7.731,0,0,1,7.981,0a7.731,7.731,0,0,1,7.981,7.454V8.547A7.731,7.731,0,0,1,7.981,16Z" transform="translate(41.526 0)" fill="#181818"/>
        <path id="Path_25-14" data-name="Path 25" d="M7.981,59.689A7.731,7.731,0,0,1,0,52.235V51.142a7.731,7.731,0,0,1,7.981-7.454,7.731,7.731,0,0,1,7.981,7.454v1.093A7.731,7.731,0,0,1,7.981,59.689ZM7.981,16A7.731,7.731,0,0,1,0,8.547V7.454A7.731,7.731,0,0,1,7.981,0a7.731,7.731,0,0,1,7.981,7.454V8.547A7.731,7.731,0,0,1,7.981,16Z" transform="translate(0 0)" fill="#181818"/>
      </g>
      <g id="Group_469" data-name="Group 469" transform="translate(387.424 79.805) rotate(90)">
        <path id="Path_23-5" data-name="Path 23" d="M7.981,59.689A7.731,7.731,0,0,1,0,52.235V51.142a7.731,7.731,0,0,1,7.981-7.454,7.731,7.731,0,0,1,7.981,7.454v1.093A7.731,7.731,0,0,1,7.981,59.689ZM7.981,16A7.731,7.731,0,0,1,0,8.547V7.454A7.731,7.731,0,0,1,7.981,0a7.731,7.731,0,0,1,7.981,7.454V8.547A7.731,7.731,0,0,1,7.981,16Z" transform="translate(41.526 0)" fill="#181818"/>
        <path id="Path_25-15" data-name="Path 25" d="M7.981,59.689A7.731,7.731,0,0,1,0,52.235V51.142a7.731,7.731,0,0,1,7.981-7.454,7.731,7.731,0,0,1,7.981,7.454v1.093A7.731,7.731,0,0,1,7.981,59.689ZM7.981,16A7.731,7.731,0,0,1,0,8.547V7.454A7.731,7.731,0,0,1,7.981,0a7.731,7.731,0,0,1,7.981,7.454V8.547A7.731,7.731,0,0,1,7.981,16Z" transform="translate(0 0)" fill="#181818"/>
      </g>
      <g id="Group_470" data-name="Group 470" transform="translate(387.423 159.611) rotate(90)">
        <path id="Path_23-6" data-name="Path 23" d="M7.981,59.689A7.731,7.731,0,0,1,0,52.235V51.142a7.731,7.731,0,0,1,7.981-7.454,7.731,7.731,0,0,1,7.981,7.454v1.093A7.731,7.731,0,0,1,7.981,59.689ZM7.981,16A7.731,7.731,0,0,1,0,8.547V7.454A7.731,7.731,0,0,1,7.981,0a7.731,7.731,0,0,1,7.981,7.454V8.547A7.731,7.731,0,0,1,7.981,16Z" transform="translate(41.526 0)" fill="#181818"/>
        <path id="Path_25-16" data-name="Path 25" d="M7.981,59.689A7.731,7.731,0,0,1,0,52.235V51.142a7.731,7.731,0,0,1,7.981-7.454,7.731,7.731,0,0,1,7.981,7.454v1.093A7.731,7.731,0,0,1,7.981,59.689ZM7.981,16A7.731,7.731,0,0,1,0,8.547V7.454A7.731,7.731,0,0,1,7.981,0a7.731,7.731,0,0,1,7.981,7.454V8.547A7.731,7.731,0,0,1,7.981,16Z" transform="translate(0 0)" fill="#181818"/>
      </g>
      <g id="Group_471" data-name="Group 471" transform="translate(305.49) rotate(90)">
        <path id="Path_23-7" data-name="Path 23" d="M7.981,59.689A7.731,7.731,0,0,1,0,52.235V51.142a7.731,7.731,0,0,1,7.981-7.454,7.731,7.731,0,0,1,7.981,7.454v1.093A7.731,7.731,0,0,1,7.981,59.689ZM7.981,16A7.731,7.731,0,0,1,0,8.547V7.454A7.731,7.731,0,0,1,7.981,0a7.731,7.731,0,0,1,7.981,7.454V8.547A7.731,7.731,0,0,1,7.981,16Z" transform="translate(41.526 0)" fill="#181818"/>
        <path id="Path_25-17" data-name="Path 25" d="M7.981,59.689A7.731,7.731,0,0,1,0,52.235V51.142a7.731,7.731,0,0,1,7.981-7.454,7.731,7.731,0,0,1,7.981,7.454v1.093A7.731,7.731,0,0,1,7.981,59.689ZM7.981,16A7.731,7.731,0,0,1,0,8.547V7.454A7.731,7.731,0,0,1,7.981,0a7.731,7.731,0,0,1,7.981,7.454V8.547A7.731,7.731,0,0,1,7.981,16Z" transform="translate(0 0)" fill="#181818"/>
      </g>
      <g id="Group_472" data-name="Group 472" transform="translate(305.49 79.805) rotate(90)">
        <path id="Path_23-8" data-name="Path 23" d="M7.981,59.689A7.731,7.731,0,0,1,0,52.235V51.142a7.731,7.731,0,0,1,7.981-7.454,7.731,7.731,0,0,1,7.981,7.454v1.093A7.731,7.731,0,0,1,7.981,59.689ZM7.981,16A7.731,7.731,0,0,1,0,8.547V7.454A7.731,7.731,0,0,1,7.981,0a7.731,7.731,0,0,1,7.981,7.454V8.547A7.731,7.731,0,0,1,7.981,16Z" transform="translate(41.526 0)" fill="#181818"/>
        <path id="Path_25-18" data-name="Path 25" d="M7.981,59.689A7.731,7.731,0,0,1,0,52.235V51.142a7.731,7.731,0,0,1,7.981-7.454,7.731,7.731,0,0,1,7.981,7.454v1.093A7.731,7.731,0,0,1,7.981,59.689ZM7.981,16A7.731,7.731,0,0,1,0,8.547V7.454A7.731,7.731,0,0,1,7.981,0a7.731,7.731,0,0,1,7.981,7.454V8.547A7.731,7.731,0,0,1,7.981,16Z" transform="translate(0 0)" fill="#181818"/>
      </g>
      <g id="Group_473" data-name="Group 473" transform="translate(305.49 159.611) rotate(90)">
        <path id="Path_23-9" data-name="Path 23" d="M7.981,59.689A7.731,7.731,0,0,1,0,52.235V51.142a7.731,7.731,0,0,1,7.981-7.454,7.731,7.731,0,0,1,7.981,7.454v1.093A7.731,7.731,0,0,1,7.981,59.689ZM7.981,16A7.731,7.731,0,0,1,0,8.547V7.454A7.731,7.731,0,0,1,7.981,0a7.731,7.731,0,0,1,7.981,7.454V8.547A7.731,7.731,0,0,1,7.981,16Z" transform="translate(41.526 0)" fill="#181818"/>
        <path id="Path_25-19" data-name="Path 25" d="M7.981,59.689A7.731,7.731,0,0,1,0,52.235V51.142a7.731,7.731,0,0,1,7.981-7.454,7.731,7.731,0,0,1,7.981,7.454v1.093A7.731,7.731,0,0,1,7.981,59.689ZM7.981,16A7.731,7.731,0,0,1,0,8.547V7.454A7.731,7.731,0,0,1,7.981,0a7.731,7.731,0,0,1,7.981,7.454V8.547A7.731,7.731,0,0,1,7.981,16Z" transform="translate(0 0)" fill="#181818"/>
      </g>
      <g id="Group_474" data-name="Group 474" transform="translate(223.557) rotate(90)">
        <path id="Path_23-10" data-name="Path 23" d="M7.981,59.689A7.731,7.731,0,0,1,0,52.235V51.142a7.731,7.731,0,0,1,7.981-7.454,7.731,7.731,0,0,1,7.981,7.454v1.093A7.731,7.731,0,0,1,7.981,59.689ZM7.981,16A7.731,7.731,0,0,1,0,8.547V7.454A7.731,7.731,0,0,1,7.981,0a7.731,7.731,0,0,1,7.981,7.454V8.547A7.731,7.731,0,0,1,7.981,16Z" transform="translate(41.526 0)" fill="#181818"/>
        <path id="Path_25-20" data-name="Path 25" d="M7.981,59.689A7.731,7.731,0,0,1,0,52.235V51.142a7.731,7.731,0,0,1,7.981-7.454,7.731,7.731,0,0,1,7.981,7.454v1.093A7.731,7.731,0,0,1,7.981,59.689ZM7.981,16A7.731,7.731,0,0,1,0,8.547V7.454A7.731,7.731,0,0,1,7.981,0a7.731,7.731,0,0,1,7.981,7.454V8.547A7.731,7.731,0,0,1,7.981,16Z" transform="translate(0 0)" fill="#181818"/>
      </g>
      <g id="Group_475" data-name="Group 475" transform="translate(223.557 79.805) rotate(90)">
        <path id="Path_23-11" data-name="Path 23" d="M7.981,59.689A7.731,7.731,0,0,1,0,52.235V51.142a7.731,7.731,0,0,1,7.981-7.454,7.731,7.731,0,0,1,7.981,7.454v1.093A7.731,7.731,0,0,1,7.981,59.689ZM7.981,16A7.731,7.731,0,0,1,0,8.547V7.454A7.731,7.731,0,0,1,7.981,0a7.731,7.731,0,0,1,7.981,7.454V8.547A7.731,7.731,0,0,1,7.981,16Z" transform="translate(41.526 0)" fill="#181818"/>
        <path id="Path_25-21" data-name="Path 25" d="M7.981,59.689A7.731,7.731,0,0,1,0,52.235V51.142a7.731,7.731,0,0,1,7.981-7.454,7.731,7.731,0,0,1,7.981,7.454v1.093A7.731,7.731,0,0,1,7.981,59.689ZM7.981,16A7.731,7.731,0,0,1,0,8.547V7.454A7.731,7.731,0,0,1,7.981,0a7.731,7.731,0,0,1,7.981,7.454V8.547A7.731,7.731,0,0,1,7.981,16Z" transform="translate(0 0)" fill="#181818"/>
      </g>
      <g id="Group_476" data-name="Group 476" transform="translate(223.556 159.611) rotate(90)">
        <path id="Path_23-12" data-name="Path 23" d="M7.981,59.689A7.731,7.731,0,0,1,0,52.235V51.142a7.731,7.731,0,0,1,7.981-7.454,7.731,7.731,0,0,1,7.981,7.454v1.093A7.731,7.731,0,0,1,7.981,59.689ZM7.981,16A7.731,7.731,0,0,1,0,8.547V7.454A7.731,7.731,0,0,1,7.981,0a7.731,7.731,0,0,1,7.981,7.454V8.547A7.731,7.731,0,0,1,7.981,16Z" transform="translate(41.526 0)" fill="#181818"/>
        <path id="Path_25-22" data-name="Path 25" d="M7.981,59.689A7.731,7.731,0,0,1,0,52.235V51.142a7.731,7.731,0,0,1,7.981-7.454,7.731,7.731,0,0,1,7.981,7.454v1.093A7.731,7.731,0,0,1,7.981,59.689ZM7.981,16A7.731,7.731,0,0,1,0,8.547V7.454A7.731,7.731,0,0,1,7.981,0a7.731,7.731,0,0,1,7.981,7.454V8.547A7.731,7.731,0,0,1,7.981,16Z" transform="translate(0 0)" fill="#181818"/>
      </g>
      <g id="Group_477" data-name="Group 477" transform="translate(141.623) rotate(90)">
        <path id="Path_23-13" data-name="Path 23" d="M7.981,59.689A7.731,7.731,0,0,1,0,52.235V51.142a7.731,7.731,0,0,1,7.981-7.454,7.731,7.731,0,0,1,7.981,7.454v1.093A7.731,7.731,0,0,1,7.981,59.689ZM7.981,16A7.731,7.731,0,0,1,0,8.547V7.454A7.731,7.731,0,0,1,7.981,0a7.731,7.731,0,0,1,7.981,7.454V8.547A7.731,7.731,0,0,1,7.981,16Z" transform="translate(41.526 0)" fill="#181818"/>
        <path id="Path_25-23" data-name="Path 25" d="M7.981,59.689A7.731,7.731,0,0,1,0,52.235V51.142a7.731,7.731,0,0,1,7.981-7.454,7.731,7.731,0,0,1,7.981,7.454v1.093A7.731,7.731,0,0,1,7.981,59.689ZM7.981,16A7.731,7.731,0,0,1,0,8.547V7.454A7.731,7.731,0,0,1,7.981,0a7.731,7.731,0,0,1,7.981,7.454V8.547A7.731,7.731,0,0,1,7.981,16Z" transform="translate(0 0)" fill="#181818"/>
      </g>
      <g id="Group_478" data-name="Group 478" transform="translate(141.623 79.805) rotate(90)">
        <path id="Path_23-14" data-name="Path 23" d="M7.981,59.689A7.731,7.731,0,0,1,0,52.235V51.142a7.731,7.731,0,0,1,7.981-7.454,7.731,7.731,0,0,1,7.981,7.454v1.093A7.731,7.731,0,0,1,7.981,59.689ZM7.981,16A7.731,7.731,0,0,1,0,8.547V7.454A7.731,7.731,0,0,1,7.981,0a7.731,7.731,0,0,1,7.981,7.454V8.547A7.731,7.731,0,0,1,7.981,16Z" transform="translate(41.526 0)" fill="#181818"/>
        <path id="Path_25-24" data-name="Path 25" d="M7.981,59.689A7.731,7.731,0,0,1,0,52.235V51.142a7.731,7.731,0,0,1,7.981-7.454,7.731,7.731,0,0,1,7.981,7.454v1.093A7.731,7.731,0,0,1,7.981,59.689ZM7.981,16A7.731,7.731,0,0,1,0,8.547V7.454A7.731,7.731,0,0,1,7.981,0a7.731,7.731,0,0,1,7.981,7.454V8.547A7.731,7.731,0,0,1,7.981,16Z" transform="translate(0 0)" fill="#181818"/>
      </g>
      <g id="Group_479" data-name="Group 479" transform="translate(141.622 159.611) rotate(90)">
        <path id="Path_23-15" data-name="Path 23" d="M7.981,59.689A7.731,7.731,0,0,1,0,52.235V51.142a7.731,7.731,0,0,1,7.981-7.454,7.731,7.731,0,0,1,7.981,7.454v1.093A7.731,7.731,0,0,1,7.981,59.689ZM7.981,16A7.731,7.731,0,0,1,0,8.547V7.454A7.731,7.731,0,0,1,7.981,0a7.731,7.731,0,0,1,7.981,7.454V8.547A7.731,7.731,0,0,1,7.981,16Z" transform="translate(41.526 0)" fill="#181818"/>
        <path id="Path_25-25" data-name="Path 25" d="M7.981,59.689A7.731,7.731,0,0,1,0,52.235V51.142a7.731,7.731,0,0,1,7.981-7.454,7.731,7.731,0,0,1,7.981,7.454v1.093A7.731,7.731,0,0,1,7.981,59.689ZM7.981,16A7.731,7.731,0,0,1,0,8.547V7.454A7.731,7.731,0,0,1,7.981,0a7.731,7.731,0,0,1,7.981,7.454V8.547A7.731,7.731,0,0,1,7.981,16Z" transform="translate(0 0)" fill="#181818"/>
      </g>
      <g id="Group_480" data-name="Group 480" transform="translate(59.689) rotate(90)">
        <path id="Path_23-16" data-name="Path 23" d="M7.981,59.689A7.731,7.731,0,0,1,0,52.235V51.142a7.731,7.731,0,0,1,7.981-7.454,7.731,7.731,0,0,1,7.981,7.454v1.093A7.731,7.731,0,0,1,7.981,59.689ZM7.981,16A7.731,7.731,0,0,1,0,8.547V7.454A7.731,7.731,0,0,1,7.981,0a7.731,7.731,0,0,1,7.981,7.454V8.547A7.731,7.731,0,0,1,7.981,16Z" transform="translate(41.526 0)" fill="#181818"/>
        <path id="Path_25-26" data-name="Path 25" d="M7.981,59.689A7.731,7.731,0,0,1,0,52.235V51.142a7.731,7.731,0,0,1,7.981-7.454,7.731,7.731,0,0,1,7.981,7.454v1.093A7.731,7.731,0,0,1,7.981,59.689ZM7.981,16A7.731,7.731,0,0,1,0,8.547V7.454A7.731,7.731,0,0,1,7.981,0a7.731,7.731,0,0,1,7.981,7.454V8.547A7.731,7.731,0,0,1,7.981,16Z" transform="translate(0 0)" fill="#181818"/>
      </g>
      <g id="Group_481" data-name="Group 481" transform="translate(59.689 79.805) rotate(90)">
        <path id="Path_23-17" data-name="Path 23" d="M7.981,59.689A7.731,7.731,0,0,1,0,52.235V51.142a7.731,7.731,0,0,1,7.981-7.454,7.731,7.731,0,0,1,7.981,7.454v1.093A7.731,7.731,0,0,1,7.981,59.689ZM7.981,16A7.731,7.731,0,0,1,0,8.547V7.454A7.731,7.731,0,0,1,7.981,0a7.731,7.731,0,0,1,7.981,7.454V8.547A7.731,7.731,0,0,1,7.981,16Z" transform="translate(41.526 0)" fill="#181818"/>
        <path id="Path_25-27" data-name="Path 25" d="M7.981,59.689A7.731,7.731,0,0,1,0,52.235V51.142a7.731,7.731,0,0,1,7.981-7.454,7.731,7.731,0,0,1,7.981,7.454v1.093A7.731,7.731,0,0,1,7.981,59.689ZM7.981,16A7.731,7.731,0,0,1,0,8.547V7.454A7.731,7.731,0,0,1,7.981,0a7.731,7.731,0,0,1,7.981,7.454V8.547A7.731,7.731,0,0,1,7.981,16Z" transform="translate(0 0)" fill="#181818"/>
      </g>
      <g id="Group_482" data-name="Group 482" transform="translate(59.689 159.611) rotate(90)">
        <path id="Path_23-18" data-name="Path 23" d="M7.981,59.689A7.731,7.731,0,0,1,0,52.235V51.142a7.731,7.731,0,0,1,7.981-7.454,7.731,7.731,0,0,1,7.981,7.454v1.093A7.731,7.731,0,0,1,7.981,59.689ZM7.981,16A7.731,7.731,0,0,1,0,8.547V7.454A7.731,7.731,0,0,1,7.981,0a7.731,7.731,0,0,1,7.981,7.454V8.547A7.731,7.731,0,0,1,7.981,16Z" transform="translate(41.526 0)" fill="#181818"/>
        <path id="Path_25-28" data-name="Path 25" d="M7.981,59.689A7.731,7.731,0,0,1,0,52.235V51.142a7.731,7.731,0,0,1,7.981-7.454,7.731,7.731,0,0,1,7.981,7.454v1.093A7.731,7.731,0,0,1,7.981,59.689ZM7.981,16A7.731,7.731,0,0,1,0,8.547V7.454A7.731,7.731,0,0,1,7.981,0a7.731,7.731,0,0,1,7.981,7.454V8.547A7.731,7.731,0,0,1,7.981,16Z" transform="translate(0 0)" fill="#181818"/>
      </g>
    </g>
    <g id="Puntjes-3" data-name="Puntjes" transform="translate(120.414 87.119)">
      <g id="Group_465-2" data-name="Group 465" transform="translate(469.357) rotate(90)">
        <path id="Path_23-19" data-name="Path 23" d="M7.981,59.689A7.731,7.731,0,0,1,0,52.235V51.142a7.731,7.731,0,0,1,7.981-7.454,7.731,7.731,0,0,1,7.981,7.454v1.093A7.731,7.731,0,0,1,7.981,59.689ZM7.981,16A7.731,7.731,0,0,1,0,8.547V7.454A7.731,7.731,0,0,1,7.981,0a7.731,7.731,0,0,1,7.981,7.454V8.547A7.731,7.731,0,0,1,7.981,16Z" transform="translate(41.526 0)" fill="#181818"/>
        <path id="Path_25-29" data-name="Path 25" d="M7.981,59.689A7.731,7.731,0,0,1,0,52.235V51.142a7.731,7.731,0,0,1,7.981-7.454,7.731,7.731,0,0,1,7.981,7.454v1.093A7.731,7.731,0,0,1,7.981,59.689ZM7.981,16A7.731,7.731,0,0,1,0,8.547V7.454A7.731,7.731,0,0,1,7.981,0a7.731,7.731,0,0,1,7.981,7.454V8.547A7.731,7.731,0,0,1,7.981,16Z" transform="translate(0 0)" fill="#181818"/>
      </g>
      <g id="Group_466-2" data-name="Group 466" transform="translate(469.357 79.805) rotate(90)">
        <path id="Path_23-20" data-name="Path 23" d="M7.981,59.689A7.731,7.731,0,0,1,0,52.235V51.142a7.731,7.731,0,0,1,7.981-7.454,7.731,7.731,0,0,1,7.981,7.454v1.093A7.731,7.731,0,0,1,7.981,59.689ZM7.981,16A7.731,7.731,0,0,1,0,8.547V7.454A7.731,7.731,0,0,1,7.981,0a7.731,7.731,0,0,1,7.981,7.454V8.547A7.731,7.731,0,0,1,7.981,16Z" transform="translate(41.526 0)" fill="#181818"/>
        <path id="Path_25-30" data-name="Path 25" d="M7.981,59.689A7.731,7.731,0,0,1,0,52.235V51.142a7.731,7.731,0,0,1,7.981-7.454,7.731,7.731,0,0,1,7.981,7.454v1.093A7.731,7.731,0,0,1,7.981,59.689ZM7.981,16A7.731,7.731,0,0,1,0,8.547V7.454A7.731,7.731,0,0,1,7.981,0a7.731,7.731,0,0,1,7.981,7.454V8.547A7.731,7.731,0,0,1,7.981,16Z" transform="translate(0 0)" fill="#181818"/>
      </g>
      <g id="Group_467-2" data-name="Group 467" transform="translate(469.357 159.611) rotate(90)">
        <path id="Path_23-21" data-name="Path 23" d="M7.981,59.689A7.731,7.731,0,0,1,0,52.235V51.142a7.731,7.731,0,0,1,7.981-7.454,7.731,7.731,0,0,1,7.981,7.454v1.093A7.731,7.731,0,0,1,7.981,59.689ZM7.981,16A7.731,7.731,0,0,1,0,8.547V7.454A7.731,7.731,0,0,1,7.981,0a7.731,7.731,0,0,1,7.981,7.454V8.547A7.731,7.731,0,0,1,7.981,16Z" transform="translate(41.526 0)" fill="#181818"/>
        <path id="Path_25-31" data-name="Path 25" d="M7.981,59.689A7.731,7.731,0,0,1,0,52.235V51.142a7.731,7.731,0,0,1,7.981-7.454,7.731,7.731,0,0,1,7.981,7.454v1.093A7.731,7.731,0,0,1,7.981,59.689ZM7.981,16A7.731,7.731,0,0,1,0,8.547V7.454A7.731,7.731,0,0,1,7.981,0a7.731,7.731,0,0,1,7.981,7.454V8.547A7.731,7.731,0,0,1,7.981,16Z" transform="translate(0 0)" fill="#181818"/>
      </g>
      <g id="Group_468-2" data-name="Group 468" transform="translate(387.424) rotate(90)">
        <path id="Path_23-22" data-name="Path 23" d="M7.981,59.689A7.731,7.731,0,0,1,0,52.235V51.142a7.731,7.731,0,0,1,7.981-7.454,7.731,7.731,0,0,1,7.981,7.454v1.093A7.731,7.731,0,0,1,7.981,59.689ZM7.981,16A7.731,7.731,0,0,1,0,8.547V7.454A7.731,7.731,0,0,1,7.981,0a7.731,7.731,0,0,1,7.981,7.454V8.547A7.731,7.731,0,0,1,7.981,16Z" transform="translate(41.526 0)" fill="#181818"/>
        <path id="Path_25-32" data-name="Path 25" d="M7.981,59.689A7.731,7.731,0,0,1,0,52.235V51.142a7.731,7.731,0,0,1,7.981-7.454,7.731,7.731,0,0,1,7.981,7.454v1.093A7.731,7.731,0,0,1,7.981,59.689ZM7.981,16A7.731,7.731,0,0,1,0,8.547V7.454A7.731,7.731,0,0,1,7.981,0a7.731,7.731,0,0,1,7.981,7.454V8.547A7.731,7.731,0,0,1,7.981,16Z" transform="translate(0 0)" fill="#181818"/>
      </g>
      <g id="Group_469-2" data-name="Group 469" transform="translate(387.424 79.805) rotate(90)">
        <path id="Path_23-23" data-name="Path 23" d="M7.981,59.689A7.731,7.731,0,0,1,0,52.235V51.142a7.731,7.731,0,0,1,7.981-7.454,7.731,7.731,0,0,1,7.981,7.454v1.093A7.731,7.731,0,0,1,7.981,59.689ZM7.981,16A7.731,7.731,0,0,1,0,8.547V7.454A7.731,7.731,0,0,1,7.981,0a7.731,7.731,0,0,1,7.981,7.454V8.547A7.731,7.731,0,0,1,7.981,16Z" transform="translate(41.526 0)" fill="#181818"/>
        <path id="Path_25-33" data-name="Path 25" d="M7.981,59.689A7.731,7.731,0,0,1,0,52.235V51.142a7.731,7.731,0,0,1,7.981-7.454,7.731,7.731,0,0,1,7.981,7.454v1.093A7.731,7.731,0,0,1,7.981,59.689ZM7.981,16A7.731,7.731,0,0,1,0,8.547V7.454A7.731,7.731,0,0,1,7.981,0a7.731,7.731,0,0,1,7.981,7.454V8.547A7.731,7.731,0,0,1,7.981,16Z" transform="translate(0 0)" fill="#181818"/>
      </g>
      <g id="Group_470-2" data-name="Group 470" transform="translate(387.423 159.611) rotate(90)">
        <path id="Path_23-24" data-name="Path 23" d="M7.981,59.689A7.731,7.731,0,0,1,0,52.235V51.142a7.731,7.731,0,0,1,7.981-7.454,7.731,7.731,0,0,1,7.981,7.454v1.093A7.731,7.731,0,0,1,7.981,59.689ZM7.981,16A7.731,7.731,0,0,1,0,8.547V7.454A7.731,7.731,0,0,1,7.981,0a7.731,7.731,0,0,1,7.981,7.454V8.547A7.731,7.731,0,0,1,7.981,16Z" transform="translate(41.526 0)" fill="#181818"/>
        <path id="Path_25-34" data-name="Path 25" d="M7.981,59.689A7.731,7.731,0,0,1,0,52.235V51.142a7.731,7.731,0,0,1,7.981-7.454,7.731,7.731,0,0,1,7.981,7.454v1.093A7.731,7.731,0,0,1,7.981,59.689ZM7.981,16A7.731,7.731,0,0,1,0,8.547V7.454A7.731,7.731,0,0,1,7.981,0a7.731,7.731,0,0,1,7.981,7.454V8.547A7.731,7.731,0,0,1,7.981,16Z" transform="translate(0 0)" fill="#181818"/>
      </g>
      <g id="Group_471-2" data-name="Group 471" transform="translate(305.49) rotate(90)">
        <path id="Path_23-25" data-name="Path 23" d="M7.981,59.689A7.731,7.731,0,0,1,0,52.235V51.142a7.731,7.731,0,0,1,7.981-7.454,7.731,7.731,0,0,1,7.981,7.454v1.093A7.731,7.731,0,0,1,7.981,59.689ZM7.981,16A7.731,7.731,0,0,1,0,8.547V7.454A7.731,7.731,0,0,1,7.981,0a7.731,7.731,0,0,1,7.981,7.454V8.547A7.731,7.731,0,0,1,7.981,16Z" transform="translate(41.526 0)" fill="#181818"/>
        <path id="Path_25-35" data-name="Path 25" d="M7.981,59.689A7.731,7.731,0,0,1,0,52.235V51.142a7.731,7.731,0,0,1,7.981-7.454,7.731,7.731,0,0,1,7.981,7.454v1.093A7.731,7.731,0,0,1,7.981,59.689ZM7.981,16A7.731,7.731,0,0,1,0,8.547V7.454A7.731,7.731,0,0,1,7.981,0a7.731,7.731,0,0,1,7.981,7.454V8.547A7.731,7.731,0,0,1,7.981,16Z" transform="translate(0 0)" fill="#181818"/>
      </g>
      <g id="Group_472-2" data-name="Group 472" transform="translate(305.49 79.805) rotate(90)">
        <path id="Path_23-26" data-name="Path 23" d="M7.981,59.689A7.731,7.731,0,0,1,0,52.235V51.142a7.731,7.731,0,0,1,7.981-7.454,7.731,7.731,0,0,1,7.981,7.454v1.093A7.731,7.731,0,0,1,7.981,59.689ZM7.981,16A7.731,7.731,0,0,1,0,8.547V7.454A7.731,7.731,0,0,1,7.981,0a7.731,7.731,0,0,1,7.981,7.454V8.547A7.731,7.731,0,0,1,7.981,16Z" transform="translate(41.526 0)" fill="#181818"/>
        <path id="Path_25-36" data-name="Path 25" d="M7.981,59.689A7.731,7.731,0,0,1,0,52.235V51.142a7.731,7.731,0,0,1,7.981-7.454,7.731,7.731,0,0,1,7.981,7.454v1.093A7.731,7.731,0,0,1,7.981,59.689ZM7.981,16A7.731,7.731,0,0,1,0,8.547V7.454A7.731,7.731,0,0,1,7.981,0a7.731,7.731,0,0,1,7.981,7.454V8.547A7.731,7.731,0,0,1,7.981,16Z" transform="translate(0 0)" fill="#181818"/>
      </g>
      <g id="Group_473-2" data-name="Group 473" transform="translate(305.49 159.611) rotate(90)">
        <path id="Path_23-27" data-name="Path 23" d="M7.981,59.689A7.731,7.731,0,0,1,0,52.235V51.142a7.731,7.731,0,0,1,7.981-7.454,7.731,7.731,0,0,1,7.981,7.454v1.093A7.731,7.731,0,0,1,7.981,59.689ZM7.981,16A7.731,7.731,0,0,1,0,8.547V7.454A7.731,7.731,0,0,1,7.981,0a7.731,7.731,0,0,1,7.981,7.454V8.547A7.731,7.731,0,0,1,7.981,16Z" transform="translate(41.526 0)" fill="#181818"/>
        <path id="Path_25-37" data-name="Path 25" d="M7.981,59.689A7.731,7.731,0,0,1,0,52.235V51.142a7.731,7.731,0,0,1,7.981-7.454,7.731,7.731,0,0,1,7.981,7.454v1.093A7.731,7.731,0,0,1,7.981,59.689ZM7.981,16A7.731,7.731,0,0,1,0,8.547V7.454A7.731,7.731,0,0,1,7.981,0a7.731,7.731,0,0,1,7.981,7.454V8.547A7.731,7.731,0,0,1,7.981,16Z" transform="translate(0 0)" fill="#181818"/>
      </g>
      <g id="Group_474-2" data-name="Group 474" transform="translate(223.557) rotate(90)">
        <path id="Path_23-28" data-name="Path 23" d="M7.981,59.689A7.731,7.731,0,0,1,0,52.235V51.142a7.731,7.731,0,0,1,7.981-7.454,7.731,7.731,0,0,1,7.981,7.454v1.093A7.731,7.731,0,0,1,7.981,59.689ZM7.981,16A7.731,7.731,0,0,1,0,8.547V7.454A7.731,7.731,0,0,1,7.981,0a7.731,7.731,0,0,1,7.981,7.454V8.547A7.731,7.731,0,0,1,7.981,16Z" transform="translate(41.526 0)" fill="#181818"/>
        <path id="Path_25-38" data-name="Path 25" d="M7.981,59.689A7.731,7.731,0,0,1,0,52.235V51.142a7.731,7.731,0,0,1,7.981-7.454,7.731,7.731,0,0,1,7.981,7.454v1.093A7.731,7.731,0,0,1,7.981,59.689ZM7.981,16A7.731,7.731,0,0,1,0,8.547V7.454A7.731,7.731,0,0,1,7.981,0a7.731,7.731,0,0,1,7.981,7.454V8.547A7.731,7.731,0,0,1,7.981,16Z" transform="translate(0 0)" fill="#181818"/>
      </g>
      <g id="Group_475-2" data-name="Group 475" transform="translate(223.557 79.805) rotate(90)">
        <path id="Path_23-29" data-name="Path 23" d="M7.981,59.689A7.731,7.731,0,0,1,0,52.235V51.142a7.731,7.731,0,0,1,7.981-7.454,7.731,7.731,0,0,1,7.981,7.454v1.093A7.731,7.731,0,0,1,7.981,59.689ZM7.981,16A7.731,7.731,0,0,1,0,8.547V7.454A7.731,7.731,0,0,1,7.981,0a7.731,7.731,0,0,1,7.981,7.454V8.547A7.731,7.731,0,0,1,7.981,16Z" transform="translate(41.526 0)" fill="#181818"/>
        <path id="Path_25-39" data-name="Path 25" d="M7.981,59.689A7.731,7.731,0,0,1,0,52.235V51.142a7.731,7.731,0,0,1,7.981-7.454,7.731,7.731,0,0,1,7.981,7.454v1.093A7.731,7.731,0,0,1,7.981,59.689ZM7.981,16A7.731,7.731,0,0,1,0,8.547V7.454A7.731,7.731,0,0,1,7.981,0a7.731,7.731,0,0,1,7.981,7.454V8.547A7.731,7.731,0,0,1,7.981,16Z" transform="translate(0 0)" fill="#181818"/>
      </g>
      <g id="Group_476-2" data-name="Group 476" transform="translate(223.556 159.611) rotate(90)">
        <path id="Path_23-30" data-name="Path 23" d="M7.981,59.689A7.731,7.731,0,0,1,0,52.235V51.142a7.731,7.731,0,0,1,7.981-7.454,7.731,7.731,0,0,1,7.981,7.454v1.093A7.731,7.731,0,0,1,7.981,59.689ZM7.981,16A7.731,7.731,0,0,1,0,8.547V7.454A7.731,7.731,0,0,1,7.981,0a7.731,7.731,0,0,1,7.981,7.454V8.547A7.731,7.731,0,0,1,7.981,16Z" transform="translate(41.526 0)" fill="#181818"/>
        <path id="Path_25-40" data-name="Path 25" d="M7.981,59.689A7.731,7.731,0,0,1,0,52.235V51.142a7.731,7.731,0,0,1,7.981-7.454,7.731,7.731,0,0,1,7.981,7.454v1.093A7.731,7.731,0,0,1,7.981,59.689ZM7.981,16A7.731,7.731,0,0,1,0,8.547V7.454A7.731,7.731,0,0,1,7.981,0a7.731,7.731,0,0,1,7.981,7.454V8.547A7.731,7.731,0,0,1,7.981,16Z" transform="translate(0 0)" fill="#181818"/>
      </g>
      <g id="Group_477-2" data-name="Group 477" transform="translate(141.623) rotate(90)">
        <path id="Path_23-31" data-name="Path 23" d="M7.981,59.689A7.731,7.731,0,0,1,0,52.235V51.142a7.731,7.731,0,0,1,7.981-7.454,7.731,7.731,0,0,1,7.981,7.454v1.093A7.731,7.731,0,0,1,7.981,59.689ZM7.981,16A7.731,7.731,0,0,1,0,8.547V7.454A7.731,7.731,0,0,1,7.981,0a7.731,7.731,0,0,1,7.981,7.454V8.547A7.731,7.731,0,0,1,7.981,16Z" transform="translate(41.526 0)" fill="#181818"/>
        <path id="Path_25-41" data-name="Path 25" d="M7.981,59.689A7.731,7.731,0,0,1,0,52.235V51.142a7.731,7.731,0,0,1,7.981-7.454,7.731,7.731,0,0,1,7.981,7.454v1.093A7.731,7.731,0,0,1,7.981,59.689ZM7.981,16A7.731,7.731,0,0,1,0,8.547V7.454A7.731,7.731,0,0,1,7.981,0a7.731,7.731,0,0,1,7.981,7.454V8.547A7.731,7.731,0,0,1,7.981,16Z" transform="translate(0 0)" fill="#181818"/>
      </g>
      <g id="Group_478-2" data-name="Group 478" transform="translate(141.623 79.805) rotate(90)">
        <path id="Path_23-32" data-name="Path 23" d="M7.981,59.689A7.731,7.731,0,0,1,0,52.235V51.142a7.731,7.731,0,0,1,7.981-7.454,7.731,7.731,0,0,1,7.981,7.454v1.093A7.731,7.731,0,0,1,7.981,59.689ZM7.981,16A7.731,7.731,0,0,1,0,8.547V7.454A7.731,7.731,0,0,1,7.981,0a7.731,7.731,0,0,1,7.981,7.454V8.547A7.731,7.731,0,0,1,7.981,16Z" transform="translate(41.526 0)" fill="#181818"/>
        <path id="Path_25-42" data-name="Path 25" d="M7.981,59.689A7.731,7.731,0,0,1,0,52.235V51.142a7.731,7.731,0,0,1,7.981-7.454,7.731,7.731,0,0,1,7.981,7.454v1.093A7.731,7.731,0,0,1,7.981,59.689ZM7.981,16A7.731,7.731,0,0,1,0,8.547V7.454A7.731,7.731,0,0,1,7.981,0a7.731,7.731,0,0,1,7.981,7.454V8.547A7.731,7.731,0,0,1,7.981,16Z" transform="translate(0 0)" fill="#181818"/>
      </g>
      <g id="Group_479-2" data-name="Group 479" transform="translate(141.622 159.611) rotate(90)">
        <path id="Path_23-33" data-name="Path 23" d="M7.981,59.689A7.731,7.731,0,0,1,0,52.235V51.142a7.731,7.731,0,0,1,7.981-7.454,7.731,7.731,0,0,1,7.981,7.454v1.093A7.731,7.731,0,0,1,7.981,59.689ZM7.981,16A7.731,7.731,0,0,1,0,8.547V7.454A7.731,7.731,0,0,1,7.981,0a7.731,7.731,0,0,1,7.981,7.454V8.547A7.731,7.731,0,0,1,7.981,16Z" transform="translate(41.526 0)" fill="#181818"/>
        <path id="Path_25-43" data-name="Path 25" d="M7.981,59.689A7.731,7.731,0,0,1,0,52.235V51.142a7.731,7.731,0,0,1,7.981-7.454,7.731,7.731,0,0,1,7.981,7.454v1.093A7.731,7.731,0,0,1,7.981,59.689ZM7.981,16A7.731,7.731,0,0,1,0,8.547V7.454A7.731,7.731,0,0,1,7.981,0a7.731,7.731,0,0,1,7.981,7.454V8.547A7.731,7.731,0,0,1,7.981,16Z" transform="translate(0 0)" fill="#181818"/>
      </g>
      <g id="Group_480-2" data-name="Group 480" transform="translate(59.689) rotate(90)">
        <path id="Path_23-34" data-name="Path 23" d="M7.981,59.689A7.731,7.731,0,0,1,0,52.235V51.142a7.731,7.731,0,0,1,7.981-7.454,7.731,7.731,0,0,1,7.981,7.454v1.093A7.731,7.731,0,0,1,7.981,59.689ZM7.981,16A7.731,7.731,0,0,1,0,8.547V7.454A7.731,7.731,0,0,1,7.981,0a7.731,7.731,0,0,1,7.981,7.454V8.547A7.731,7.731,0,0,1,7.981,16Z" transform="translate(41.526 0)" fill="#181818"/>
        <path id="Path_25-44" data-name="Path 25" d="M7.981,59.689A7.731,7.731,0,0,1,0,52.235V51.142a7.731,7.731,0,0,1,7.981-7.454,7.731,7.731,0,0,1,7.981,7.454v1.093A7.731,7.731,0,0,1,7.981,59.689ZM7.981,16A7.731,7.731,0,0,1,0,8.547V7.454A7.731,7.731,0,0,1,7.981,0a7.731,7.731,0,0,1,7.981,7.454V8.547A7.731,7.731,0,0,1,7.981,16Z" transform="translate(0 0)" fill="#181818"/>
      </g>
      <g id="Group_481-2" data-name="Group 481" transform="translate(59.689 79.805) rotate(90)">
        <path id="Path_23-35" data-name="Path 23" d="M7.981,59.689A7.731,7.731,0,0,1,0,52.235V51.142a7.731,7.731,0,0,1,7.981-7.454,7.731,7.731,0,0,1,7.981,7.454v1.093A7.731,7.731,0,0,1,7.981,59.689ZM7.981,16A7.731,7.731,0,0,1,0,8.547V7.454A7.731,7.731,0,0,1,7.981,0a7.731,7.731,0,0,1,7.981,7.454V8.547A7.731,7.731,0,0,1,7.981,16Z" transform="translate(41.526 0)" fill="#181818"/>
        <path id="Path_25-45" data-name="Path 25" d="M7.981,59.689A7.731,7.731,0,0,1,0,52.235V51.142a7.731,7.731,0,0,1,7.981-7.454,7.731,7.731,0,0,1,7.981,7.454v1.093A7.731,7.731,0,0,1,7.981,59.689ZM7.981,16A7.731,7.731,0,0,1,0,8.547V7.454A7.731,7.731,0,0,1,7.981,0a7.731,7.731,0,0,1,7.981,7.454V8.547A7.731,7.731,0,0,1,7.981,16Z" transform="translate(0 0)" fill="#181818"/>
      </g>
      <g id="Group_482-2" data-name="Group 482" transform="translate(59.689 159.611) rotate(90)">
        <path id="Path_23-36" data-name="Path 23" d="M7.981,59.689A7.731,7.731,0,0,1,0,52.235V51.142a7.731,7.731,0,0,1,7.981-7.454,7.731,7.731,0,0,1,7.981,7.454v1.093A7.731,7.731,0,0,1,7.981,59.689ZM7.981,16A7.731,7.731,0,0,1,0,8.547V7.454A7.731,7.731,0,0,1,7.981,0a7.731,7.731,0,0,1,7.981,7.454V8.547A7.731,7.731,0,0,1,7.981,16Z" transform="translate(41.526 0)" fill="#181818"/>
        <path id="Path_25-46" data-name="Path 25" d="M7.981,59.689A7.731,7.731,0,0,1,0,52.235V51.142a7.731,7.731,0,0,1,7.981-7.454,7.731,7.731,0,0,1,7.981,7.454v1.093A7.731,7.731,0,0,1,7.981,59.689ZM7.981,16A7.731,7.731,0,0,1,0,8.547V7.454A7.731,7.731,0,0,1,7.981,0a7.731,7.731,0,0,1,7.981,7.454V8.547A7.731,7.731,0,0,1,7.981,16Z" transform="translate(0 0)" fill="#181818"/>
      </g>
    </g>
  </g>
</svg>
