<svg xmlns="http://www.w3.org/2000/svg" width="607.375" height="565.297" viewBox="0 0 607.375 565.297">
  <g id="Puntjes" transform="translate(0 0)" opacity="0.04">
    <g id="Eenling_puntjes" data-name="Eenling puntjes" transform="translate(168.896 81.859)">
      <path id="Path_25" data-name="Path 25" d="M8.219,16.479A7.962,7.962,0,0,1,0,8.8V7.677A7.962,7.962,0,0,1,8.219,0a7.962,7.962,0,0,1,8.219,7.677V8.8A7.962,7.962,0,0,1,8.219,16.479Z" transform="translate(252 438.578) rotate(-90)" fill="#181818"/>
      <path id="Path_25-2" data-name="Path 25" d="M8.219,16.479A7.962,7.962,0,0,1,0,8.8V7.677A7.962,7.962,0,0,1,8.219,0a7.962,7.962,0,0,1,8.219,7.677V8.8A7.962,7.962,0,0,1,8.219,16.479Z" transform="translate(337 186.578) rotate(-90)" fill="#181818"/>
      <path id="Path_25-3" data-name="Path 25" d="M8.219,16.479A7.962,7.962,0,0,1,0,8.8V7.677A7.962,7.962,0,0,1,8.219,0a7.962,7.962,0,0,1,8.219,7.677V8.8A7.962,7.962,0,0,1,8.219,16.479Z" transform="translate(212 483.438) rotate(-90)" fill="#181818"/>
      <path id="Path_25-4" data-name="Path 25" d="M8.219,16.479A7.962,7.962,0,0,1,0,8.8V7.677A7.962,7.962,0,0,1,8.219,0a7.962,7.962,0,0,1,8.219,7.677V8.8A7.962,7.962,0,0,1,8.219,16.479Z" transform="translate(212 438.578) rotate(-90)" fill="#181818"/>
      <path id="Path_25-5" data-name="Path 25" d="M8.219,16.479A7.962,7.962,0,0,1,0,8.8V7.677A7.962,7.962,0,0,1,8.219,0a7.962,7.962,0,0,1,8.219,7.677V8.8A7.962,7.962,0,0,1,8.219,16.479Z" transform="translate(172 483.438) rotate(-90)" fill="#181818"/>
      <path id="Path_25-6" data-name="Path 25" d="M8.219,16.479A7.962,7.962,0,0,1,0,8.8V7.677A7.962,7.962,0,0,1,8.219,0a7.962,7.962,0,0,1,8.219,7.677V8.8A7.962,7.962,0,0,1,8.219,16.479Z" transform="translate(212 483.438) rotate(-90)" fill="#181818"/>
      <path id="Path_25-7" data-name="Path 25" d="M8.219,16.479A7.962,7.962,0,0,1,0,8.8V7.677A7.962,7.962,0,0,1,8.219,0a7.962,7.962,0,0,1,8.219,7.677V8.8A7.962,7.962,0,0,1,8.219,16.479Z" transform="translate(422 59.437) rotate(-90)" fill="#181818"/>
      <path id="Path_25-8" data-name="Path 25" d="M8.219,16.479A7.962,7.962,0,0,1,0,8.8V7.677A7.962,7.962,0,0,1,8.219,0a7.962,7.962,0,0,1,8.219,7.677V8.8A7.962,7.962,0,0,1,8.219,16.479Z" transform="translate(422 16.437) rotate(-90)" fill="#181818"/>
      <path id="Path_25-9" data-name="Path 25" d="M8.219,16.479A7.962,7.962,0,0,1,0,8.8V7.677A7.962,7.962,0,0,1,8.219,0a7.962,7.962,0,0,1,8.219,7.677V8.8A7.962,7.962,0,0,1,8.219,16.479Z" transform="translate(0 438.578) rotate(-90)" fill="#181818"/>
      <path id="Path_25-10" data-name="Path 25" d="M8.219,16.479A7.962,7.962,0,0,1,0,8.8V7.677A7.962,7.962,0,0,1,8.219,0a7.962,7.962,0,0,1,8.219,7.677V8.8A7.962,7.962,0,0,1,8.219,16.479Z" transform="translate(43 438.578) rotate(-90)" fill="#181818"/>
    </g>
    <g id="Puntjes-2" data-name="Puntjes" transform="translate(84.001 0)">
      <g id="Group_465" data-name="Group 465" transform="translate(0.001 223.578) rotate(-90)">
        <path id="Path_23" data-name="Path 23" d="M8.219,61.471A7.962,7.962,0,0,1,0,53.794V52.668a7.962,7.962,0,0,1,8.219-7.677,7.962,7.962,0,0,1,8.219,7.677v1.126A7.962,7.962,0,0,1,8.219,61.471Zm0-44.992A7.962,7.962,0,0,1,0,8.8V7.677A7.962,7.962,0,0,1,8.219,0a7.962,7.962,0,0,1,8.219,7.677V8.8A7.962,7.962,0,0,1,8.219,16.479Z" transform="translate(42.765)" fill="#181818"/>
        <path id="Path_25-11" data-name="Path 25" d="M8.219,61.471A7.962,7.962,0,0,1,0,53.794V52.668a7.962,7.962,0,0,1,8.219-7.677,7.962,7.962,0,0,1,8.219,7.677v1.126A7.962,7.962,0,0,1,8.219,61.471Zm0-44.992A7.962,7.962,0,0,1,0,8.8V7.677A7.962,7.962,0,0,1,8.219,0a7.962,7.962,0,0,1,8.219,7.677V8.8A7.962,7.962,0,0,1,8.219,16.479Z" fill="#181818"/>
      </g>
      <g id="Group_466" data-name="Group 466" transform="translate(0 141.391) rotate(-90)">
        <path id="Path_23-2" data-name="Path 23" d="M8.219,61.471A7.962,7.962,0,0,1,0,53.794V52.668a7.962,7.962,0,0,1,8.219-7.677,7.962,7.962,0,0,1,8.219,7.677v1.126A7.962,7.962,0,0,1,8.219,61.471Zm0-44.992A7.962,7.962,0,0,1,0,8.8V7.677A7.962,7.962,0,0,1,8.219,0a7.962,7.962,0,0,1,8.219,7.677V8.8A7.962,7.962,0,0,1,8.219,16.479Z" transform="translate(42.765)" fill="#181818"/>
        <path id="Path_25-12" data-name="Path 25" d="M8.219,61.471A7.962,7.962,0,0,1,0,53.794V52.668a7.962,7.962,0,0,1,8.219-7.677,7.962,7.962,0,0,1,8.219,7.677v1.126A7.962,7.962,0,0,1,8.219,61.471Zm0-44.992A7.962,7.962,0,0,1,0,8.8V7.677A7.962,7.962,0,0,1,8.219,0a7.962,7.962,0,0,1,8.219,7.677V8.8A7.962,7.962,0,0,1,8.219,16.479Z" fill="#181818"/>
      </g>
      <g id="Group_467" data-name="Group 467" transform="translate(0.001 59.203) rotate(-90)">
        <path id="Path_23-3" data-name="Path 23" d="M8.219,61.471A7.962,7.962,0,0,1,0,53.794V52.668a7.962,7.962,0,0,1,8.219-7.677,7.962,7.962,0,0,1,8.219,7.677v1.126A7.962,7.962,0,0,1,8.219,61.471Zm0-44.992A7.962,7.962,0,0,1,0,8.8V7.677A7.962,7.962,0,0,1,8.219,0a7.962,7.962,0,0,1,8.219,7.677V8.8A7.962,7.962,0,0,1,8.219,16.479Z" transform="translate(42.765)" fill="#181818"/>
        <path id="Path_25-13" data-name="Path 25" d="M8.219,61.471A7.962,7.962,0,0,1,0,53.794V52.668a7.962,7.962,0,0,1,8.219-7.677,7.962,7.962,0,0,1,8.219,7.677v1.126A7.962,7.962,0,0,1,8.219,61.471Zm0-44.992A7.962,7.962,0,0,1,0,8.8V7.677A7.962,7.962,0,0,1,8.219,0a7.962,7.962,0,0,1,8.219,7.677V8.8A7.962,7.962,0,0,1,8.219,16.479Z" fill="#181818"/>
      </g>
      <g id="Group_468" data-name="Group 468" transform="translate(84.379 223.578) rotate(-90)">
        <path id="Path_23-4" data-name="Path 23" d="M8.219,61.471A7.962,7.962,0,0,1,0,53.794V52.668a7.962,7.962,0,0,1,8.219-7.677,7.962,7.962,0,0,1,8.219,7.677v1.126A7.962,7.962,0,0,1,8.219,61.471Zm0-44.992A7.962,7.962,0,0,1,0,8.8V7.677A7.962,7.962,0,0,1,8.219,0a7.962,7.962,0,0,1,8.219,7.677V8.8A7.962,7.962,0,0,1,8.219,16.479Z" transform="translate(42.765 0)" fill="#181818"/>
        <path id="Path_25-14" data-name="Path 25" d="M8.219,61.471A7.962,7.962,0,0,1,0,53.794V52.668a7.962,7.962,0,0,1,8.219-7.677,7.962,7.962,0,0,1,8.219,7.677v1.126A7.962,7.962,0,0,1,8.219,61.471Zm0-44.992A7.962,7.962,0,0,1,0,8.8V7.677A7.962,7.962,0,0,1,8.219,0a7.962,7.962,0,0,1,8.219,7.677V8.8A7.962,7.962,0,0,1,8.219,16.479Z" transform="translate(0 0)" fill="#181818"/>
      </g>
      <g id="Group_469" data-name="Group 469" transform="translate(84.379 141.391) rotate(-90)">
        <path id="Path_23-5" data-name="Path 23" d="M8.219,61.471A7.962,7.962,0,0,1,0,53.794V52.668a7.962,7.962,0,0,1,8.219-7.677,7.962,7.962,0,0,1,8.219,7.677v1.126A7.962,7.962,0,0,1,8.219,61.471Zm0-44.992A7.962,7.962,0,0,1,0,8.8V7.677A7.962,7.962,0,0,1,8.219,0a7.962,7.962,0,0,1,8.219,7.677V8.8A7.962,7.962,0,0,1,8.219,16.479Z" transform="translate(42.765 0)" fill="#181818"/>
        <path id="Path_25-15" data-name="Path 25" d="M8.219,61.471A7.962,7.962,0,0,1,0,53.794V52.668a7.962,7.962,0,0,1,8.219-7.677,7.962,7.962,0,0,1,8.219,7.677v1.126A7.962,7.962,0,0,1,8.219,61.471Zm0-44.992A7.962,7.962,0,0,1,0,8.8V7.677A7.962,7.962,0,0,1,8.219,0a7.962,7.962,0,0,1,8.219,7.677V8.8A7.962,7.962,0,0,1,8.219,16.479Z" transform="translate(0 0)" fill="#181818"/>
      </g>
      <g id="Group_470" data-name="Group 470" transform="translate(84.38 59.203) rotate(-90)">
        <path id="Path_23-6" data-name="Path 23" d="M8.219,61.471A7.962,7.962,0,0,1,0,53.794V52.668a7.962,7.962,0,0,1,8.219-7.677,7.962,7.962,0,0,1,8.219,7.677v1.126A7.962,7.962,0,0,1,8.219,61.471Zm0-44.992A7.962,7.962,0,0,1,0,8.8V7.677A7.962,7.962,0,0,1,8.219,0a7.962,7.962,0,0,1,8.219,7.677V8.8A7.962,7.962,0,0,1,8.219,16.479Z" transform="translate(42.765 0)" fill="#181818"/>
        <path id="Path_25-16" data-name="Path 25" d="M8.219,61.471A7.962,7.962,0,0,1,0,53.794V52.668a7.962,7.962,0,0,1,8.219-7.677,7.962,7.962,0,0,1,8.219,7.677v1.126A7.962,7.962,0,0,1,8.219,61.471Zm0-44.992A7.962,7.962,0,0,1,0,8.8V7.677A7.962,7.962,0,0,1,8.219,0a7.962,7.962,0,0,1,8.219,7.677V8.8A7.962,7.962,0,0,1,8.219,16.479Z" transform="translate(0 0)" fill="#181818"/>
      </g>
      <g id="Group_471" data-name="Group 471" transform="translate(168.759 223.578) rotate(-90)">
        <path id="Path_23-7" data-name="Path 23" d="M8.219,61.471A7.962,7.962,0,0,1,0,53.794V52.668a7.962,7.962,0,0,1,8.219-7.677,7.962,7.962,0,0,1,8.219,7.677v1.126A7.962,7.962,0,0,1,8.219,61.471Zm0-44.992A7.962,7.962,0,0,1,0,8.8V7.677A7.962,7.962,0,0,1,8.219,0a7.962,7.962,0,0,1,8.219,7.677V8.8A7.962,7.962,0,0,1,8.219,16.479Z" transform="translate(42.765 0)" fill="#181818"/>
        <path id="Path_25-17" data-name="Path 25" d="M8.219,61.471A7.962,7.962,0,0,1,0,53.794V52.668a7.962,7.962,0,0,1,8.219-7.677,7.962,7.962,0,0,1,8.219,7.677v1.126A7.962,7.962,0,0,1,8.219,61.471Zm0-44.992A7.962,7.962,0,0,1,0,8.8V7.677A7.962,7.962,0,0,1,8.219,0a7.962,7.962,0,0,1,8.219,7.677V8.8A7.962,7.962,0,0,1,8.219,16.479Z" transform="translate(0 0)" fill="#181818"/>
      </g>
      <g id="Group_472" data-name="Group 472" transform="translate(168.759 141.391) rotate(-90)">
        <path id="Path_23-8" data-name="Path 23" d="M8.219,61.471A7.962,7.962,0,0,1,0,53.794V52.668a7.962,7.962,0,0,1,8.219-7.677,7.962,7.962,0,0,1,8.219,7.677v1.126A7.962,7.962,0,0,1,8.219,61.471Zm0-44.992A7.962,7.962,0,0,1,0,8.8V7.677A7.962,7.962,0,0,1,8.219,0a7.962,7.962,0,0,1,8.219,7.677V8.8A7.962,7.962,0,0,1,8.219,16.479Z" transform="translate(42.765 0)" fill="#181818"/>
        <path id="Path_25-18" data-name="Path 25" d="M8.219,61.471A7.962,7.962,0,0,1,0,53.794V52.668a7.962,7.962,0,0,1,8.219-7.677,7.962,7.962,0,0,1,8.219,7.677v1.126A7.962,7.962,0,0,1,8.219,61.471Zm0-44.992A7.962,7.962,0,0,1,0,8.8V7.677A7.962,7.962,0,0,1,8.219,0a7.962,7.962,0,0,1,8.219,7.677V8.8A7.962,7.962,0,0,1,8.219,16.479Z" transform="translate(0 0)" fill="#181818"/>
      </g>
      <g id="Group_473" data-name="Group 473" transform="translate(168.759 59.203) rotate(-90)">
        <path id="Path_23-9" data-name="Path 23" d="M8.219,61.471A7.962,7.962,0,0,1,0,53.794V52.668a7.962,7.962,0,0,1,8.219-7.677,7.962,7.962,0,0,1,8.219,7.677v1.126A7.962,7.962,0,0,1,8.219,61.471Zm0-44.992A7.962,7.962,0,0,1,0,8.8V7.677A7.962,7.962,0,0,1,8.219,0a7.962,7.962,0,0,1,8.219,7.677V8.8A7.962,7.962,0,0,1,8.219,16.479Z" transform="translate(42.765 0)" fill="#181818"/>
        <path id="Path_25-19" data-name="Path 25" d="M8.219,61.471A7.962,7.962,0,0,1,0,53.794V52.668a7.962,7.962,0,0,1,8.219-7.677,7.962,7.962,0,0,1,8.219,7.677v1.126A7.962,7.962,0,0,1,8.219,61.471Zm0-44.992A7.962,7.962,0,0,1,0,8.8V7.677A7.962,7.962,0,0,1,8.219,0a7.962,7.962,0,0,1,8.219,7.677V8.8A7.962,7.962,0,0,1,8.219,16.479Z" transform="translate(0 0)" fill="#181818"/>
      </g>
      <g id="Group_474" data-name="Group 474" transform="translate(253.138 223.578) rotate(-90)">
        <path id="Path_23-10" data-name="Path 23" d="M8.219,61.471A7.962,7.962,0,0,1,0,53.794V52.668a7.962,7.962,0,0,1,8.219-7.677,7.962,7.962,0,0,1,8.219,7.677v1.126A7.962,7.962,0,0,1,8.219,61.471Zm0-44.992A7.962,7.962,0,0,1,0,8.8V7.677A7.962,7.962,0,0,1,8.219,0a7.962,7.962,0,0,1,8.219,7.677V8.8A7.962,7.962,0,0,1,8.219,16.479Z" transform="translate(42.765 0)" fill="#181818"/>
        <path id="Path_25-20" data-name="Path 25" d="M8.219,61.471A7.962,7.962,0,0,1,0,53.794V52.668a7.962,7.962,0,0,1,8.219-7.677,7.962,7.962,0,0,1,8.219,7.677v1.126A7.962,7.962,0,0,1,8.219,61.471Zm0-44.992A7.962,7.962,0,0,1,0,8.8V7.677A7.962,7.962,0,0,1,8.219,0a7.962,7.962,0,0,1,8.219,7.677V8.8A7.962,7.962,0,0,1,8.219,16.479Z" transform="translate(0 0)" fill="#181818"/>
      </g>
      <g id="Group_475" data-name="Group 475" transform="translate(253.138 141.391) rotate(-90)">
        <path id="Path_23-11" data-name="Path 23" d="M8.219,61.471A7.962,7.962,0,0,1,0,53.794V52.668a7.962,7.962,0,0,1,8.219-7.677,7.962,7.962,0,0,1,8.219,7.677v1.126A7.962,7.962,0,0,1,8.219,61.471Zm0-44.992A7.962,7.962,0,0,1,0,8.8V7.677A7.962,7.962,0,0,1,8.219,0a7.962,7.962,0,0,1,8.219,7.677V8.8A7.962,7.962,0,0,1,8.219,16.479Z" transform="translate(42.765 0)" fill="#181818"/>
        <path id="Path_25-21" data-name="Path 25" d="M8.219,61.471A7.962,7.962,0,0,1,0,53.794V52.668a7.962,7.962,0,0,1,8.219-7.677,7.962,7.962,0,0,1,8.219,7.677v1.126A7.962,7.962,0,0,1,8.219,61.471Zm0-44.992A7.962,7.962,0,0,1,0,8.8V7.677A7.962,7.962,0,0,1,8.219,0a7.962,7.962,0,0,1,8.219,7.677V8.8A7.962,7.962,0,0,1,8.219,16.479Z" transform="translate(0 0)" fill="#181818"/>
      </g>
      <g id="Group_476" data-name="Group 476" transform="translate(253.138 59.203) rotate(-90)">
        <path id="Path_23-12" data-name="Path 23" d="M8.219,61.471A7.962,7.962,0,0,1,0,53.794V52.668a7.962,7.962,0,0,1,8.219-7.677,7.962,7.962,0,0,1,8.219,7.677v1.126A7.962,7.962,0,0,1,8.219,61.471Zm0-44.992A7.962,7.962,0,0,1,0,8.8V7.677A7.962,7.962,0,0,1,8.219,0a7.962,7.962,0,0,1,8.219,7.677V8.8A7.962,7.962,0,0,1,8.219,16.479Z" transform="translate(42.765 0)" fill="#181818"/>
        <path id="Path_25-22" data-name="Path 25" d="M8.219,61.471A7.962,7.962,0,0,1,0,53.794V52.668a7.962,7.962,0,0,1,8.219-7.677,7.962,7.962,0,0,1,8.219,7.677v1.126A7.962,7.962,0,0,1,8.219,61.471Zm0-44.992A7.962,7.962,0,0,1,0,8.8V7.677A7.962,7.962,0,0,1,8.219,0a7.962,7.962,0,0,1,8.219,7.677V8.8A7.962,7.962,0,0,1,8.219,16.479Z" transform="translate(0 0)" fill="#181818"/>
      </g>
      <g id="Group_477" data-name="Group 477" transform="translate(337.517 223.578) rotate(-90)">
        <path id="Path_23-13" data-name="Path 23" d="M8.219,61.471A7.962,7.962,0,0,1,0,53.794V52.668a7.962,7.962,0,0,1,8.219-7.677,7.962,7.962,0,0,1,8.219,7.677v1.126A7.962,7.962,0,0,1,8.219,61.471Zm0-44.992A7.962,7.962,0,0,1,0,8.8V7.677A7.962,7.962,0,0,1,8.219,0a7.962,7.962,0,0,1,8.219,7.677V8.8A7.962,7.962,0,0,1,8.219,16.479Z" transform="translate(42.765 0)" fill="#181818"/>
        <path id="Path_25-23" data-name="Path 25" d="M8.219,61.471A7.962,7.962,0,0,1,0,53.794V52.668a7.962,7.962,0,0,1,8.219-7.677,7.962,7.962,0,0,1,8.219,7.677v1.126A7.962,7.962,0,0,1,8.219,61.471Zm0-44.992A7.962,7.962,0,0,1,0,8.8V7.677A7.962,7.962,0,0,1,8.219,0a7.962,7.962,0,0,1,8.219,7.677V8.8A7.962,7.962,0,0,1,8.219,16.479Z" transform="translate(0 0)" fill="#181818"/>
      </g>
      <g id="Group_478" data-name="Group 478" transform="translate(337.517 141.391) rotate(-90)">
        <path id="Path_23-14" data-name="Path 23" d="M8.219,61.471A7.962,7.962,0,0,1,0,53.794V52.668a7.962,7.962,0,0,1,8.219-7.677,7.962,7.962,0,0,1,8.219,7.677v1.126A7.962,7.962,0,0,1,8.219,61.471Zm0-44.992A7.962,7.962,0,0,1,0,8.8V7.677A7.962,7.962,0,0,1,8.219,0a7.962,7.962,0,0,1,8.219,7.677V8.8A7.962,7.962,0,0,1,8.219,16.479Z" transform="translate(42.765 0)" fill="#181818"/>
        <path id="Path_25-24" data-name="Path 25" d="M8.219,61.471A7.962,7.962,0,0,1,0,53.794V52.668a7.962,7.962,0,0,1,8.219-7.677,7.962,7.962,0,0,1,8.219,7.677v1.126A7.962,7.962,0,0,1,8.219,61.471Zm0-44.992A7.962,7.962,0,0,1,0,8.8V7.677A7.962,7.962,0,0,1,8.219,0a7.962,7.962,0,0,1,8.219,7.677V8.8A7.962,7.962,0,0,1,8.219,16.479Z" transform="translate(0 0)" fill="#181818"/>
      </g>
      <g id="Group_479" data-name="Group 479" transform="translate(337.517 59.203) rotate(-90)">
        <path id="Path_23-15" data-name="Path 23" d="M8.219,61.471A7.962,7.962,0,0,1,0,53.794V52.668a7.962,7.962,0,0,1,8.219-7.677,7.962,7.962,0,0,1,8.219,7.677v1.126A7.962,7.962,0,0,1,8.219,61.471Zm0-44.992A7.962,7.962,0,0,1,0,8.8V7.677A7.962,7.962,0,0,1,8.219,0a7.962,7.962,0,0,1,8.219,7.677V8.8A7.962,7.962,0,0,1,8.219,16.479Z" transform="translate(42.765 0)" fill="#181818"/>
        <path id="Path_25-25" data-name="Path 25" d="M8.219,61.471A7.962,7.962,0,0,1,0,53.794V52.668a7.962,7.962,0,0,1,8.219-7.677,7.962,7.962,0,0,1,8.219,7.677v1.126A7.962,7.962,0,0,1,8.219,61.471Zm0-44.992A7.962,7.962,0,0,1,0,8.8V7.677A7.962,7.962,0,0,1,8.219,0a7.962,7.962,0,0,1,8.219,7.677V8.8A7.962,7.962,0,0,1,8.219,16.479Z" transform="translate(0 0)" fill="#181818"/>
      </g>
      <g id="Group_480" data-name="Group 480" transform="translate(421.896 223.578) rotate(-90)">
        <path id="Path_23-16" data-name="Path 23" d="M8.219,61.471A7.962,7.962,0,0,1,0,53.794V52.668a7.962,7.962,0,0,1,8.219-7.677,7.962,7.962,0,0,1,8.219,7.677v1.126A7.962,7.962,0,0,1,8.219,61.471Zm0-44.992A7.962,7.962,0,0,1,0,8.8V7.677A7.962,7.962,0,0,1,8.219,0a7.962,7.962,0,0,1,8.219,7.677V8.8A7.962,7.962,0,0,1,8.219,16.479Z" transform="translate(42.765 0)" fill="#181818"/>
        <path id="Path_25-26" data-name="Path 25" d="M8.219,61.471A7.962,7.962,0,0,1,0,53.794V52.668a7.962,7.962,0,0,1,8.219-7.677,7.962,7.962,0,0,1,8.219,7.677v1.126A7.962,7.962,0,0,1,8.219,61.471Zm0-44.992A7.962,7.962,0,0,1,0,8.8V7.677A7.962,7.962,0,0,1,8.219,0a7.962,7.962,0,0,1,8.219,7.677V8.8A7.962,7.962,0,0,1,8.219,16.479Z" transform="translate(0 0)" fill="#181818"/>
      </g>
      <g id="Group_481" data-name="Group 481" transform="translate(421.896 141.391) rotate(-90)">
        <path id="Path_23-17" data-name="Path 23" d="M8.219,61.471A7.962,7.962,0,0,1,0,53.794V52.668a7.962,7.962,0,0,1,8.219-7.677,7.962,7.962,0,0,1,8.219,7.677v1.126A7.962,7.962,0,0,1,8.219,61.471Zm0-44.992A7.962,7.962,0,0,1,0,8.8V7.677A7.962,7.962,0,0,1,8.219,0a7.962,7.962,0,0,1,8.219,7.677V8.8A7.962,7.962,0,0,1,8.219,16.479Z" transform="translate(42.765 0)" fill="#181818"/>
        <path id="Path_25-27" data-name="Path 25" d="M8.219,61.471A7.962,7.962,0,0,1,0,53.794V52.668a7.962,7.962,0,0,1,8.219-7.677,7.962,7.962,0,0,1,8.219,7.677v1.126A7.962,7.962,0,0,1,8.219,61.471Zm0-44.992A7.962,7.962,0,0,1,0,8.8V7.677A7.962,7.962,0,0,1,8.219,0a7.962,7.962,0,0,1,8.219,7.677V8.8A7.962,7.962,0,0,1,8.219,16.479Z" transform="translate(0 0)" fill="#181818"/>
      </g>
      <g id="Group_482" data-name="Group 482" transform="translate(421.896 59.203) rotate(-90)">
        <path id="Path_23-18" data-name="Path 23" d="M8.219,61.471A7.962,7.962,0,0,1,0,53.794V52.668a7.962,7.962,0,0,1,8.219-7.677,7.962,7.962,0,0,1,8.219,7.677v1.126A7.962,7.962,0,0,1,8.219,61.471Zm0-44.992A7.962,7.962,0,0,1,0,8.8V7.677A7.962,7.962,0,0,1,8.219,0a7.962,7.962,0,0,1,8.219,7.677V8.8A7.962,7.962,0,0,1,8.219,16.479Z" transform="translate(42.765 0)" fill="#181818"/>
        <path id="Path_25-28" data-name="Path 25" d="M8.219,61.471A7.962,7.962,0,0,1,0,53.794V52.668a7.962,7.962,0,0,1,8.219-7.677,7.962,7.962,0,0,1,8.219,7.677v1.126A7.962,7.962,0,0,1,8.219,61.471Zm0-44.992A7.962,7.962,0,0,1,0,8.8V7.677A7.962,7.962,0,0,1,8.219,0a7.962,7.962,0,0,1,8.219,7.677V8.8A7.962,7.962,0,0,1,8.219,16.479Z" transform="translate(0 0)" fill="#181818"/>
      </g>
    </g>
    <g id="Puntjes-3" data-name="Puntjes" transform="translate(0 252)">
      <g id="Group_465-2" data-name="Group 465" transform="translate(0.001 223.578) rotate(-90)">
        <path id="Path_23-19" data-name="Path 23" d="M8.219,61.471A7.962,7.962,0,0,1,0,53.794V52.668a7.962,7.962,0,0,1,8.219-7.677,7.962,7.962,0,0,1,8.219,7.677v1.126A7.962,7.962,0,0,1,8.219,61.471Zm0-44.992A7.962,7.962,0,0,1,0,8.8V7.677A7.962,7.962,0,0,1,8.219,0a7.962,7.962,0,0,1,8.219,7.677V8.8A7.962,7.962,0,0,1,8.219,16.479Z" transform="translate(42.765)" fill="#181818"/>
        <path id="Path_25-29" data-name="Path 25" d="M8.219,61.471A7.962,7.962,0,0,1,0,53.794V52.668a7.962,7.962,0,0,1,8.219-7.677,7.962,7.962,0,0,1,8.219,7.677v1.126A7.962,7.962,0,0,1,8.219,61.471Zm0-44.992A7.962,7.962,0,0,1,0,8.8V7.677A7.962,7.962,0,0,1,8.219,0a7.962,7.962,0,0,1,8.219,7.677V8.8A7.962,7.962,0,0,1,8.219,16.479Z" fill="#181818"/>
      </g>
      <g id="Group_466-2" data-name="Group 466" transform="translate(0 141.391) rotate(-90)">
        <path id="Path_23-20" data-name="Path 23" d="M8.219,61.471A7.962,7.962,0,0,1,0,53.794V52.668a7.962,7.962,0,0,1,8.219-7.677,7.962,7.962,0,0,1,8.219,7.677v1.126A7.962,7.962,0,0,1,8.219,61.471Zm0-44.992A7.962,7.962,0,0,1,0,8.8V7.677A7.962,7.962,0,0,1,8.219,0a7.962,7.962,0,0,1,8.219,7.677V8.8A7.962,7.962,0,0,1,8.219,16.479Z" transform="translate(42.765)" fill="#181818"/>
        <path id="Path_25-30" data-name="Path 25" d="M8.219,61.471A7.962,7.962,0,0,1,0,53.794V52.668a7.962,7.962,0,0,1,8.219-7.677,7.962,7.962,0,0,1,8.219,7.677v1.126A7.962,7.962,0,0,1,8.219,61.471Zm0-44.992A7.962,7.962,0,0,1,0,8.8V7.677A7.962,7.962,0,0,1,8.219,0a7.962,7.962,0,0,1,8.219,7.677V8.8A7.962,7.962,0,0,1,8.219,16.479Z" fill="#181818"/>
      </g>
      <g id="Group_467-2" data-name="Group 467" transform="translate(0.001 59.203) rotate(-90)">
        <path id="Path_23-21" data-name="Path 23" d="M8.219,61.471A7.962,7.962,0,0,1,0,53.794V52.668a7.962,7.962,0,0,1,8.219-7.677,7.962,7.962,0,0,1,8.219,7.677v1.126A7.962,7.962,0,0,1,8.219,61.471Zm0-44.992A7.962,7.962,0,0,1,0,8.8V7.677A7.962,7.962,0,0,1,8.219,0a7.962,7.962,0,0,1,8.219,7.677V8.8A7.962,7.962,0,0,1,8.219,16.479Z" transform="translate(42.765)" fill="#181818"/>
        <path id="Path_25-31" data-name="Path 25" d="M8.219,61.471A7.962,7.962,0,0,1,0,53.794V52.668a7.962,7.962,0,0,1,8.219-7.677,7.962,7.962,0,0,1,8.219,7.677v1.126A7.962,7.962,0,0,1,8.219,61.471Zm0-44.992A7.962,7.962,0,0,1,0,8.8V7.677A7.962,7.962,0,0,1,8.219,0a7.962,7.962,0,0,1,8.219,7.677V8.8A7.962,7.962,0,0,1,8.219,16.479Z" fill="#181818"/>
      </g>
      <g id="Group_468-2" data-name="Group 468" transform="translate(84.379 223.578) rotate(-90)">
        <path id="Path_23-22" data-name="Path 23" d="M8.219,61.471A7.962,7.962,0,0,1,0,53.794V52.668a7.962,7.962,0,0,1,8.219-7.677,7.962,7.962,0,0,1,8.219,7.677v1.126A7.962,7.962,0,0,1,8.219,61.471Zm0-44.992A7.962,7.962,0,0,1,0,8.8V7.677A7.962,7.962,0,0,1,8.219,0a7.962,7.962,0,0,1,8.219,7.677V8.8A7.962,7.962,0,0,1,8.219,16.479Z" transform="translate(42.765 0)" fill="#181818"/>
        <path id="Path_25-32" data-name="Path 25" d="M8.219,61.471A7.962,7.962,0,0,1,0,53.794V52.668a7.962,7.962,0,0,1,8.219-7.677,7.962,7.962,0,0,1,8.219,7.677v1.126A7.962,7.962,0,0,1,8.219,61.471Zm0-44.992A7.962,7.962,0,0,1,0,8.8V7.677A7.962,7.962,0,0,1,8.219,0a7.962,7.962,0,0,1,8.219,7.677V8.8A7.962,7.962,0,0,1,8.219,16.479Z" transform="translate(0 0)" fill="#181818"/>
      </g>
      <g id="Group_469-2" data-name="Group 469" transform="translate(84.379 141.391) rotate(-90)">
        <path id="Path_23-23" data-name="Path 23" d="M8.219,61.471A7.962,7.962,0,0,1,0,53.794V52.668a7.962,7.962,0,0,1,8.219-7.677,7.962,7.962,0,0,1,8.219,7.677v1.126A7.962,7.962,0,0,1,8.219,61.471Zm0-44.992A7.962,7.962,0,0,1,0,8.8V7.677A7.962,7.962,0,0,1,8.219,0a7.962,7.962,0,0,1,8.219,7.677V8.8A7.962,7.962,0,0,1,8.219,16.479Z" transform="translate(42.765 0)" fill="#181818"/>
        <path id="Path_25-33" data-name="Path 25" d="M8.219,61.471A7.962,7.962,0,0,1,0,53.794V52.668a7.962,7.962,0,0,1,8.219-7.677,7.962,7.962,0,0,1,8.219,7.677v1.126A7.962,7.962,0,0,1,8.219,61.471Zm0-44.992A7.962,7.962,0,0,1,0,8.8V7.677A7.962,7.962,0,0,1,8.219,0a7.962,7.962,0,0,1,8.219,7.677V8.8A7.962,7.962,0,0,1,8.219,16.479Z" transform="translate(0 0)" fill="#181818"/>
      </g>
      <g id="Group_470-2" data-name="Group 470" transform="translate(84.38 59.203) rotate(-90)">
        <path id="Path_23-24" data-name="Path 23" d="M8.219,61.471A7.962,7.962,0,0,1,0,53.794V52.668a7.962,7.962,0,0,1,8.219-7.677,7.962,7.962,0,0,1,8.219,7.677v1.126A7.962,7.962,0,0,1,8.219,61.471Zm0-44.992A7.962,7.962,0,0,1,0,8.8V7.677A7.962,7.962,0,0,1,8.219,0a7.962,7.962,0,0,1,8.219,7.677V8.8A7.962,7.962,0,0,1,8.219,16.479Z" transform="translate(42.765 0)" fill="#181818"/>
        <path id="Path_25-34" data-name="Path 25" d="M8.219,61.471A7.962,7.962,0,0,1,0,53.794V52.668a7.962,7.962,0,0,1,8.219-7.677,7.962,7.962,0,0,1,8.219,7.677v1.126A7.962,7.962,0,0,1,8.219,61.471Zm0-44.992A7.962,7.962,0,0,1,0,8.8V7.677A7.962,7.962,0,0,1,8.219,0a7.962,7.962,0,0,1,8.219,7.677V8.8A7.962,7.962,0,0,1,8.219,16.479Z" transform="translate(0 0)" fill="#181818"/>
      </g>
      <g id="Group_471-2" data-name="Group 471" transform="translate(168.759 223.578) rotate(-90)">
        <path id="Path_23-25" data-name="Path 23" d="M8.219,61.471A7.962,7.962,0,0,1,0,53.794V52.668a7.962,7.962,0,0,1,8.219-7.677,7.962,7.962,0,0,1,8.219,7.677v1.126A7.962,7.962,0,0,1,8.219,61.471Zm0-44.992A7.962,7.962,0,0,1,0,8.8V7.677A7.962,7.962,0,0,1,8.219,0a7.962,7.962,0,0,1,8.219,7.677V8.8A7.962,7.962,0,0,1,8.219,16.479Z" transform="translate(42.765 0)" fill="#181818"/>
        <path id="Path_25-35" data-name="Path 25" d="M8.219,61.471A7.962,7.962,0,0,1,0,53.794V52.668a7.962,7.962,0,0,1,8.219-7.677,7.962,7.962,0,0,1,8.219,7.677v1.126A7.962,7.962,0,0,1,8.219,61.471Zm0-44.992A7.962,7.962,0,0,1,0,8.8V7.677A7.962,7.962,0,0,1,8.219,0a7.962,7.962,0,0,1,8.219,7.677V8.8A7.962,7.962,0,0,1,8.219,16.479Z" transform="translate(0 0)" fill="#181818"/>
      </g>
      <g id="Group_472-2" data-name="Group 472" transform="translate(168.759 141.391) rotate(-90)">
        <path id="Path_23-26" data-name="Path 23" d="M8.219,61.471A7.962,7.962,0,0,1,0,53.794V52.668a7.962,7.962,0,0,1,8.219-7.677,7.962,7.962,0,0,1,8.219,7.677v1.126A7.962,7.962,0,0,1,8.219,61.471Zm0-44.992A7.962,7.962,0,0,1,0,8.8V7.677A7.962,7.962,0,0,1,8.219,0a7.962,7.962,0,0,1,8.219,7.677V8.8A7.962,7.962,0,0,1,8.219,16.479Z" transform="translate(42.765 0)" fill="#181818"/>
        <path id="Path_25-36" data-name="Path 25" d="M8.219,61.471A7.962,7.962,0,0,1,0,53.794V52.668a7.962,7.962,0,0,1,8.219-7.677,7.962,7.962,0,0,1,8.219,7.677v1.126A7.962,7.962,0,0,1,8.219,61.471Zm0-44.992A7.962,7.962,0,0,1,0,8.8V7.677A7.962,7.962,0,0,1,8.219,0a7.962,7.962,0,0,1,8.219,7.677V8.8A7.962,7.962,0,0,1,8.219,16.479Z" transform="translate(0 0)" fill="#181818"/>
      </g>
      <g id="Group_473-2" data-name="Group 473" transform="translate(168.759 59.203) rotate(-90)">
        <path id="Path_23-27" data-name="Path 23" d="M8.219,61.471A7.962,7.962,0,0,1,0,53.794V52.668a7.962,7.962,0,0,1,8.219-7.677,7.962,7.962,0,0,1,8.219,7.677v1.126A7.962,7.962,0,0,1,8.219,61.471Zm0-44.992A7.962,7.962,0,0,1,0,8.8V7.677A7.962,7.962,0,0,1,8.219,0a7.962,7.962,0,0,1,8.219,7.677V8.8A7.962,7.962,0,0,1,8.219,16.479Z" transform="translate(42.765 0)" fill="#181818"/>
        <path id="Path_25-37" data-name="Path 25" d="M8.219,61.471A7.962,7.962,0,0,1,0,53.794V52.668a7.962,7.962,0,0,1,8.219-7.677,7.962,7.962,0,0,1,8.219,7.677v1.126A7.962,7.962,0,0,1,8.219,61.471Zm0-44.992A7.962,7.962,0,0,1,0,8.8V7.677A7.962,7.962,0,0,1,8.219,0a7.962,7.962,0,0,1,8.219,7.677V8.8A7.962,7.962,0,0,1,8.219,16.479Z" transform="translate(0 0)" fill="#181818"/>
      </g>
      <g id="Group_474-2" data-name="Group 474" transform="translate(253.138 223.578) rotate(-90)">
        <path id="Path_23-28" data-name="Path 23" d="M8.219,61.471A7.962,7.962,0,0,1,0,53.794V52.668a7.962,7.962,0,0,1,8.219-7.677,7.962,7.962,0,0,1,8.219,7.677v1.126A7.962,7.962,0,0,1,8.219,61.471Zm0-44.992A7.962,7.962,0,0,1,0,8.8V7.677A7.962,7.962,0,0,1,8.219,0a7.962,7.962,0,0,1,8.219,7.677V8.8A7.962,7.962,0,0,1,8.219,16.479Z" transform="translate(42.765 0)" fill="#181818"/>
        <path id="Path_25-38" data-name="Path 25" d="M8.219,61.471A7.962,7.962,0,0,1,0,53.794V52.668a7.962,7.962,0,0,1,8.219-7.677,7.962,7.962,0,0,1,8.219,7.677v1.126A7.962,7.962,0,0,1,8.219,61.471Zm0-44.992A7.962,7.962,0,0,1,0,8.8V7.677A7.962,7.962,0,0,1,8.219,0a7.962,7.962,0,0,1,8.219,7.677V8.8A7.962,7.962,0,0,1,8.219,16.479Z" transform="translate(0 0)" fill="#181818"/>
      </g>
      <g id="Group_475-2" data-name="Group 475" transform="translate(253.138 141.391) rotate(-90)">
        <path id="Path_23-29" data-name="Path 23" d="M8.219,61.471A7.962,7.962,0,0,1,0,53.794V52.668a7.962,7.962,0,0,1,8.219-7.677,7.962,7.962,0,0,1,8.219,7.677v1.126A7.962,7.962,0,0,1,8.219,61.471Zm0-44.992A7.962,7.962,0,0,1,0,8.8V7.677A7.962,7.962,0,0,1,8.219,0a7.962,7.962,0,0,1,8.219,7.677V8.8A7.962,7.962,0,0,1,8.219,16.479Z" transform="translate(42.765 0)" fill="#181818"/>
        <path id="Path_25-39" data-name="Path 25" d="M8.219,61.471A7.962,7.962,0,0,1,0,53.794V52.668a7.962,7.962,0,0,1,8.219-7.677,7.962,7.962,0,0,1,8.219,7.677v1.126A7.962,7.962,0,0,1,8.219,61.471Zm0-44.992A7.962,7.962,0,0,1,0,8.8V7.677A7.962,7.962,0,0,1,8.219,0a7.962,7.962,0,0,1,8.219,7.677V8.8A7.962,7.962,0,0,1,8.219,16.479Z" transform="translate(0 0)" fill="#181818"/>
      </g>
      <g id="Group_476-2" data-name="Group 476" transform="translate(253.138 59.203) rotate(-90)">
        <path id="Path_23-30" data-name="Path 23" d="M8.219,61.471A7.962,7.962,0,0,1,0,53.794V52.668a7.962,7.962,0,0,1,8.219-7.677,7.962,7.962,0,0,1,8.219,7.677v1.126A7.962,7.962,0,0,1,8.219,61.471Zm0-44.992A7.962,7.962,0,0,1,0,8.8V7.677A7.962,7.962,0,0,1,8.219,0a7.962,7.962,0,0,1,8.219,7.677V8.8A7.962,7.962,0,0,1,8.219,16.479Z" transform="translate(42.765 0)" fill="#181818"/>
        <path id="Path_25-40" data-name="Path 25" d="M8.219,61.471A7.962,7.962,0,0,1,0,53.794V52.668a7.962,7.962,0,0,1,8.219-7.677,7.962,7.962,0,0,1,8.219,7.677v1.126A7.962,7.962,0,0,1,8.219,61.471Zm0-44.992A7.962,7.962,0,0,1,0,8.8V7.677A7.962,7.962,0,0,1,8.219,0a7.962,7.962,0,0,1,8.219,7.677V8.8A7.962,7.962,0,0,1,8.219,16.479Z" transform="translate(0 0)" fill="#181818"/>
      </g>
      <g id="Group_477-2" data-name="Group 477" transform="translate(337.517 223.578) rotate(-90)">
        <path id="Path_23-31" data-name="Path 23" d="M8.219,61.471A7.962,7.962,0,0,1,0,53.794V52.668a7.962,7.962,0,0,1,8.219-7.677,7.962,7.962,0,0,1,8.219,7.677v1.126A7.962,7.962,0,0,1,8.219,61.471Zm0-44.992A7.962,7.962,0,0,1,0,8.8V7.677A7.962,7.962,0,0,1,8.219,0a7.962,7.962,0,0,1,8.219,7.677V8.8A7.962,7.962,0,0,1,8.219,16.479Z" transform="translate(42.765 0)" fill="#181818"/>
        <path id="Path_25-41" data-name="Path 25" d="M8.219,61.471A7.962,7.962,0,0,1,0,53.794V52.668a7.962,7.962,0,0,1,8.219-7.677,7.962,7.962,0,0,1,8.219,7.677v1.126A7.962,7.962,0,0,1,8.219,61.471Zm0-44.992A7.962,7.962,0,0,1,0,8.8V7.677A7.962,7.962,0,0,1,8.219,0a7.962,7.962,0,0,1,8.219,7.677V8.8A7.962,7.962,0,0,1,8.219,16.479Z" transform="translate(0 0)" fill="#181818"/>
      </g>
      <g id="Group_478-2" data-name="Group 478" transform="translate(337.517 141.391) rotate(-90)">
        <path id="Path_23-32" data-name="Path 23" d="M8.219,61.471A7.962,7.962,0,0,1,0,53.794V52.668a7.962,7.962,0,0,1,8.219-7.677,7.962,7.962,0,0,1,8.219,7.677v1.126A7.962,7.962,0,0,1,8.219,61.471Zm0-44.992A7.962,7.962,0,0,1,0,8.8V7.677A7.962,7.962,0,0,1,8.219,0a7.962,7.962,0,0,1,8.219,7.677V8.8A7.962,7.962,0,0,1,8.219,16.479Z" transform="translate(42.765 0)" fill="#181818"/>
        <path id="Path_25-42" data-name="Path 25" d="M8.219,61.471A7.962,7.962,0,0,1,0,53.794V52.668a7.962,7.962,0,0,1,8.219-7.677,7.962,7.962,0,0,1,8.219,7.677v1.126A7.962,7.962,0,0,1,8.219,61.471Zm0-44.992A7.962,7.962,0,0,1,0,8.8V7.677A7.962,7.962,0,0,1,8.219,0a7.962,7.962,0,0,1,8.219,7.677V8.8A7.962,7.962,0,0,1,8.219,16.479Z" transform="translate(0 0)" fill="#181818"/>
      </g>
      <g id="Group_479-2" data-name="Group 479" transform="translate(337.517 59.203) rotate(-90)">
        <path id="Path_23-33" data-name="Path 23" d="M8.219,61.471A7.962,7.962,0,0,1,0,53.794V52.668a7.962,7.962,0,0,1,8.219-7.677,7.962,7.962,0,0,1,8.219,7.677v1.126A7.962,7.962,0,0,1,8.219,61.471Zm0-44.992A7.962,7.962,0,0,1,0,8.8V7.677A7.962,7.962,0,0,1,8.219,0a7.962,7.962,0,0,1,8.219,7.677V8.8A7.962,7.962,0,0,1,8.219,16.479Z" transform="translate(42.765 0)" fill="#181818"/>
        <path id="Path_25-43" data-name="Path 25" d="M8.219,61.471A7.962,7.962,0,0,1,0,53.794V52.668a7.962,7.962,0,0,1,8.219-7.677,7.962,7.962,0,0,1,8.219,7.677v1.126A7.962,7.962,0,0,1,8.219,61.471Zm0-44.992A7.962,7.962,0,0,1,0,8.8V7.677A7.962,7.962,0,0,1,8.219,0a7.962,7.962,0,0,1,8.219,7.677V8.8A7.962,7.962,0,0,1,8.219,16.479Z" transform="translate(0 0)" fill="#181818"/>
      </g>
      <g id="Group_480-2" data-name="Group 480" transform="translate(421.896 223.578) rotate(-90)">
        <path id="Path_23-34" data-name="Path 23" d="M8.219,61.471A7.962,7.962,0,0,1,0,53.794V52.668a7.962,7.962,0,0,1,8.219-7.677,7.962,7.962,0,0,1,8.219,7.677v1.126A7.962,7.962,0,0,1,8.219,61.471Zm0-44.992A7.962,7.962,0,0,1,0,8.8V7.677A7.962,7.962,0,0,1,8.219,0a7.962,7.962,0,0,1,8.219,7.677V8.8A7.962,7.962,0,0,1,8.219,16.479Z" transform="translate(42.765 0)" fill="#181818"/>
        <path id="Path_25-44" data-name="Path 25" d="M8.219,61.471A7.962,7.962,0,0,1,0,53.794V52.668a7.962,7.962,0,0,1,8.219-7.677,7.962,7.962,0,0,1,8.219,7.677v1.126A7.962,7.962,0,0,1,8.219,61.471Zm0-44.992A7.962,7.962,0,0,1,0,8.8V7.677A7.962,7.962,0,0,1,8.219,0a7.962,7.962,0,0,1,8.219,7.677V8.8A7.962,7.962,0,0,1,8.219,16.479Z" transform="translate(0 0)" fill="#181818"/>
      </g>
      <g id="Group_481-2" data-name="Group 481" transform="translate(421.896 141.391) rotate(-90)">
        <path id="Path_23-35" data-name="Path 23" d="M8.219,61.471A7.962,7.962,0,0,1,0,53.794V52.668a7.962,7.962,0,0,1,8.219-7.677,7.962,7.962,0,0,1,8.219,7.677v1.126A7.962,7.962,0,0,1,8.219,61.471Zm0-44.992A7.962,7.962,0,0,1,0,8.8V7.677A7.962,7.962,0,0,1,8.219,0a7.962,7.962,0,0,1,8.219,7.677V8.8A7.962,7.962,0,0,1,8.219,16.479Z" transform="translate(42.765 0)" fill="#181818"/>
        <path id="Path_25-45" data-name="Path 25" d="M8.219,61.471A7.962,7.962,0,0,1,0,53.794V52.668a7.962,7.962,0,0,1,8.219-7.677,7.962,7.962,0,0,1,8.219,7.677v1.126A7.962,7.962,0,0,1,8.219,61.471Zm0-44.992A7.962,7.962,0,0,1,0,8.8V7.677A7.962,7.962,0,0,1,8.219,0a7.962,7.962,0,0,1,8.219,7.677V8.8A7.962,7.962,0,0,1,8.219,16.479Z" transform="translate(0 0)" fill="#181818"/>
      </g>
      <g id="Group_482-2" data-name="Group 482" transform="translate(421.896 59.203) rotate(-90)">
        <path id="Path_23-36" data-name="Path 23" d="M8.219,61.471A7.962,7.962,0,0,1,0,53.794V52.668a7.962,7.962,0,0,1,8.219-7.677,7.962,7.962,0,0,1,8.219,7.677v1.126A7.962,7.962,0,0,1,8.219,61.471Zm0-44.992A7.962,7.962,0,0,1,0,8.8V7.677A7.962,7.962,0,0,1,8.219,0a7.962,7.962,0,0,1,8.219,7.677V8.8A7.962,7.962,0,0,1,8.219,16.479Z" transform="translate(42.765 0)" fill="#181818"/>
        <path id="Path_25-46" data-name="Path 25" d="M8.219,61.471A7.962,7.962,0,0,1,0,53.794V52.668a7.962,7.962,0,0,1,8.219-7.677,7.962,7.962,0,0,1,8.219,7.677v1.126A7.962,7.962,0,0,1,8.219,61.471Zm0-44.992A7.962,7.962,0,0,1,0,8.8V7.677A7.962,7.962,0,0,1,8.219,0a7.962,7.962,0,0,1,8.219,7.677V8.8A7.962,7.962,0,0,1,8.219,16.479Z" transform="translate(0 0)" fill="#181818"/>
      </g>
    </g>
  </g>
</svg>
