<svg xmlns="http://www.w3.org/2000/svg" width="233.658" height="233.659" viewBox="0 0 233.658 233.659">
  <g id="Group_527" data-name="Group 527" transform="translate(209.858 306.926) rotate(-135)" opacity="0.55">
    <g id="Group_465" data-name="Group 465" transform="translate(259.041 137.276) rotate(-90)">
      <path id="Path_23" data-name="Path 23" d="M5.046,0A4.888,4.888,0,0,0,0,4.713V5.4a4.888,4.888,0,0,0,5.046,4.713A4.888,4.888,0,0,0,10.093,5.4V4.713A4.888,4.888,0,0,0,5.046,0Zm0,27.625A4.888,4.888,0,0,0,0,32.338v.691a4.888,4.888,0,0,0,5.046,4.713,4.888,4.888,0,0,0,5.046-4.713v-.691A4.888,4.888,0,0,0,5.046,27.625Z" transform="translate(26.258 0)" fill="#ece9e9"/>
      <path id="Path_25" data-name="Path 25" d="M5.046,0A4.888,4.888,0,0,0,0,4.713V5.4a4.888,4.888,0,0,0,5.046,4.713A4.888,4.888,0,0,0,10.093,5.4V4.713A4.888,4.888,0,0,0,5.046,0Zm0,27.625A4.888,4.888,0,0,0,0,32.338v.691a4.888,4.888,0,0,0,5.046,4.713,4.888,4.888,0,0,0,5.046-4.713v-.691A4.888,4.888,0,0,0,5.046,27.625Z" transform="translate(0 0)" fill="#ece9e9"/>
    </g>
    <g id="Group_466" data-name="Group 466" transform="translate(259.042 86.813) rotate(-90)">
      <path id="Path_23-2" data-name="Path 23" d="M5.046,0A4.888,4.888,0,0,0,0,4.713V5.4a4.888,4.888,0,0,0,5.046,4.713A4.888,4.888,0,0,0,10.093,5.4V4.713A4.888,4.888,0,0,0,5.046,0Zm0,27.625A4.888,4.888,0,0,0,0,32.338v.691a4.888,4.888,0,0,0,5.046,4.713,4.888,4.888,0,0,0,5.046-4.713v-.691A4.888,4.888,0,0,0,5.046,27.625Z" transform="translate(26.258 0)" fill="#ece9e9"/>
      <path id="Path_25-2" data-name="Path 25" d="M5.046,0A4.888,4.888,0,0,0,0,4.713V5.4a4.888,4.888,0,0,0,5.046,4.713A4.888,4.888,0,0,0,10.093,5.4V4.713A4.888,4.888,0,0,0,5.046,0Zm0,27.625A4.888,4.888,0,0,0,0,32.338v.691a4.888,4.888,0,0,0,5.046,4.713,4.888,4.888,0,0,0,5.046-4.713v-.691A4.888,4.888,0,0,0,5.046,27.625Z" transform="translate(0 0)" fill="#ece9e9"/>
    </g>
    <g id="Group_467" data-name="Group 467" transform="translate(259.041 36.35) rotate(-90)">
      <path id="Path_23-3" data-name="Path 23" d="M5.046,0A4.888,4.888,0,0,0,0,4.713V5.4a4.888,4.888,0,0,0,5.046,4.713A4.888,4.888,0,0,0,10.093,5.4V4.713A4.888,4.888,0,0,0,5.046,0Zm0,27.625A4.888,4.888,0,0,0,0,32.338v.691a4.888,4.888,0,0,0,5.046,4.713,4.888,4.888,0,0,0,5.046-4.713v-.691A4.888,4.888,0,0,0,5.046,27.625Z" transform="translate(26.258 0)" fill="#ece9e9"/>
      <path id="Path_25-3" data-name="Path 25" d="M5.046,0A4.888,4.888,0,0,0,0,4.713V5.4a4.888,4.888,0,0,0,5.046,4.713A4.888,4.888,0,0,0,10.093,5.4V4.713A4.888,4.888,0,0,0,5.046,0Zm0,27.625A4.888,4.888,0,0,0,0,32.338v.691a4.888,4.888,0,0,0,5.046,4.713,4.888,4.888,0,0,0,5.046-4.713v-.691A4.888,4.888,0,0,0,5.046,27.625Z" transform="translate(0 0)" fill="#ece9e9"/>
    </g>
    <g id="Group_468" data-name="Group 468" transform="translate(207.234 137.276) rotate(-90)">
      <path id="Path_23-4" data-name="Path 23" d="M5.046,0A4.888,4.888,0,0,0,0,4.713V5.4a4.888,4.888,0,0,0,5.046,4.713A4.888,4.888,0,0,0,10.093,5.4V4.713A4.888,4.888,0,0,0,5.046,0Zm0,27.625A4.888,4.888,0,0,0,0,32.338v.691a4.888,4.888,0,0,0,5.046,4.713,4.888,4.888,0,0,0,5.046-4.713v-.691A4.888,4.888,0,0,0,5.046,27.625Z" transform="translate(26.258 0)" fill="#ece9e9"/>
      <path id="Path_25-4" data-name="Path 25" d="M5.046,0A4.888,4.888,0,0,0,0,4.713V5.4a4.888,4.888,0,0,0,5.046,4.713A4.888,4.888,0,0,0,10.093,5.4V4.713A4.888,4.888,0,0,0,5.046,0Zm0,27.625A4.888,4.888,0,0,0,0,32.338v.691a4.888,4.888,0,0,0,5.046,4.713,4.888,4.888,0,0,0,5.046-4.713v-.691A4.888,4.888,0,0,0,5.046,27.625Z" transform="translate(0 0)" fill="#ece9e9"/>
    </g>
    <g id="Group_469" data-name="Group 469" transform="translate(207.234 86.813) rotate(-90)">
      <path id="Path_23-5" data-name="Path 23" d="M5.046,0A4.888,4.888,0,0,0,0,4.713V5.4a4.888,4.888,0,0,0,5.046,4.713A4.888,4.888,0,0,0,10.093,5.4V4.713A4.888,4.888,0,0,0,5.046,0Zm0,27.625A4.888,4.888,0,0,0,0,32.338v.691a4.888,4.888,0,0,0,5.046,4.713,4.888,4.888,0,0,0,5.046-4.713v-.691A4.888,4.888,0,0,0,5.046,27.625Z" transform="translate(26.258 0)" fill="#ece9e9"/>
      <path id="Path_25-5" data-name="Path 25" d="M5.046,0A4.888,4.888,0,0,0,0,4.713V5.4a4.888,4.888,0,0,0,5.046,4.713A4.888,4.888,0,0,0,10.093,5.4V4.713A4.888,4.888,0,0,0,5.046,0Zm0,27.625A4.888,4.888,0,0,0,0,32.338v.691a4.888,4.888,0,0,0,5.046,4.713,4.888,4.888,0,0,0,5.046-4.713v-.691A4.888,4.888,0,0,0,5.046,27.625Z" transform="translate(0 0)" fill="#ece9e9"/>
    </g>
    <g id="Group_470" data-name="Group 470" transform="translate(207.233 36.35) rotate(-90)">
      <path id="Path_23-6" data-name="Path 23" d="M5.046,0A4.888,4.888,0,0,0,0,4.713V5.4a4.888,4.888,0,0,0,5.046,4.713A4.888,4.888,0,0,0,10.093,5.4V4.713A4.888,4.888,0,0,0,5.046,0Zm0,27.625A4.888,4.888,0,0,0,0,32.338v.691a4.888,4.888,0,0,0,5.046,4.713,4.888,4.888,0,0,0,5.046-4.713v-.691A4.888,4.888,0,0,0,5.046,27.625Z" transform="translate(26.258 0)" fill="#ece9e9"/>
      <path id="Path_25-6" data-name="Path 25" d="M5.046,0A4.888,4.888,0,0,0,0,4.713V5.4a4.888,4.888,0,0,0,5.046,4.713A4.888,4.888,0,0,0,10.093,5.4V4.713A4.888,4.888,0,0,0,5.046,0Zm0,27.625A4.888,4.888,0,0,0,0,32.338v.691a4.888,4.888,0,0,0,5.046,4.713,4.888,4.888,0,0,0,5.046-4.713v-.691A4.888,4.888,0,0,0,5.046,27.625Z" transform="translate(0 0)" fill="#ece9e9"/>
    </g>
    <g id="Group_471" data-name="Group 471" transform="translate(155.425 137.276) rotate(-90)">
      <path id="Path_23-7" data-name="Path 23" d="M5.046,0A4.888,4.888,0,0,0,0,4.713V5.4a4.888,4.888,0,0,0,5.046,4.713A4.888,4.888,0,0,0,10.093,5.4V4.713A4.888,4.888,0,0,0,5.046,0Zm0,27.625A4.888,4.888,0,0,0,0,32.338v.691a4.888,4.888,0,0,0,5.046,4.713,4.888,4.888,0,0,0,5.046-4.713v-.691A4.888,4.888,0,0,0,5.046,27.625Z" transform="translate(26.258 0)" fill="#ece9e9"/>
      <path id="Path_25-7" data-name="Path 25" d="M5.046,0A4.888,4.888,0,0,0,0,4.713V5.4a4.888,4.888,0,0,0,5.046,4.713A4.888,4.888,0,0,0,10.093,5.4V4.713A4.888,4.888,0,0,0,5.046,0Zm0,27.625A4.888,4.888,0,0,0,0,32.338v.691a4.888,4.888,0,0,0,5.046,4.713,4.888,4.888,0,0,0,5.046-4.713v-.691A4.888,4.888,0,0,0,5.046,27.625Z" transform="translate(0 0)" fill="#ece9e9"/>
    </g>
    <g id="Group_472" data-name="Group 472" transform="translate(155.425 86.813) rotate(-90)">
      <path id="Path_23-8" data-name="Path 23" d="M5.046,0A4.888,4.888,0,0,0,0,4.713V5.4a4.888,4.888,0,0,0,5.046,4.713A4.888,4.888,0,0,0,10.093,5.4V4.713A4.888,4.888,0,0,0,5.046,0Zm0,27.625A4.888,4.888,0,0,0,0,32.338v.691a4.888,4.888,0,0,0,5.046,4.713,4.888,4.888,0,0,0,5.046-4.713v-.691A4.888,4.888,0,0,0,5.046,27.625Z" transform="translate(26.258 0)" fill="#ece9e9"/>
      <path id="Path_25-8" data-name="Path 25" d="M5.046,0A4.888,4.888,0,0,0,0,4.713V5.4a4.888,4.888,0,0,0,5.046,4.713A4.888,4.888,0,0,0,10.093,5.4V4.713A4.888,4.888,0,0,0,5.046,0Zm0,27.625A4.888,4.888,0,0,0,0,32.338v.691a4.888,4.888,0,0,0,5.046,4.713,4.888,4.888,0,0,0,5.046-4.713v-.691A4.888,4.888,0,0,0,5.046,27.625Z" transform="translate(0 0)" fill="#ece9e9"/>
    </g>
    <g id="Group_473" data-name="Group 473" transform="translate(155.425 36.35) rotate(-90)">
      <path id="Path_23-9" data-name="Path 23" d="M5.046,0A4.888,4.888,0,0,0,0,4.713V5.4a4.888,4.888,0,0,0,5.046,4.713A4.888,4.888,0,0,0,10.093,5.4V4.713A4.888,4.888,0,0,0,5.046,0Zm0,27.625A4.888,4.888,0,0,0,0,32.338v.691a4.888,4.888,0,0,0,5.046,4.713,4.888,4.888,0,0,0,5.046-4.713v-.691A4.888,4.888,0,0,0,5.046,27.625Z" transform="translate(26.258 0)" fill="#ece9e9"/>
      <path id="Path_25-9" data-name="Path 25" d="M5.046,0A4.888,4.888,0,0,0,0,4.713V5.4a4.888,4.888,0,0,0,5.046,4.713A4.888,4.888,0,0,0,10.093,5.4V4.713A4.888,4.888,0,0,0,5.046,0Zm0,27.625A4.888,4.888,0,0,0,0,32.338v.691a4.888,4.888,0,0,0,5.046,4.713,4.888,4.888,0,0,0,5.046-4.713v-.691A4.888,4.888,0,0,0,5.046,27.625Z" transform="translate(0 0)" fill="#ece9e9"/>
    </g>
    <g id="Group_474" data-name="Group 474" transform="translate(103.617 137.276) rotate(-90)">
      <path id="Path_23-10" data-name="Path 23" d="M5.046,0A4.888,4.888,0,0,0,0,4.713V5.4a4.888,4.888,0,0,0,5.046,4.713A4.888,4.888,0,0,0,10.093,5.4V4.713A4.888,4.888,0,0,0,5.046,0Zm0,27.625A4.888,4.888,0,0,0,0,32.338v.691a4.888,4.888,0,0,0,5.046,4.713,4.888,4.888,0,0,0,5.046-4.713v-.691A4.888,4.888,0,0,0,5.046,27.625Z" transform="translate(26.258 0)" fill="#ece9e9"/>
      <path id="Path_25-10" data-name="Path 25" d="M5.046,0A4.888,4.888,0,0,0,0,4.713V5.4a4.888,4.888,0,0,0,5.046,4.713A4.888,4.888,0,0,0,10.093,5.4V4.713A4.888,4.888,0,0,0,5.046,0Zm0,27.625A4.888,4.888,0,0,0,0,32.338v.691a4.888,4.888,0,0,0,5.046,4.713,4.888,4.888,0,0,0,5.046-4.713v-.691A4.888,4.888,0,0,0,5.046,27.625Z" transform="translate(0 0)" fill="#ece9e9"/>
    </g>
    <g id="Group_475" data-name="Group 475" transform="translate(103.617 86.813) rotate(-90)">
      <path id="Path_23-11" data-name="Path 23" d="M5.046,0A4.888,4.888,0,0,0,0,4.713V5.4a4.888,4.888,0,0,0,5.046,4.713A4.888,4.888,0,0,0,10.093,5.4V4.713A4.888,4.888,0,0,0,5.046,0Zm0,27.625A4.888,4.888,0,0,0,0,32.338v.691a4.888,4.888,0,0,0,5.046,4.713,4.888,4.888,0,0,0,5.046-4.713v-.691A4.888,4.888,0,0,0,5.046,27.625Z" transform="translate(26.258 0)" fill="#ece9e9"/>
      <path id="Path_25-11" data-name="Path 25" d="M5.046,0A4.888,4.888,0,0,0,0,4.713V5.4a4.888,4.888,0,0,0,5.046,4.713A4.888,4.888,0,0,0,10.093,5.4V4.713A4.888,4.888,0,0,0,5.046,0Zm0,27.625A4.888,4.888,0,0,0,0,32.338v.691a4.888,4.888,0,0,0,5.046,4.713,4.888,4.888,0,0,0,5.046-4.713v-.691A4.888,4.888,0,0,0,5.046,27.625Z" transform="translate(0 0)" fill="#ece9e9"/>
    </g>
    <g id="Group_476" data-name="Group 476" transform="translate(103.616 36.35) rotate(-90)">
      <path id="Path_23-12" data-name="Path 23" d="M5.046,0A4.888,4.888,0,0,0,0,4.713V5.4a4.888,4.888,0,0,0,5.046,4.713A4.888,4.888,0,0,0,10.093,5.4V4.713A4.888,4.888,0,0,0,5.046,0Zm0,27.625A4.888,4.888,0,0,0,0,32.338v.691a4.888,4.888,0,0,0,5.046,4.713,4.888,4.888,0,0,0,5.046-4.713v-.691A4.888,4.888,0,0,0,5.046,27.625Z" transform="translate(26.258 0)" fill="#ece9e9"/>
      <path id="Path_25-12" data-name="Path 25" d="M5.046,0A4.888,4.888,0,0,0,0,4.713V5.4a4.888,4.888,0,0,0,5.046,4.713A4.888,4.888,0,0,0,10.093,5.4V4.713A4.888,4.888,0,0,0,5.046,0Zm0,27.625A4.888,4.888,0,0,0,0,32.338v.691a4.888,4.888,0,0,0,5.046,4.713,4.888,4.888,0,0,0,5.046-4.713v-.691A4.888,4.888,0,0,0,5.046,27.625Z" transform="translate(0 0)" fill="#ece9e9"/>
    </g>
  </g>
</svg>
