<svg xmlns="http://www.w3.org/2000/svg" xmlns:xlink="http://www.w3.org/1999/xlink" width="523.115" height="520.596" viewBox="0 0 523.115 520.596">
  <defs>
    <clipPath id="clip-path">
      <path id="Path_30" data-name="Path 30" d="M0-1546.769H523.115v-520.6H0Z" transform="translate(0 2067.366)" fill="#181818"/>
    </clipPath>
  </defs>
  <g id="Group_558" data-name="Group 558" transform="translate(0 2067.367)" opacity="0.098">
    <g id="Group_445" data-name="Group 445" transform="translate(0 -2067.366)" clip-path="url(#clip-path)">
      <g id="Group_443" data-name="Group 443" transform="translate(2.266 1.763)">
        <path id="Path_28" data-name="Path 28" d="M-1540.784-770.392c0-143.2-116.089-259.291-259.291-259.291s-259.291,116.089-259.291,259.291S-1943.278-511.1-1800.075-511.1s259.291-116.089,259.291-259.291m-53.159,0c0,113.844-92.289,206.133-206.132,206.133s-206.132-92.289-206.132-206.133,92.289-206.132,206.132-206.132,206.132,92.289,206.132,206.132" transform="translate(2059.366 1029.683)" fill="#181818"/>
      </g>
      <g id="Group_444" data-name="Group 444" transform="translate(164.86 164.356)">
        <path id="Path_29" data-name="Path 29" d="M-287.3-574.605a96.7,96.7,0,0,0,96.7-96.7A96.7,96.7,0,0,0-287.3-768,96.7,96.7,0,0,0-384-671.3a96.7,96.7,0,0,0,96.7,96.7" transform="translate(384 768)" fill="#181818"/>
      </g>
    </g>
  </g>
</svg>
