<svg xmlns="http://www.w3.org/2000/svg" xmlns:xlink="http://www.w3.org/1999/xlink" width="331.972" height="330.374" viewBox="0 0 331.972 330.374">
  <defs>
    <clipPath id="clip-path">
      <path id="Path_30" data-name="Path 30" d="M0-1736.992H331.972v-330.374H0Z" transform="translate(0 2067.366)" fill="#181818"/>
    </clipPath>
  </defs>
  <g id="Group_446" data-name="Group 446" transform="translate(0 2067.366)" opacity="0.15">
    <g id="Group_445" data-name="Group 445" transform="translate(0 -2067.366)" clip-path="url(#clip-path)">
      <g id="Group_443" data-name="Group 443" transform="translate(1.438 1.119)">
        <path id="Path_28" data-name="Path 28" d="M-1730.27-865.135a164.548,164.548,0,0,0-164.548-164.548,164.548,164.548,0,0,0-164.548,164.548,164.548,164.548,0,0,0,164.548,164.548A164.548,164.548,0,0,0-1730.27-865.135m-33.735,0a130.813,130.813,0,0,1-130.813,130.813,130.813,130.813,0,0,1-130.813-130.813,130.813,130.813,0,0,1,130.813-130.813,130.813,130.813,0,0,1,130.813,130.813" transform="translate(2059.366 1029.683)" fill="#181818"/>
      </g>
      <g id="Group_444" data-name="Group 444" transform="translate(104.621 104.302)">
        <path id="Path_29" data-name="Path 29" d="M-322.635-645.27a61.365,61.365,0,0,0,61.365-61.365A61.365,61.365,0,0,0-322.635-768,61.365,61.365,0,0,0-384-706.635a61.365,61.365,0,0,0,61.365,61.365" transform="translate(384 768)" fill="#181818"/>
      </g>
    </g>
  </g>
</svg>
